M48
; DRILL file {KiCad (7.0.0)} date Fri Sep  6 15:26:17 2024
; FORMAT={-:-/ absolute / inch / decimal}
; #@! TF.CreationDate,2024-09-06T15:26:17+09:00
; #@! TF.GenerationSoftware,Kicad,Pcbnew,(7.0.0)
; #@! TF.FileFunction,NonPlated,1,2,NPTH
FMAT,2
INCH
; #@! TA.AperFunction,NonPlated,NPTH,ComponentDrill
T1C0.0709
; #@! TA.AperFunction,NonPlated,NPTH,ComponentDrill
T2C0.0787
; #@! TA.AperFunction,NonPlated,NPTH,ComponentDrill
T3C0.1181
; #@! TA.AperFunction,NonPlated,NPTH,ComponentDrill
T4C0.1201
; #@! TA.AperFunction,NonPlated,NPTH,ComponentDrill
T5C0.1575
%
G90
G05
T1
X2.425Y-5.5312
X2.825Y-5.5312
X6.4563Y-6.2812
X6.8563Y-6.2812
T2
X2.05Y-3.2812
X2.1438Y-4.0312
X2.1438Y-6.2812
X2.2375Y-4.7812
X2.45Y-3.2812
X2.5438Y-4.0312
X2.5438Y-6.2812
X2.6375Y-4.7812
X2.7943Y-3.2811
X2.9875Y-4.0312
X2.9875Y-6.2812
X3.175Y-4.7812
X3.1943Y-3.2811
X3.3875Y-4.0312
X3.3875Y-6.2812
X3.55Y-3.2812
X3.55Y-5.5312
X3.575Y-4.7812
X3.7375Y-4.0312
X3.7375Y-6.2812
X3.925Y-4.7812
X3.95Y-3.2812
X3.95Y-5.5312
X4.1375Y-4.0312
X4.1375Y-6.2812
X4.3Y-3.2812
X4.3Y-5.5312
X4.325Y-4.7812
X4.4875Y-4.0312
X4.675Y-4.7812
X4.7Y-3.2812
X4.7Y-5.5312
X4.8875Y-4.0312
X5.05Y-3.2812
X5.05Y-5.5312
X5.075Y-4.7812
X5.2375Y-4.0312
X5.425Y-4.7812
X5.45Y-3.2812
X5.45Y-5.5312
X5.6375Y-4.0312
X5.8Y-3.2812
X5.8Y-5.5312
X5.825Y-4.7812
X5.9875Y-4.0312
X6.175Y-4.7812
X6.2Y-3.2812
X6.2Y-5.5312
X6.3875Y-4.0312
X6.55Y-3.2812
X6.55Y-5.5312
X6.575Y-4.7812
X6.7375Y-4.0312
X6.925Y-4.7812
X6.95Y-3.2812
X6.95Y-5.5312
X7.1375Y-4.0312
X7.3Y-3.2812
X7.3Y-5.5312
X7.325Y-4.7812
X7.4875Y-4.0312
X7.675Y-4.7812
X7.7Y-3.2812
X7.7Y-5.5312
X7.8875Y-4.0312
X8.05Y-3.2812
X8.05Y-5.5312
X8.075Y-4.7812
X8.2375Y-4.0312
X8.425Y-4.7812
X8.45Y-3.2812
X8.45Y-5.5312
X8.6375Y-4.0312
X8.8Y-3.2812
X8.8Y-5.5312
X8.825Y-4.7812
X8.9875Y-4.0312
X9.175Y-4.7812
X9.2Y-3.2812
X9.2Y-5.5312
X9.2688Y-6.2812
X9.3875Y-4.0312
X9.55Y-3.2812
X9.55Y-5.5312
X9.575Y-4.7812
X9.6688Y-6.2812
X9.7375Y-4.0312
X9.95Y-3.2812
X9.95Y-5.5312
X10.1375Y-4.0312
X10.2063Y-4.7812
X10.3Y-6.2812
X10.3938Y-3.2812
X10.3938Y-5.5312
X10.4875Y-4.0312
X10.6063Y-4.7812
X10.7Y-6.2812
X10.7938Y-3.2812
X10.7938Y-5.5312
X10.8875Y-4.0312
T3
X2.1Y-3.1812
X2.1938Y-3.9312
X2.1938Y-6.1812
X2.2875Y-4.6812
X2.35Y-3.0812
X2.4438Y-3.8312
X2.4438Y-6.0812
X2.475Y-5.4312
X2.5375Y-4.5812
X2.725Y-5.3312
X2.8443Y-3.1811
X3.0375Y-3.9312
X3.0375Y-6.1812
X3.0943Y-3.0811
X3.225Y-4.6812
X3.2875Y-3.8312
X3.2875Y-6.0812
X3.475Y-4.5812
X3.6Y-3.1812
X3.6Y-5.4312
X3.7875Y-3.9312
X3.7875Y-6.1812
X3.85Y-3.0812
X3.85Y-5.3312
X3.975Y-4.6812
X4.0375Y-3.8312
X4.0375Y-6.0812
X4.225Y-4.5812
X4.35Y-3.1812
X4.35Y-5.4312
X4.5375Y-3.9312
X4.6Y-3.0812
X4.6Y-5.3312
X4.725Y-4.6812
X4.7875Y-3.8312
X4.975Y-4.5812
X5.1Y-3.1812
X5.1Y-5.4312
X5.2875Y-3.9312
X5.35Y-3.0812
X5.35Y-5.3312
X5.475Y-4.6812
X5.5375Y-3.8312
X5.725Y-4.5812
X5.85Y-3.1812
X5.85Y-5.4312
X6.0375Y-3.9312
X6.1Y-3.0812
X6.1Y-5.3312
X6.225Y-4.6812
X6.2875Y-3.8312
X6.475Y-4.5812
X6.5063Y-6.1812
X6.6Y-3.1812
X6.6Y-5.4312
X6.7563Y-6.0812
X6.7875Y-3.9312
X6.85Y-3.0812
X6.85Y-5.3312
X6.975Y-4.6812
X7.0375Y-3.8312
X7.225Y-4.5812
X7.35Y-3.1812
X7.35Y-5.4312
X7.5375Y-3.9312
X7.6Y-3.0812
X7.6Y-5.3312
X7.725Y-4.6812
X7.7875Y-3.8312
X7.975Y-4.5812
X8.1Y-3.1812
X8.1Y-5.4312
X8.2875Y-3.9312
X8.35Y-3.0812
X8.35Y-5.3312
X8.475Y-4.6812
X8.5375Y-3.8312
X8.725Y-4.5812
X8.85Y-3.1812
X8.85Y-5.4312
X9.0375Y-3.9312
X9.1Y-3.0812
X9.1Y-5.3312
X9.225Y-4.6812
X9.2875Y-3.8312
X9.3188Y-6.1812
X9.475Y-4.5812
X9.5688Y-6.0812
X9.6Y-3.1812
X9.6Y-5.4312
X9.7875Y-3.9312
X9.85Y-3.0812
X9.85Y-5.3312
X10.0375Y-3.8312
X10.2563Y-4.6812
X10.35Y-6.1812
X10.4438Y-3.1812
X10.4438Y-5.4312
X10.5063Y-4.5812
X10.5375Y-3.9312
X10.6Y-6.0812
X10.6938Y-3.0812
X10.6938Y-5.3312
X10.7875Y-3.8312
T4
X2.1565Y-5.2557
X3.0935Y-5.2557
X4.6874Y-6.0057
X8.6251Y-6.0057
T5
X2.1565Y-5.8557
X2.25Y-3.2812
X2.3438Y-4.0312
X2.3438Y-6.2812
X2.4375Y-4.7812
X2.625Y-5.5312
X2.9943Y-3.2811
X3.0935Y-5.8557
X3.1875Y-4.0312
X3.1875Y-6.2812
X3.375Y-4.7812
X3.75Y-3.2812
X3.75Y-5.5312
X3.9375Y-4.0312
X3.9375Y-6.2812
X4.125Y-4.7812
X4.5Y-3.2812
X4.5Y-5.5312
X4.6874Y-6.6057
X4.6875Y-4.0312
X4.875Y-4.7812
X5.25Y-3.2812
X5.25Y-5.5312
X5.4375Y-4.0312
X5.625Y-4.7812
X6.0Y-3.2812
X6.0Y-5.5312
X6.1875Y-4.0312
X6.375Y-4.7812
X6.6563Y-6.2812
X6.75Y-3.2812
X6.75Y-5.5312
X6.9375Y-4.0312
X7.125Y-4.7812
X7.5Y-3.2812
X7.5Y-5.5312
X7.6875Y-4.0312
X7.875Y-4.7812
X8.25Y-3.2812
X8.25Y-5.5312
X8.4375Y-4.0312
X8.625Y-4.7812
X8.6251Y-6.6057
X9.0Y-3.2812
X9.0Y-5.5312
X9.1875Y-4.0312
X9.375Y-4.7812
X9.4688Y-6.2812
X9.75Y-3.2812
X9.75Y-5.5312
X9.9375Y-4.0312
X10.4063Y-4.7812
X10.5Y-6.2812
X10.5938Y-3.2812
X10.5938Y-5.5312
X10.6875Y-4.0312
T0
M30
