M48
; DRILL file {KiCad (7.0.0)} date Fri Sep  6 15:26:17 2024
; FORMAT={-:-/ absolute / inch / decimal}
; #@! TF.CreationDate,2024-09-06T15:26:17+09:00
; #@! TF.GenerationSoftware,Kicad,Pcbnew,(7.0.0)
; #@! TF.FileFunction,Plated,1,2,PTH
FMAT,2
INCH
; #@! TA.AperFunction,Plated,PTH,ViaDrill
T1C0.0157
; #@! TA.AperFunction,Plated,PTH,ComponentDrill
T2C0.0320
; #@! TA.AperFunction,Plated,PTH,ComponentDrill
T3C0.0512
%
G90
G05
T1
X2.1532Y-4.3425
X2.1589Y-4.5859
X2.1589Y-5.1403
X2.2392Y-3.6009
X2.2491Y-3.0577
X2.5544Y-3.1897
X2.6733Y-3.6236
X2.689Y-3.3731
X3.0804Y-4.8804
X3.104Y-4.8233
X3.3203Y-5.7713
X3.3877Y-5.7039
X3.4946Y-3.443
X3.7194Y-4.3337
X3.7424Y-4.1575
X3.7861Y-3.587
X3.8214Y-5.7712
X4.0758Y-5.5169
X4.8266Y-3.4026
X5.633Y-3.4901
X5.9214Y-3.5703
X7.2244Y-3.5256
X7.8418Y-3.0963
X9.2884Y-2.9834
X10.122Y-2.9657
T2
X2.0892Y-2.9402
X2.0892Y-3.5395
X2.1892Y-2.9402
X2.1892Y-3.5395
X2.2892Y-2.9402
X2.2892Y-3.5395
X2.3114Y-4.4062
X2.3892Y-2.9402
X2.3892Y-3.5395
X2.4051Y-5.1562
X2.4892Y-2.9402
X2.4892Y-3.5395
X2.5892Y-2.9402
X2.5892Y-3.5395
X2.6114Y-4.4062
X2.6892Y-2.9402
X2.6892Y-3.5395
X2.7051Y-5.1562
X2.7559Y-3.9789
X2.7559Y-4.2789
X2.7608Y-6.2969
X2.7608Y-6.5969
X2.7892Y-2.9402
X2.7892Y-3.5395
X2.8892Y-2.9402
X2.8892Y-3.5395
X2.9892Y-2.9402
X2.9892Y-3.5395
X3.0892Y-2.9402
X3.0892Y-3.5395
X3.1892Y-2.9402
X3.1892Y-3.5395
X3.225Y-4.4062
X3.3563Y-3.3441
X3.3563Y-3.6441
X3.5167Y-6.2998
X3.5167Y-6.5998
X3.525Y-4.4062
X3.6239Y-5.1562
X3.6925Y-3.6516
X3.8913Y-2.8996
X3.9239Y-5.1562
X3.9925Y-3.6516
X3.9989Y-4.4062
X4.1913Y-2.8996
X4.2717Y-6.289
X4.2717Y-6.589
X4.2841Y-3.6634
X4.2989Y-4.4062
X4.3739Y-5.1562
X4.4602Y-2.9016
X4.5841Y-3.6634
X4.6739Y-5.1562
X4.6875Y-4.4062
X4.7602Y-2.9016
X4.8992Y-3.6555
X4.9875Y-4.4062
X5.0213Y-2.9045
X5.1239Y-5.1562
X5.1992Y-3.6555
X5.3213Y-2.9045
X5.4239Y-5.1562
X5.4511Y-4.4062
X5.475Y-3.6555
X5.5774Y-2.9016
X5.7511Y-4.4062
X5.775Y-3.6555
X5.8739Y-5.1562
X5.8774Y-2.9016
X6.0705Y-3.6594
X6.1089Y-2.8957
X6.1739Y-5.1562
X6.1875Y-4.4062
X6.3705Y-3.6594
X6.4089Y-2.8957
X6.4875Y-4.4062
X6.5301Y-5.9062
X6.6239Y-5.1562
X6.7388Y-2.9026
X6.7636Y-3.6562
X6.8301Y-5.9062
X6.9239Y-5.1562
X6.9989Y-4.4062
X7.0388Y-2.9026
X7.0636Y-3.6562
X7.2989Y-4.4062
X7.35Y-2.9062
X7.3739Y-5.1562
X7.4438Y-3.6562
X7.65Y-2.9062
X7.6739Y-5.1562
X7.7438Y-3.6562
X7.7489Y-4.4062
X8.0489Y-4.4062
X8.1Y-2.9062
X8.1239Y-5.1562
X8.1938Y-3.6562
X8.4Y-2.9062
X8.4239Y-5.1562
X8.4938Y-3.6562
X8.4989Y-4.4062
X8.7989Y-4.4062
X8.85Y-2.9062
X8.8739Y-5.1562
X9.0375Y-3.6562
X9.15Y-2.9062
X9.1739Y-5.1562
X9.225Y-4.4062
X9.3375Y-3.6562
X9.3426Y-5.9062
X9.525Y-4.4062
X9.6Y-2.9062
X9.6239Y-5.1562
X9.6426Y-5.9062
X9.7875Y-3.6562
X9.9Y-2.9062
X9.9239Y-5.1562
X10.0875Y-3.6562
X10.1864Y-4.4062
X10.3739Y-5.9062
X10.386Y-5.1562
X10.4199Y-2.9062
X10.4864Y-4.4062
X10.5375Y-3.6562
X10.6739Y-5.9062
X10.686Y-5.1562
X10.7199Y-2.9062
X10.8375Y-3.6562
T3
X1.9688Y-4.8408
X1.9688Y-5.0967
T0
M30
