%TF.GenerationSoftware,KiCad,Pcbnew,(7.0.0)*%
%TF.CreationDate,2024-09-06T15:26:17+09:00*%
%TF.ProjectId,rowlow52,726f776c-6f77-4353-922e-6b696361645f,rev?*%
%TF.SameCoordinates,Original*%
%TF.FileFunction,Paste,Top*%
%TF.FilePolarity,Positive*%
%FSLAX46Y46*%
G04 Gerber Fmt 4.6, Leading zero omitted, Abs format (unit mm)*
G04 Created by KiCad (PCBNEW (7.0.0)) date 2024-09-06 15:26:17*
%MOMM*%
%LPD*%
G01*
G04 APERTURE LIST*
%ADD10R,1.300000X0.950000*%
%ADD11R,0.950000X1.300000*%
G04 APERTURE END LIST*
D10*
%TO.C,D29*%
X140493799Y-111918699D03*
X144043799Y-111918699D03*
%TD*%
%TO.C,D3*%
X115324999Y-73699999D03*
X118874999Y-73699999D03*
%TD*%
%TO.C,D39*%
X132181299Y-130968699D03*
X135731299Y-130968699D03*
%TD*%
%TO.C,D33*%
X217906299Y-111918699D03*
X221456299Y-111918699D03*
%TD*%
%TO.C,D6*%
X157199999Y-73549999D03*
X160749999Y-73549999D03*
%TD*%
%TO.C,D20*%
X191106299Y-92868699D03*
X194656299Y-92868699D03*
%TD*%
%TO.C,D9*%
X207774999Y-73818699D03*
X211324999Y-73818699D03*
%TD*%
%TO.C,D52*%
X265531299Y-150018699D03*
X269081299Y-150018699D03*
%TD*%
%TO.C,D18*%
X156224999Y-92949999D03*
X159774999Y-92949999D03*
%TD*%
D11*
%TO.C,D48*%
X89324999Y-165599999D03*
X89324999Y-162049999D03*
%TD*%
D10*
%TO.C,D38*%
X113131299Y-130968699D03*
X116681299Y-130968699D03*
%TD*%
%TO.C,D24*%
X269687499Y-92868699D03*
X273237499Y-92868699D03*
%TD*%
%TO.C,D45*%
X246481299Y-130968699D03*
X250031299Y-130968699D03*
%TD*%
%TO.C,D40*%
X151231299Y-130968699D03*
X154781299Y-130968699D03*
%TD*%
%TO.C,D23*%
X250637499Y-92868699D03*
X254187499Y-92868699D03*
%TD*%
%TO.C,D43*%
X208381299Y-130968699D03*
X211931299Y-130968699D03*
%TD*%
%TO.C,D46*%
X265839499Y-130968699D03*
X269389499Y-130968699D03*
%TD*%
%TO.C,D28*%
X121097499Y-111918699D03*
X124647499Y-111918699D03*
%TD*%
%TO.C,D4*%
X129574999Y-73774999D03*
X133124999Y-73774999D03*
%TD*%
%TO.C,D14*%
X95824999Y-92749999D03*
X99374999Y-92749999D03*
%TD*%
%TO.C,D10*%
X226824999Y-73818699D03*
X230374999Y-73818699D03*
%TD*%
%TO.C,D41*%
X170281299Y-130968699D03*
X173831299Y-130968699D03*
%TD*%
D11*
%TO.C,D1*%
X85249999Y-90524999D03*
X85249999Y-86974999D03*
%TD*%
D10*
%TO.C,D51*%
X239337499Y-150018699D03*
X242887499Y-150018699D03*
%TD*%
%TO.C,D34*%
X236349999Y-111918699D03*
X239899999Y-111918699D03*
%TD*%
%TO.C,D15*%
X110849999Y-93049999D03*
X114399999Y-93049999D03*
%TD*%
%TO.C,D2*%
X100874999Y-73649999D03*
X104424999Y-73649999D03*
%TD*%
%TO.C,D27*%
X103606299Y-111918699D03*
X107156299Y-111918699D03*
%TD*%
%TO.C,D25*%
X60743799Y-111918699D03*
X64293799Y-111918699D03*
%TD*%
%TO.C,D12*%
X266699999Y-73818699D03*
X270249999Y-73818699D03*
%TD*%
%TO.C,D21*%
X210156299Y-92868699D03*
X213706299Y-92868699D03*
%TD*%
%TO.C,D16*%
X126474999Y-92849999D03*
X130024999Y-92849999D03*
%TD*%
%TO.C,D7*%
X173199999Y-73724999D03*
X176749999Y-73724999D03*
%TD*%
%TO.C,D22*%
X231587499Y-92868699D03*
X235137499Y-92868699D03*
%TD*%
%TO.C,D36*%
X63124999Y-130968699D03*
X66674999Y-130968699D03*
%TD*%
%TO.C,D50*%
X167899999Y-150018699D03*
X171449999Y-150018699D03*
%TD*%
%TO.C,D8*%
X188724999Y-73818699D03*
X192274999Y-73818699D03*
%TD*%
%TO.C,D35*%
X260768799Y-111918699D03*
X264318799Y-111918699D03*
%TD*%
%TO.C,D11*%
X245874999Y-73818699D03*
X249424999Y-73818699D03*
%TD*%
%TO.C,D32*%
X198856299Y-111918699D03*
X202406299Y-111918699D03*
%TD*%
%TO.C,D26*%
X83949999Y-111918699D03*
X87499999Y-111918699D03*
%TD*%
%TO.C,D17*%
X141099999Y-92849999D03*
X144649999Y-92849999D03*
%TD*%
%TO.C,D19*%
X173831299Y-92868699D03*
X177381299Y-92868699D03*
%TD*%
%TO.C,D31*%
X179806299Y-111918699D03*
X183356299Y-111918699D03*
%TD*%
D11*
%TO.C,D49*%
X108499999Y-165324999D03*
X108499999Y-161774999D03*
%TD*%
%TO.C,D47*%
X70124999Y-165524999D03*
X70124999Y-161974999D03*
%TD*%
D10*
%TO.C,D42*%
X189331299Y-130968699D03*
X192881299Y-130968699D03*
%TD*%
%TO.C,D44*%
X227431299Y-130968699D03*
X230981299Y-130968699D03*
%TD*%
%TO.C,D5*%
X143699999Y-73699999D03*
X147249999Y-73699999D03*
%TD*%
%TO.C,D37*%
X94081299Y-130968699D03*
X97631299Y-130968699D03*
%TD*%
%TO.C,D30*%
X159197499Y-111918699D03*
X162747499Y-111918699D03*
%TD*%
D11*
%TO.C,D13*%
X69999999Y-106649999D03*
X69999999Y-103099999D03*
%TD*%
M02*
