%TF.GenerationSoftware,KiCad,Pcbnew,(7.0.0)*%
%TF.CreationDate,2024-09-06T15:26:17+09:00*%
%TF.ProjectId,rowlow52,726f776c-6f77-4353-922e-6b696361645f,rev?*%
%TF.SameCoordinates,Original*%
%TF.FileFunction,Paste,Bot*%
%TF.FilePolarity,Positive*%
%FSLAX46Y46*%
G04 Gerber Fmt 4.6, Leading zero omitted, Abs format (unit mm)*
G04 Created by KiCad (PCBNEW (7.0.0)) date 2024-09-06 15:26:17*
%MOMM*%
%LPD*%
G01*
G04 APERTURE LIST*
%ADD10R,3.300000X3.000000*%
%ADD11R,1.300000X0.950000*%
%ADD12R,0.950000X1.300000*%
G04 APERTURE END LIST*
D10*
%TO.C,SW23*%
X244962499Y-99813699D03*
X258562499Y-97273699D03*
%TD*%
D11*
%TO.C,D29*%
X140493799Y-111918699D03*
X144043799Y-111918699D03*
%TD*%
%TO.C,D3*%
X115324999Y-73699999D03*
X118874999Y-73699999D03*
%TD*%
%TO.C,D39*%
X132181299Y-130968699D03*
X135731299Y-130968699D03*
%TD*%
D10*
%TO.C,SW3*%
X87799999Y-80763699D03*
X101399999Y-78223699D03*
%TD*%
D11*
%TO.C,D33*%
X217906299Y-111918699D03*
X221456299Y-111918699D03*
%TD*%
%TO.C,D6*%
X157199999Y-73549999D03*
X160749999Y-73549999D03*
%TD*%
D10*
%TO.C,SW8*%
X183049999Y-80763699D03*
X196649999Y-78223699D03*
%TD*%
%TO.C,SW39*%
X125899999Y-137913699D03*
X139499999Y-135373699D03*
%TD*%
D11*
%TO.C,D20*%
X191106299Y-92868699D03*
X194656299Y-92868699D03*
%TD*%
%TO.C,D9*%
X207774999Y-73818699D03*
X211324999Y-73818699D03*
%TD*%
%TO.C,D52*%
X265531299Y-150018699D03*
X269081299Y-150018699D03*
%TD*%
D10*
%TO.C,SW32*%
X192574999Y-118863699D03*
X206174999Y-116323699D03*
%TD*%
D11*
%TO.C,D18*%
X156224999Y-92949999D03*
X159774999Y-92949999D03*
%TD*%
D12*
%TO.C,D48*%
X89324999Y-165599999D03*
X89324999Y-162049999D03*
%TD*%
D10*
%TO.C,SW35*%
X256868799Y-118863699D03*
X270468799Y-116323699D03*
%TD*%
D11*
%TO.C,D38*%
X113131299Y-130968699D03*
X116681299Y-130968699D03*
%TD*%
D10*
%TO.C,SW6*%
X144949999Y-80763699D03*
X158549999Y-78223699D03*
%TD*%
D11*
%TO.C,D24*%
X269687499Y-92868699D03*
X273237499Y-92868699D03*
%TD*%
D10*
%TO.C,SW19*%
X168762499Y-99813699D03*
X182362499Y-97273699D03*
%TD*%
D11*
%TO.C,D45*%
X246481299Y-130968699D03*
X250031299Y-130968699D03*
%TD*%
D10*
%TO.C,SW43*%
X202099999Y-137913699D03*
X215699999Y-135373699D03*
%TD*%
D11*
%TO.C,D40*%
X151231299Y-130968699D03*
X154781299Y-130968699D03*
%TD*%
D10*
%TO.C,SW30*%
X154474999Y-118863699D03*
X168074999Y-116323699D03*
%TD*%
D11*
%TO.C,D23*%
X250637499Y-92868699D03*
X254187499Y-92868699D03*
%TD*%
D10*
%TO.C,SW13*%
X52081299Y-99813699D03*
X65681299Y-97273699D03*
%TD*%
%TO.C,SW28*%
X116374999Y-118863699D03*
X129974999Y-116323699D03*
%TD*%
D11*
%TO.C,D43*%
X208381299Y-130968699D03*
X211931299Y-130968699D03*
%TD*%
D10*
%TO.C,SW42*%
X183049999Y-137913699D03*
X196649999Y-135373699D03*
%TD*%
D11*
%TO.C,D46*%
X265839499Y-130968699D03*
X269389499Y-130968699D03*
%TD*%
D10*
%TO.C,SW16*%
X111612499Y-99813699D03*
X125212499Y-97273699D03*
%TD*%
%TO.C,SW15*%
X92562499Y-99813699D03*
X106162499Y-97273699D03*
%TD*%
%TO.C,SW41*%
X163999999Y-137913699D03*
X177599999Y-135373699D03*
%TD*%
%TO.C,SW44*%
X221149999Y-137913699D03*
X234749999Y-135373699D03*
%TD*%
%TO.C,SW47*%
X52081299Y-156963699D03*
X65681299Y-154423699D03*
%TD*%
%TO.C,SW4*%
X106849999Y-80763699D03*
X120449999Y-78223699D03*
%TD*%
%TO.C,SW40*%
X144949999Y-137913699D03*
X158549999Y-135373699D03*
%TD*%
%TO.C,SW50*%
X161668799Y-157003699D03*
X175168799Y-154463699D03*
%TD*%
%TO.C,SW22*%
X225912499Y-99813699D03*
X239512499Y-97273699D03*
%TD*%
%TO.C,SW27*%
X97324999Y-118863699D03*
X110924999Y-116323699D03*
%TD*%
D11*
%TO.C,D28*%
X121097499Y-111918699D03*
X124647499Y-111918699D03*
%TD*%
D10*
%TO.C,SW52*%
X259249999Y-156963699D03*
X272849999Y-154423699D03*
%TD*%
%TO.C,SW24*%
X264012499Y-99813699D03*
X277612499Y-97273699D03*
%TD*%
%TO.C,SW37*%
X87799999Y-137913699D03*
X101399999Y-135373699D03*
%TD*%
D11*
%TO.C,D4*%
X129574999Y-73774999D03*
X133124999Y-73774999D03*
%TD*%
D10*
%TO.C,SW20*%
X187812499Y-99813699D03*
X201412499Y-97273699D03*
%TD*%
D11*
%TO.C,D14*%
X95824999Y-92749999D03*
X99374999Y-92749999D03*
%TD*%
D10*
%TO.C,SW2*%
X68606299Y-80759999D03*
X82206299Y-78219999D03*
%TD*%
D11*
%TO.C,D10*%
X226824999Y-73818699D03*
X230374999Y-73818699D03*
%TD*%
%TO.C,D41*%
X170281299Y-130968699D03*
X173831299Y-130968699D03*
%TD*%
D12*
%TO.C,D1*%
X85249999Y-90524999D03*
X85249999Y-86974999D03*
%TD*%
D10*
%TO.C,SW1*%
X49699999Y-80763699D03*
X63299999Y-78223699D03*
%TD*%
%TO.C,SW12*%
X261631299Y-80763699D03*
X275231299Y-78223699D03*
%TD*%
D11*
%TO.C,D51*%
X239337499Y-150018699D03*
X242887499Y-150018699D03*
%TD*%
D10*
%TO.C,SW49*%
X92562499Y-156963699D03*
X106162499Y-154423699D03*
%TD*%
D11*
%TO.C,D34*%
X236349999Y-111918699D03*
X239899999Y-111918699D03*
%TD*%
%TO.C,D15*%
X110849999Y-93049999D03*
X114399999Y-93049999D03*
%TD*%
%TO.C,D2*%
X100874999Y-73649999D03*
X104424999Y-73649999D03*
%TD*%
%TO.C,D27*%
X103606299Y-111918699D03*
X107156299Y-111918699D03*
%TD*%
D10*
%TO.C,SW17*%
X130662499Y-99813699D03*
X144262499Y-97273699D03*
%TD*%
%TO.C,SW21*%
X206862499Y-99813699D03*
X220462499Y-97273699D03*
%TD*%
D11*
%TO.C,D25*%
X60743799Y-111918699D03*
X64293799Y-111918699D03*
%TD*%
D10*
%TO.C,SW5*%
X125899999Y-80763699D03*
X139499999Y-78223699D03*
%TD*%
D11*
%TO.C,D12*%
X266699999Y-73818699D03*
X270249999Y-73818699D03*
%TD*%
%TO.C,D21*%
X210156299Y-92868699D03*
X213706299Y-92868699D03*
%TD*%
D10*
%TO.C,SW29*%
X135424999Y-118863699D03*
X149024999Y-116323699D03*
%TD*%
%TO.C,SW26*%
X78274999Y-118863699D03*
X91874999Y-116323699D03*
%TD*%
D11*
%TO.C,D16*%
X126474999Y-92849999D03*
X130024999Y-92849999D03*
%TD*%
%TO.C,D7*%
X173199999Y-73724999D03*
X176749999Y-73724999D03*
%TD*%
D10*
%TO.C,SW25*%
X54462499Y-118863699D03*
X68062499Y-116323699D03*
%TD*%
%TO.C,SW36*%
X59274999Y-137953699D03*
X72774999Y-135413699D03*
%TD*%
D11*
%TO.C,D22*%
X231587499Y-92868699D03*
X235137499Y-92868699D03*
%TD*%
%TO.C,D36*%
X63124999Y-130968699D03*
X66674999Y-130968699D03*
%TD*%
%TO.C,D50*%
X167899999Y-150018699D03*
X171449999Y-150018699D03*
%TD*%
%TO.C,D8*%
X188724999Y-73818699D03*
X192274999Y-73818699D03*
%TD*%
D10*
%TO.C,SW51*%
X233056299Y-156963699D03*
X246656299Y-154423699D03*
%TD*%
D11*
%TO.C,D35*%
X260768799Y-111918699D03*
X264318799Y-111918699D03*
%TD*%
%TO.C,D11*%
X245874999Y-73818699D03*
X249424999Y-73818699D03*
%TD*%
D10*
%TO.C,SW7*%
X163999999Y-80763699D03*
X177599999Y-78223699D03*
%TD*%
D11*
%TO.C,D32*%
X198856299Y-111918699D03*
X202406299Y-111918699D03*
%TD*%
D10*
%TO.C,SW18*%
X149712499Y-99813699D03*
X163312499Y-97273699D03*
%TD*%
%TO.C,SW14*%
X73512499Y-99813699D03*
X87112499Y-97273699D03*
%TD*%
%TO.C,SW33*%
X211624999Y-118863699D03*
X225224999Y-116323699D03*
%TD*%
D11*
%TO.C,D26*%
X83949999Y-111918699D03*
X87499999Y-111918699D03*
%TD*%
D10*
%TO.C,SW48*%
X73512499Y-156963699D03*
X87112499Y-154423699D03*
%TD*%
D11*
%TO.C,D17*%
X141099999Y-92849999D03*
X144649999Y-92849999D03*
%TD*%
%TO.C,D19*%
X173831299Y-92868699D03*
X177381299Y-92868699D03*
%TD*%
%TO.C,D31*%
X179806299Y-111918699D03*
X183356299Y-111918699D03*
%TD*%
D10*
%TO.C,SW11*%
X240199999Y-80763699D03*
X253799999Y-78223699D03*
%TD*%
%TO.C,SW34*%
X230674999Y-118863699D03*
X244274999Y-116323699D03*
%TD*%
D12*
%TO.C,D49*%
X108499999Y-165324999D03*
X108499999Y-161774999D03*
%TD*%
D10*
%TO.C,SW45*%
X240199999Y-137913699D03*
X253799999Y-135373699D03*
%TD*%
D12*
%TO.C,D47*%
X70124999Y-165524999D03*
X70124999Y-161974999D03*
%TD*%
D10*
%TO.C,SW38*%
X106849999Y-137913699D03*
X120449999Y-135373699D03*
%TD*%
%TO.C,SW46*%
X261631299Y-137913699D03*
X275231299Y-135373699D03*
%TD*%
D11*
%TO.C,D42*%
X189331299Y-130968699D03*
X192881299Y-130968699D03*
%TD*%
D10*
%TO.C,SW9*%
X202099999Y-80763699D03*
X215699999Y-78223699D03*
%TD*%
D11*
%TO.C,D44*%
X227431299Y-130968699D03*
X230981299Y-130968699D03*
%TD*%
D10*
%TO.C,SW10*%
X221149999Y-80763699D03*
X234749999Y-78223699D03*
%TD*%
D11*
%TO.C,D5*%
X143699999Y-73699999D03*
X147249999Y-73699999D03*
%TD*%
D10*
%TO.C,SW31*%
X173524999Y-118863699D03*
X187124999Y-116323699D03*
%TD*%
D11*
%TO.C,D37*%
X94081299Y-130968699D03*
X97631299Y-130968699D03*
%TD*%
%TO.C,D30*%
X159197499Y-111918699D03*
X162747499Y-111918699D03*
%TD*%
D12*
%TO.C,D13*%
X69999999Y-106649999D03*
X69999999Y-103099999D03*
%TD*%
M02*
