%TF.GenerationSoftware,KiCad,Pcbnew,(7.0.0)*%
%TF.CreationDate,2024-09-06T15:26:17+09:00*%
%TF.ProjectId,rowlow52,726f776c-6f77-4353-922e-6b696361645f,rev?*%
%TF.SameCoordinates,Original*%
%TF.FileFunction,Copper,L2,Bot*%
%TF.FilePolarity,Positive*%
%FSLAX46Y46*%
G04 Gerber Fmt 4.6, Leading zero omitted, Abs format (unit mm)*
G04 Created by KiCad (PCBNEW (7.0.0)) date 2024-09-06 15:26:17*
%MOMM*%
%LPD*%
G01*
G04 APERTURE LIST*
%TA.AperFunction,SMDPad,CuDef*%
%ADD10R,3.300000X3.000000*%
%TD*%
%TA.AperFunction,ComponentPad*%
%ADD11R,1.397000X1.397000*%
%TD*%
%TA.AperFunction,SMDPad,CuDef*%
%ADD12R,1.300000X0.950000*%
%TD*%
%TA.AperFunction,ComponentPad*%
%ADD13C,1.397000*%
%TD*%
%TA.AperFunction,SMDPad,CuDef*%
%ADD14R,0.950000X1.300000*%
%TD*%
%TA.AperFunction,ComponentPad*%
%ADD15C,2.000000*%
%TD*%
%TA.AperFunction,ComponentPad*%
%ADD16C,1.524000*%
%TD*%
%TA.AperFunction,SMDPad,CuDef*%
%ADD17R,1.524000X1.524000*%
%TD*%
%TA.AperFunction,ViaPad*%
%ADD18C,0.800000*%
%TD*%
%TA.AperFunction,Conductor*%
%ADD19C,0.250000*%
%TD*%
%TA.AperFunction,Conductor*%
%ADD20C,0.500000*%
%TD*%
G04 APERTURE END LIST*
D10*
%TO.P,SW23,1,1*%
%TO.N,col10*%
X244962499Y-99813699D03*
%TO.P,SW23,2,2*%
%TO.N,Net-(D23-A)*%
X258562499Y-97273699D03*
%TD*%
D11*
%TO.P,D29,1,K*%
%TO.N,row2*%
X138458799Y-111918699D03*
D12*
X140493799Y-111918699D03*
%TO.P,D29,2,A*%
%TO.N,Net-(D29-A)*%
X144043799Y-111918699D03*
D13*
X146078800Y-111918700D03*
%TD*%
D11*
%TO.P,D3,1,K*%
%TO.N,row0*%
X113289999Y-73699999D03*
D12*
X115324999Y-73699999D03*
%TO.P,D3,2,A*%
%TO.N,Net-(D3-A)*%
X118874999Y-73699999D03*
D13*
X120910000Y-73700000D03*
%TD*%
D11*
%TO.P,D39,1,K*%
%TO.N,row3*%
X130146299Y-130968699D03*
D12*
X132181299Y-130968699D03*
%TO.P,D39,2,A*%
%TO.N,Net-(D39-A)*%
X135731299Y-130968699D03*
D13*
X137766300Y-130968700D03*
%TD*%
D10*
%TO.P,SW3,1,1*%
%TO.N,col2*%
X87799999Y-80763699D03*
%TO.P,SW3,2,2*%
%TO.N,Net-(D3-A)*%
X101399999Y-78223699D03*
%TD*%
D11*
%TO.P,D33,1,K*%
%TO.N,row2*%
X215871299Y-111918699D03*
D12*
X217906299Y-111918699D03*
%TO.P,D33,2,A*%
%TO.N,Net-(D33-A)*%
X221456299Y-111918699D03*
D13*
X223491300Y-111918700D03*
%TD*%
D11*
%TO.P,D6,1,K*%
%TO.N,row0*%
X155164999Y-73549999D03*
D12*
X157199999Y-73549999D03*
%TO.P,D6,2,A*%
%TO.N,Net-(D6-A)*%
X160749999Y-73549999D03*
D13*
X162785000Y-73550000D03*
%TD*%
D10*
%TO.P,SW8,1,1*%
%TO.N,col7*%
X183049999Y-80763699D03*
%TO.P,SW8,2,2*%
%TO.N,Net-(D8-A)*%
X196649999Y-78223699D03*
%TD*%
%TO.P,SW39,1,1*%
%TO.N,col3*%
X125899999Y-137913699D03*
%TO.P,SW39,2,2*%
%TO.N,Net-(D39-A)*%
X139499999Y-135373699D03*
%TD*%
D11*
%TO.P,D20,1,K*%
%TO.N,row1*%
X189071299Y-92868699D03*
D12*
X191106299Y-92868699D03*
%TO.P,D20,2,A*%
%TO.N,Net-(D20-A)*%
X194656299Y-92868699D03*
D13*
X196691300Y-92868700D03*
%TD*%
D11*
%TO.P,D9,1,K*%
%TO.N,row0*%
X205739999Y-73818699D03*
D12*
X207774999Y-73818699D03*
%TO.P,D9,2,A*%
%TO.N,Net-(D9-A)*%
X211324999Y-73818699D03*
D13*
X213360000Y-73818700D03*
%TD*%
D11*
%TO.P,D52,1,K*%
%TO.N,row4*%
X263496299Y-150018699D03*
D12*
X265531299Y-150018699D03*
%TO.P,D52,2,A*%
%TO.N,Net-(D52-A)*%
X269081299Y-150018699D03*
D13*
X271116300Y-150018700D03*
%TD*%
D10*
%TO.P,SW32,1,1*%
%TO.N,col7*%
X192574999Y-118863699D03*
%TO.P,SW32,2,2*%
%TO.N,Net-(D32-A)*%
X206174999Y-116323699D03*
%TD*%
D11*
%TO.P,D18,1,K*%
%TO.N,row1*%
X154189999Y-92949999D03*
D12*
X156224999Y-92949999D03*
%TO.P,D18,2,A*%
%TO.N,Net-(D18-A)*%
X159774999Y-92949999D03*
D13*
X161810000Y-92950000D03*
%TD*%
D11*
%TO.P,D48,1,K*%
%TO.N,row4*%
X89324999Y-167634999D03*
D14*
X89324999Y-165599999D03*
%TO.P,D48,2,A*%
%TO.N,Net-(D48-A)*%
X89324999Y-162049999D03*
D13*
X89325000Y-160015000D03*
%TD*%
D10*
%TO.P,SW35,1,1*%
%TO.N,col10*%
X256868799Y-118863699D03*
%TO.P,SW35,2,2*%
%TO.N,Net-(D35-A)*%
X270468799Y-116323699D03*
%TD*%
D11*
%TO.P,D38,1,K*%
%TO.N,row3*%
X111096299Y-130968699D03*
D12*
X113131299Y-130968699D03*
%TO.P,D38,2,A*%
%TO.N,Net-(D38-A)*%
X116681299Y-130968699D03*
D13*
X118716300Y-130968700D03*
%TD*%
D10*
%TO.P,SW6,1,1*%
%TO.N,col5*%
X144949999Y-80763699D03*
%TO.P,SW6,2,2*%
%TO.N,Net-(D6-A)*%
X158549999Y-78223699D03*
%TD*%
D11*
%TO.P,D24,1,K*%
%TO.N,row1*%
X267652499Y-92868699D03*
D12*
X269687499Y-92868699D03*
%TO.P,D24,2,A*%
%TO.N,Net-(D24-A)*%
X273237499Y-92868699D03*
D13*
X275272500Y-92868700D03*
%TD*%
D10*
%TO.P,SW19,1,1*%
%TO.N,col6*%
X168762499Y-99813699D03*
%TO.P,SW19,2,2*%
%TO.N,Net-(D19-A)*%
X182362499Y-97273699D03*
%TD*%
D11*
%TO.P,D45,1,K*%
%TO.N,row3*%
X244446299Y-130968699D03*
D12*
X246481299Y-130968699D03*
%TO.P,D45,2,A*%
%TO.N,Net-(D45-A)*%
X250031299Y-130968699D03*
D13*
X252066300Y-130968700D03*
%TD*%
D10*
%TO.P,SW43,1,1*%
%TO.N,col7*%
X202099999Y-137913699D03*
%TO.P,SW43,2,2*%
%TO.N,Net-(D43-A)*%
X215699999Y-135373699D03*
%TD*%
D11*
%TO.P,D40,1,K*%
%TO.N,row3*%
X149196299Y-130968699D03*
D12*
X151231299Y-130968699D03*
%TO.P,D40,2,A*%
%TO.N,Net-(D40-A)*%
X154781299Y-130968699D03*
D13*
X156816300Y-130968700D03*
%TD*%
D10*
%TO.P,SW30,1,1*%
%TO.N,col5*%
X154474999Y-118863699D03*
%TO.P,SW30,2,2*%
%TO.N,Net-(D30-A)*%
X168074999Y-116323699D03*
%TD*%
D11*
%TO.P,D23,1,K*%
%TO.N,row1*%
X248602499Y-92868699D03*
D12*
X250637499Y-92868699D03*
%TO.P,D23,2,A*%
%TO.N,Net-(D23-A)*%
X254187499Y-92868699D03*
D13*
X256222500Y-92868700D03*
%TD*%
D10*
%TO.P,SW13,1,1*%
%TO.N,col0*%
X52081299Y-99813699D03*
%TO.P,SW13,2,2*%
%TO.N,Net-(D13-A)*%
X65681299Y-97273699D03*
%TD*%
%TO.P,SW28,1,1*%
%TO.N,col3*%
X116374999Y-118863699D03*
%TO.P,SW28,2,2*%
%TO.N,Net-(D28-A)*%
X129974999Y-116323699D03*
%TD*%
D11*
%TO.P,D43,1,K*%
%TO.N,row3*%
X206346299Y-130968699D03*
D12*
X208381299Y-130968699D03*
%TO.P,D43,2,A*%
%TO.N,Net-(D43-A)*%
X211931299Y-130968699D03*
D13*
X213966300Y-130968700D03*
%TD*%
D10*
%TO.P,SW42,1,1*%
%TO.N,col6*%
X183049999Y-137913699D03*
%TO.P,SW42,2,2*%
%TO.N,Net-(D42-A)*%
X196649999Y-135373699D03*
%TD*%
D11*
%TO.P,D46,1,K*%
%TO.N,row3*%
X263804499Y-130968699D03*
D12*
X265839499Y-130968699D03*
%TO.P,D46,2,A*%
%TO.N,Net-(D46-A)*%
X269389499Y-130968699D03*
D13*
X271424500Y-130968700D03*
%TD*%
D10*
%TO.P,SW16,1,1*%
%TO.N,col3*%
X111612499Y-99813699D03*
%TO.P,SW16,2,2*%
%TO.N,Net-(D16-A)*%
X125212499Y-97273699D03*
%TD*%
%TO.P,SW15,1,1*%
%TO.N,col2*%
X92562499Y-99813699D03*
%TO.P,SW15,2,2*%
%TO.N,Net-(D15-A)*%
X106162499Y-97273699D03*
%TD*%
%TO.P,SW41,1,1*%
%TO.N,col5*%
X163999999Y-137913699D03*
%TO.P,SW41,2,2*%
%TO.N,Net-(D41-A)*%
X177599999Y-135373699D03*
%TD*%
%TO.P,SW44,1,1*%
%TO.N,col8*%
X221149999Y-137913699D03*
%TO.P,SW44,2,2*%
%TO.N,Net-(D44-A)*%
X234749999Y-135373699D03*
%TD*%
%TO.P,SW47,1,1*%
%TO.N,col0*%
X52081299Y-156963699D03*
%TO.P,SW47,2,2*%
%TO.N,Net-(D47-A)*%
X65681299Y-154423699D03*
%TD*%
%TO.P,SW4,1,1*%
%TO.N,col3*%
X106849999Y-80763699D03*
%TO.P,SW4,2,2*%
%TO.N,Net-(D4-A)*%
X120449999Y-78223699D03*
%TD*%
%TO.P,SW40,1,1*%
%TO.N,col4*%
X144949999Y-137913699D03*
%TO.P,SW40,2,2*%
%TO.N,Net-(D40-A)*%
X158549999Y-135373699D03*
%TD*%
%TO.P,SW50,1,1*%
%TO.N,col4*%
X161668799Y-157003699D03*
%TO.P,SW50,2,2*%
%TO.N,Net-(D50-A)*%
X175168799Y-154463699D03*
%TD*%
%TO.P,SW22,1,1*%
%TO.N,col9*%
X225912499Y-99813699D03*
%TO.P,SW22,2,2*%
%TO.N,Net-(D22-A)*%
X239512499Y-97273699D03*
%TD*%
%TO.P,SW27,1,1*%
%TO.N,col2*%
X97324999Y-118863699D03*
%TO.P,SW27,2,2*%
%TO.N,Net-(D27-A)*%
X110924999Y-116323699D03*
%TD*%
D11*
%TO.P,D28,1,K*%
%TO.N,row2*%
X119062499Y-111918699D03*
D12*
X121097499Y-111918699D03*
%TO.P,D28,2,A*%
%TO.N,Net-(D28-A)*%
X124647499Y-111918699D03*
D13*
X126682500Y-111918700D03*
%TD*%
D10*
%TO.P,SW52,1,1*%
%TO.N,col8*%
X259249999Y-156963699D03*
%TO.P,SW52,2,2*%
%TO.N,Net-(D52-A)*%
X272849999Y-154423699D03*
%TD*%
%TO.P,SW24,1,1*%
%TO.N,col11*%
X264012499Y-99813699D03*
%TO.P,SW24,2,2*%
%TO.N,Net-(D24-A)*%
X277612499Y-97273699D03*
%TD*%
%TO.P,SW37,1,1*%
%TO.N,col1*%
X87799999Y-137913699D03*
%TO.P,SW37,2,2*%
%TO.N,Net-(D37-A)*%
X101399999Y-135373699D03*
%TD*%
D11*
%TO.P,D4,1,K*%
%TO.N,row0*%
X127539999Y-73774999D03*
D12*
X129574999Y-73774999D03*
%TO.P,D4,2,A*%
%TO.N,Net-(D4-A)*%
X133124999Y-73774999D03*
D13*
X135160000Y-73775000D03*
%TD*%
D10*
%TO.P,SW20,1,1*%
%TO.N,col7*%
X187812499Y-99813699D03*
%TO.P,SW20,2,2*%
%TO.N,Net-(D20-A)*%
X201412499Y-97273699D03*
%TD*%
D11*
%TO.P,D14,1,K*%
%TO.N,row1*%
X93789999Y-92749999D03*
D12*
X95824999Y-92749999D03*
%TO.P,D14,2,A*%
%TO.N,Net-(D14-A)*%
X99374999Y-92749999D03*
D13*
X101410000Y-92750000D03*
%TD*%
D10*
%TO.P,SW2,1,1*%
%TO.N,col1*%
X68606299Y-80759999D03*
%TO.P,SW2,2,2*%
%TO.N,Net-(D2-A)*%
X82206299Y-78219999D03*
%TD*%
D11*
%TO.P,D10,1,K*%
%TO.N,row0*%
X224789999Y-73818699D03*
D12*
X226824999Y-73818699D03*
%TO.P,D10,2,A*%
%TO.N,Net-(D10-A)*%
X230374999Y-73818699D03*
D13*
X232410000Y-73818700D03*
%TD*%
D11*
%TO.P,D41,1,K*%
%TO.N,row3*%
X168246299Y-130968699D03*
D12*
X170281299Y-130968699D03*
%TO.P,D41,2,A*%
%TO.N,Net-(D41-A)*%
X173831299Y-130968699D03*
D13*
X175866300Y-130968700D03*
%TD*%
D11*
%TO.P,D1,1,K*%
%TO.N,row0*%
X85249999Y-92559999D03*
D14*
X85249999Y-90524999D03*
%TO.P,D1,2,A*%
%TO.N,Net-(D1-A)*%
X85249999Y-86974999D03*
D13*
X85250000Y-84940000D03*
%TD*%
D10*
%TO.P,SW1,1,1*%
%TO.N,col0*%
X49699999Y-80763699D03*
%TO.P,SW1,2,2*%
%TO.N,Net-(D1-A)*%
X63299999Y-78223699D03*
%TD*%
%TO.P,SW12,1,1*%
%TO.N,col11*%
X261631299Y-80763699D03*
%TO.P,SW12,2,2*%
%TO.N,Net-(D12-A)*%
X275231299Y-78223699D03*
%TD*%
D11*
%TO.P,D51,1,K*%
%TO.N,row4*%
X237302499Y-150018699D03*
D12*
X239337499Y-150018699D03*
%TO.P,D51,2,A*%
%TO.N,Net-(D51-A)*%
X242887499Y-150018699D03*
D13*
X244922500Y-150018700D03*
%TD*%
D10*
%TO.P,SW49,1,1*%
%TO.N,col2*%
X92562499Y-156963699D03*
%TO.P,SW49,2,2*%
%TO.N,Net-(D49-A)*%
X106162499Y-154423699D03*
%TD*%
D11*
%TO.P,D34,1,K*%
%TO.N,row2*%
X234314999Y-111918699D03*
D12*
X236349999Y-111918699D03*
%TO.P,D34,2,A*%
%TO.N,Net-(D34-A)*%
X239899999Y-111918699D03*
D13*
X241935000Y-111918700D03*
%TD*%
D11*
%TO.P,D15,1,K*%
%TO.N,row1*%
X108814999Y-93049999D03*
D12*
X110849999Y-93049999D03*
%TO.P,D15,2,A*%
%TO.N,Net-(D15-A)*%
X114399999Y-93049999D03*
D13*
X116435000Y-93050000D03*
%TD*%
D11*
%TO.P,D2,1,K*%
%TO.N,row0*%
X98839999Y-73649999D03*
D12*
X100874999Y-73649999D03*
%TO.P,D2,2,A*%
%TO.N,Net-(D2-A)*%
X104424999Y-73649999D03*
D13*
X106460000Y-73650000D03*
%TD*%
D11*
%TO.P,D27,1,K*%
%TO.N,row2*%
X101571299Y-111918699D03*
D12*
X103606299Y-111918699D03*
%TO.P,D27,2,A*%
%TO.N,Net-(D27-A)*%
X107156299Y-111918699D03*
D13*
X109191300Y-111918700D03*
%TD*%
D10*
%TO.P,SW17,1,1*%
%TO.N,col4*%
X130662499Y-99813699D03*
%TO.P,SW17,2,2*%
%TO.N,Net-(D17-A)*%
X144262499Y-97273699D03*
%TD*%
%TO.P,SW21,1,1*%
%TO.N,col8*%
X206862499Y-99813699D03*
%TO.P,SW21,2,2*%
%TO.N,Net-(D21-A)*%
X220462499Y-97273699D03*
%TD*%
D11*
%TO.P,D25,1,K*%
%TO.N,row2*%
X58708799Y-111918699D03*
D12*
X60743799Y-111918699D03*
%TO.P,D25,2,A*%
%TO.N,Net-(D25-A)*%
X64293799Y-111918699D03*
D13*
X66328800Y-111918700D03*
%TD*%
D10*
%TO.P,SW5,1,1*%
%TO.N,col4*%
X125899999Y-80763699D03*
%TO.P,SW5,2,2*%
%TO.N,Net-(D5-A)*%
X139499999Y-78223699D03*
%TD*%
D11*
%TO.P,D12,1,K*%
%TO.N,row0*%
X264664999Y-73818699D03*
D12*
X266699999Y-73818699D03*
%TO.P,D12,2,A*%
%TO.N,Net-(D12-A)*%
X270249999Y-73818699D03*
D13*
X272285000Y-73818700D03*
%TD*%
D11*
%TO.P,D21,1,K*%
%TO.N,row1*%
X208121299Y-92868699D03*
D12*
X210156299Y-92868699D03*
%TO.P,D21,2,A*%
%TO.N,Net-(D21-A)*%
X213706299Y-92868699D03*
D13*
X215741300Y-92868700D03*
%TD*%
D15*
%TO.P,SW53,1,1*%
%TO.N,reset*%
X50006300Y-122956200D03*
%TO.P,SW53,2,2*%
%TO.N,GND*%
X50006300Y-129456200D03*
%TD*%
D10*
%TO.P,SW29,1,1*%
%TO.N,col4*%
X135424999Y-118863699D03*
%TO.P,SW29,2,2*%
%TO.N,Net-(D29-A)*%
X149024999Y-116323699D03*
%TD*%
%TO.P,SW26,1,1*%
%TO.N,col1*%
X78274999Y-118863699D03*
%TO.P,SW26,2,2*%
%TO.N,Net-(D26-A)*%
X91874999Y-116323699D03*
%TD*%
D11*
%TO.P,D16,1,K*%
%TO.N,row1*%
X124439999Y-92849999D03*
D12*
X126474999Y-92849999D03*
%TO.P,D16,2,A*%
%TO.N,Net-(D16-A)*%
X130024999Y-92849999D03*
D13*
X132060000Y-92850000D03*
%TD*%
D11*
%TO.P,D7,1,K*%
%TO.N,row0*%
X171164999Y-73724999D03*
D12*
X173199999Y-73724999D03*
%TO.P,D7,2,A*%
%TO.N,Net-(D7-A)*%
X176749999Y-73724999D03*
D13*
X178785000Y-73725000D03*
%TD*%
D10*
%TO.P,SW25,1,1*%
%TO.N,col0*%
X54462499Y-118863699D03*
%TO.P,SW25,2,2*%
%TO.N,Net-(D25-A)*%
X68062499Y-116323699D03*
%TD*%
%TO.P,SW36,1,1*%
%TO.N,col0*%
X59274999Y-137953699D03*
%TO.P,SW36,2,2*%
%TO.N,Net-(D36-A)*%
X72774999Y-135413699D03*
%TD*%
D11*
%TO.P,D22,1,K*%
%TO.N,row1*%
X229552499Y-92868699D03*
D12*
X231587499Y-92868699D03*
%TO.P,D22,2,A*%
%TO.N,Net-(D22-A)*%
X235137499Y-92868699D03*
D13*
X237172500Y-92868700D03*
%TD*%
D11*
%TO.P,D36,1,K*%
%TO.N,row3*%
X61089999Y-130968699D03*
D12*
X63124999Y-130968699D03*
%TO.P,D36,2,A*%
%TO.N,Net-(D36-A)*%
X66674999Y-130968699D03*
D13*
X68710000Y-130968700D03*
%TD*%
D11*
%TO.P,D50,1,K*%
%TO.N,row4*%
X165864999Y-150018699D03*
D12*
X167899999Y-150018699D03*
%TO.P,D50,2,A*%
%TO.N,Net-(D50-A)*%
X171449999Y-150018699D03*
D13*
X173485000Y-150018700D03*
%TD*%
D11*
%TO.P,D8,1,K*%
%TO.N,row0*%
X186689999Y-73818699D03*
D12*
X188724999Y-73818699D03*
%TO.P,D8,2,A*%
%TO.N,Net-(D8-A)*%
X192274999Y-73818699D03*
D13*
X194310000Y-73818700D03*
%TD*%
D10*
%TO.P,SW51,1,1*%
%TO.N,col7*%
X233056299Y-156963699D03*
%TO.P,SW51,2,2*%
%TO.N,Net-(D51-A)*%
X246656299Y-154423699D03*
%TD*%
D11*
%TO.P,D35,1,K*%
%TO.N,row2*%
X258733799Y-111918699D03*
D12*
X260768799Y-111918699D03*
%TO.P,D35,2,A*%
%TO.N,Net-(D35-A)*%
X264318799Y-111918699D03*
D13*
X266353800Y-111918700D03*
%TD*%
D11*
%TO.P,D11,1,K*%
%TO.N,row0*%
X243839999Y-73818699D03*
D12*
X245874999Y-73818699D03*
%TO.P,D11,2,A*%
%TO.N,Net-(D11-A)*%
X249424999Y-73818699D03*
D13*
X251460000Y-73818700D03*
%TD*%
D10*
%TO.P,SW7,1,1*%
%TO.N,col6*%
X163999999Y-80763699D03*
%TO.P,SW7,2,2*%
%TO.N,Net-(D7-A)*%
X177599999Y-78223699D03*
%TD*%
D11*
%TO.P,D32,1,K*%
%TO.N,row2*%
X196821299Y-111918699D03*
D12*
X198856299Y-111918699D03*
%TO.P,D32,2,A*%
%TO.N,Net-(D32-A)*%
X202406299Y-111918699D03*
D13*
X204441300Y-111918700D03*
%TD*%
D10*
%TO.P,SW18,1,1*%
%TO.N,col5*%
X149712499Y-99813699D03*
%TO.P,SW18,2,2*%
%TO.N,Net-(D18-A)*%
X163312499Y-97273699D03*
%TD*%
%TO.P,SW14,1,1*%
%TO.N,col1*%
X73512499Y-99813699D03*
%TO.P,SW14,2,2*%
%TO.N,Net-(D14-A)*%
X87112499Y-97273699D03*
%TD*%
%TO.P,SW33,1,1*%
%TO.N,col8*%
X211624999Y-118863699D03*
%TO.P,SW33,2,2*%
%TO.N,Net-(D33-A)*%
X225224999Y-116323699D03*
%TD*%
D11*
%TO.P,D26,1,K*%
%TO.N,row2*%
X81914999Y-111918699D03*
D12*
X83949999Y-111918699D03*
%TO.P,D26,2,A*%
%TO.N,Net-(D26-A)*%
X87499999Y-111918699D03*
D13*
X89535000Y-111918700D03*
%TD*%
D10*
%TO.P,SW48,1,1*%
%TO.N,col1*%
X73512499Y-156963699D03*
%TO.P,SW48,2,2*%
%TO.N,Net-(D48-A)*%
X87112499Y-154423699D03*
%TD*%
D11*
%TO.P,D17,1,K*%
%TO.N,row1*%
X139064999Y-92849999D03*
D12*
X141099999Y-92849999D03*
%TO.P,D17,2,A*%
%TO.N,Net-(D17-A)*%
X144649999Y-92849999D03*
D13*
X146685000Y-92850000D03*
%TD*%
D11*
%TO.P,D19,1,K*%
%TO.N,row1*%
X171796299Y-92868699D03*
D12*
X173831299Y-92868699D03*
%TO.P,D19,2,A*%
%TO.N,Net-(D19-A)*%
X177381299Y-92868699D03*
D13*
X179416300Y-92868700D03*
%TD*%
D11*
%TO.P,D31,1,K*%
%TO.N,row2*%
X177771299Y-111918699D03*
D12*
X179806299Y-111918699D03*
%TO.P,D31,2,A*%
%TO.N,Net-(D31-A)*%
X183356299Y-111918699D03*
D13*
X185391300Y-111918700D03*
%TD*%
D10*
%TO.P,SW11,1,1*%
%TO.N,col10*%
X240199999Y-80763699D03*
%TO.P,SW11,2,2*%
%TO.N,Net-(D11-A)*%
X253799999Y-78223699D03*
%TD*%
%TO.P,SW34,1,1*%
%TO.N,col9*%
X230674999Y-118863699D03*
%TO.P,SW34,2,2*%
%TO.N,Net-(D34-A)*%
X244274999Y-116323699D03*
%TD*%
D11*
%TO.P,D49,1,K*%
%TO.N,row4*%
X108499999Y-167359999D03*
D14*
X108499999Y-165324999D03*
%TO.P,D49,2,A*%
%TO.N,Net-(D49-A)*%
X108499999Y-161774999D03*
D13*
X108500000Y-159740000D03*
%TD*%
D10*
%TO.P,SW45,1,1*%
%TO.N,col9*%
X240199999Y-137913699D03*
%TO.P,SW45,2,2*%
%TO.N,Net-(D45-A)*%
X253799999Y-135373699D03*
%TD*%
D11*
%TO.P,D47,1,K*%
%TO.N,row4*%
X70124999Y-167559999D03*
D14*
X70124999Y-165524999D03*
%TO.P,D47,2,A*%
%TO.N,Net-(D47-A)*%
X70124999Y-161974999D03*
D13*
X70125000Y-159940000D03*
%TD*%
D10*
%TO.P,SW38,1,1*%
%TO.N,col2*%
X106849999Y-137913699D03*
%TO.P,SW38,2,2*%
%TO.N,Net-(D38-A)*%
X120449999Y-135373699D03*
%TD*%
%TO.P,SW46,1,1*%
%TO.N,col10*%
X261631299Y-137913699D03*
%TO.P,SW46,2,2*%
%TO.N,Net-(D46-A)*%
X275231299Y-135373699D03*
%TD*%
D11*
%TO.P,D42,1,K*%
%TO.N,row3*%
X187296299Y-130968699D03*
D12*
X189331299Y-130968699D03*
%TO.P,D42,2,A*%
%TO.N,Net-(D42-A)*%
X192881299Y-130968699D03*
D13*
X194916300Y-130968700D03*
%TD*%
D10*
%TO.P,SW9,1,1*%
%TO.N,col8*%
X202099999Y-80763699D03*
%TO.P,SW9,2,2*%
%TO.N,Net-(D9-A)*%
X215699999Y-78223699D03*
%TD*%
D11*
%TO.P,D44,1,K*%
%TO.N,row3*%
X225396299Y-130968699D03*
D12*
X227431299Y-130968699D03*
%TO.P,D44,2,A*%
%TO.N,Net-(D44-A)*%
X230981299Y-130968699D03*
D13*
X233016300Y-130968700D03*
%TD*%
D10*
%TO.P,SW10,1,1*%
%TO.N,col9*%
X221149999Y-80763699D03*
%TO.P,SW10,2,2*%
%TO.N,Net-(D10-A)*%
X234749999Y-78223699D03*
%TD*%
D11*
%TO.P,D5,1,K*%
%TO.N,row0*%
X141664999Y-73699999D03*
D12*
X143699999Y-73699999D03*
%TO.P,D5,2,A*%
%TO.N,Net-(D5-A)*%
X147249999Y-73699999D03*
D13*
X149285000Y-73700000D03*
%TD*%
D10*
%TO.P,SW31,1,1*%
%TO.N,col6*%
X173524999Y-118863699D03*
%TO.P,SW31,2,2*%
%TO.N,Net-(D31-A)*%
X187124999Y-116323699D03*
%TD*%
D16*
%TO.P,U1,1,TX0/D3*%
%TO.N,led*%
X53065000Y-74682200D03*
%TO.P,U1,2,RX1/D2*%
%TO.N,row0*%
X55605000Y-74682200D03*
%TO.P,U1,3,GND*%
%TO.N,GND*%
X58145000Y-74682200D03*
%TO.P,U1,4,GND*%
X60685000Y-74682200D03*
%TO.P,U1,5,2/D1/SDA*%
%TO.N,row1*%
X63225000Y-74682200D03*
%TO.P,U1,6,3/D0/SCL*%
%TO.N,row2*%
X65765000Y-74682200D03*
%TO.P,U1,7,4/D4*%
%TO.N,row3*%
X68305000Y-74682200D03*
%TO.P,U1,8,5/C6*%
%TO.N,row4*%
X70845000Y-74682200D03*
%TO.P,U1,9,6/D7*%
%TO.N,col8*%
X73385000Y-74682200D03*
%TO.P,U1,10,7/E6*%
%TO.N,col9*%
X75925000Y-74682200D03*
%TO.P,U1,11,8/B4*%
%TO.N,col10*%
X78465000Y-74682200D03*
%TO.P,U1,12,9/B5*%
%TO.N,col11*%
X81005000Y-74682200D03*
%TO.P,U1,13,B6/10*%
%TO.N,col7*%
X81005000Y-89902200D03*
%TO.P,U1,14,B2/16*%
%TO.N,col6*%
X78465000Y-89902200D03*
%TO.P,U1,15,B3/14*%
%TO.N,col5*%
X75925000Y-89902200D03*
%TO.P,U1,16,B1/15*%
%TO.N,col4*%
X73385000Y-89902200D03*
%TO.P,U1,17,F7/A0*%
%TO.N,col3*%
X70845000Y-89902200D03*
%TO.P,U1,18,F6/A1*%
%TO.N,col2*%
X68305000Y-89902200D03*
%TO.P,U1,19,F5/A2*%
%TO.N,col1*%
X65765000Y-89902200D03*
%TO.P,U1,20,F4/A3*%
%TO.N,col0*%
X63225000Y-89902200D03*
%TO.P,U1,21,VCC*%
%TO.N,VCC*%
X60685000Y-89902200D03*
%TO.P,U1,22,RST*%
%TO.N,reset*%
X58145000Y-89902200D03*
%TO.P,U1,23,GND*%
%TO.N,GND*%
X55605000Y-89902200D03*
%TO.P,U1,24,RAW*%
%TO.N,unconnected-(U1-RAW-Pad24)*%
X53065000Y-89902200D03*
%TD*%
D11*
%TO.P,D37,1,K*%
%TO.N,row3*%
X92046299Y-130968699D03*
D12*
X94081299Y-130968699D03*
%TO.P,D37,2,A*%
%TO.N,Net-(D37-A)*%
X97631299Y-130968699D03*
D13*
X99666300Y-130968700D03*
%TD*%
D11*
%TO.P,D30,1,K*%
%TO.N,row2*%
X157162499Y-111918699D03*
D12*
X159197499Y-111918699D03*
%TO.P,D30,2,A*%
%TO.N,Net-(D30-A)*%
X162747499Y-111918699D03*
D13*
X164782500Y-111918700D03*
%TD*%
D11*
%TO.P,D13,1,K*%
%TO.N,row1*%
X69999999Y-108684999D03*
D14*
X69999999Y-106649999D03*
%TO.P,D13,2,A*%
%TO.N,Net-(D13-A)*%
X69999999Y-103099999D03*
D13*
X70000000Y-101065000D03*
%TD*%
D17*
%TO.P,J1L1,1,Pin_1*%
%TO.N,GND*%
X129224999Y-168214999D03*
%TO.P,J1L1,2,Pin_2*%
%TO.N,led*%
X129224999Y-165674999D03*
%TO.P,J1L1,3,Pin_3*%
%TO.N,VCC*%
X129224999Y-163134999D03*
%TD*%
D18*
%TO.N,Net-(D1-A)*%
X68301600Y-85676600D03*
%TO.N,row1*%
X88762700Y-87453200D03*
%TO.N,row2*%
X64881200Y-81017300D03*
%TO.N,GND*%
X57125900Y-77666200D03*
%TO.N,col0*%
X54690700Y-110298900D03*
X54836600Y-130563000D03*
X54836600Y-116480800D03*
X56875000Y-91462300D03*
%TO.N,col1*%
X78240900Y-123963100D03*
X78842300Y-122511100D03*
X86047100Y-144879100D03*
X67901300Y-92038500D03*
X84336400Y-146589800D03*
%TO.N,col2*%
X94472800Y-110075800D03*
X95057800Y-105601200D03*
X103524500Y-140128100D03*
X97064400Y-146588200D03*
%TO.N,col3*%
X96166900Y-91109500D03*
%TO.N,col4*%
X122594600Y-86426000D03*
%TO.N,col5*%
X143079300Y-88649500D03*
%TO.N,col6*%
X150404200Y-90684600D03*
%TO.N,col7*%
X183500000Y-89549800D03*
%TO.N,col8*%
X199182100Y-78646800D03*
%TO.N,col10*%
X235925200Y-75779500D03*
%TO.N,col11*%
X257097600Y-75329400D03*
%TD*%
D19*
%TO.N,Net-(D29-A)*%
X144043800Y-112695000D02*
X144043800Y-111918700D01*
X146055000Y-112695000D02*
X144043800Y-112695000D01*
X146078800Y-112718800D02*
X146055000Y-112695000D01*
%TO.N,row0*%
X226825000Y-73818700D02*
X224790000Y-73818700D01*
X88412600Y-86707200D02*
X96442800Y-86707200D01*
X245875000Y-73818700D02*
X243840000Y-73818700D01*
X98840000Y-73650000D02*
X100875000Y-73650000D01*
X157200000Y-73550000D02*
X155165000Y-73550000D01*
X188725000Y-73818700D02*
X186690000Y-73818700D01*
X96442800Y-86707200D02*
X98375000Y-84775000D01*
X129575000Y-73775000D02*
X127540000Y-73775000D01*
X101120600Y-74695700D02*
X111270700Y-74695700D01*
X111270700Y-74695700D02*
X112266400Y-73700000D01*
X98450000Y-73650000D02*
X98840000Y-73650000D01*
X207775000Y-73818700D02*
X205740000Y-73818700D01*
X94659900Y-77440100D02*
X98450000Y-73650000D01*
X98375000Y-84775000D02*
X98375000Y-82225000D01*
X94659900Y-78509900D02*
X94659900Y-77440100D01*
X85250000Y-90525000D02*
X85250000Y-91536400D01*
X173200000Y-73725000D02*
X171165000Y-73725000D01*
X85250000Y-92560000D02*
X85250000Y-91536400D01*
X113290000Y-73700000D02*
X112266400Y-73700000D01*
X98375000Y-82225000D02*
X94659900Y-78509900D01*
X86050200Y-90525000D02*
X86050200Y-89069600D01*
X85250000Y-90525000D02*
X86050200Y-90525000D01*
X100875000Y-73650000D02*
X100875000Y-74450100D01*
X115325000Y-73700000D02*
X113290000Y-73700000D01*
X143700000Y-73700000D02*
X141665000Y-73700000D01*
X100875000Y-74450100D02*
X101120600Y-74695700D01*
X266700000Y-73818700D02*
X264665000Y-73818700D01*
X86050200Y-89069600D02*
X88412600Y-86707200D01*
%TO.N,Net-(D1-A)*%
X62850000Y-78223700D02*
X62850000Y-80048800D01*
X85250000Y-84940000D02*
X85250000Y-86975000D01*
X68301600Y-85500400D02*
X68301600Y-85676600D01*
X62850000Y-80048800D02*
X68301600Y-85500400D01*
%TO.N,Net-(D2-A)*%
X95375200Y-72626400D02*
X89781600Y-78220000D01*
X104201500Y-72626400D02*
X95375200Y-72626400D01*
X81756300Y-78220000D02*
X84181400Y-78220000D01*
X104425000Y-72849900D02*
X104201500Y-72626400D01*
X89781600Y-78220000D02*
X84181400Y-78220000D01*
X106460000Y-73650000D02*
X104425000Y-73650000D01*
X104425000Y-73650000D02*
X104425000Y-72849900D01*
%TO.N,Net-(D3-A)*%
X118875000Y-73700000D02*
X117850000Y-73700000D01*
X118875000Y-73700000D02*
X120910000Y-73700000D01*
X113326300Y-78223700D02*
X100950000Y-78223700D01*
X117850000Y-73700000D02*
X113326300Y-78223700D01*
%TO.N,Net-(D4-A)*%
X133125000Y-74575100D02*
X129476400Y-78223700D01*
X129476400Y-78223700D02*
X120000000Y-78223700D01*
X133125000Y-73775000D02*
X135160000Y-73775000D01*
X133125000Y-73775000D02*
X133125000Y-74575100D01*
%TO.N,Net-(D5-A)*%
X139051300Y-78225000D02*
X139050000Y-78223700D01*
X147250000Y-73700000D02*
X149285000Y-73700000D01*
X147250000Y-73700000D02*
X147250000Y-74500100D01*
X143525100Y-78225000D02*
X139051300Y-78225000D01*
X147250000Y-74500100D02*
X143525100Y-78225000D01*
%TO.N,Net-(D6-A)*%
X160750000Y-73550000D02*
X162785000Y-73550000D01*
X160148500Y-74350100D02*
X158100000Y-76398600D01*
X160750000Y-73550000D02*
X160750000Y-74350100D01*
X158100000Y-78223700D02*
X158100000Y-76398600D01*
X160750000Y-74350100D02*
X160148500Y-74350100D01*
%TO.N,Net-(D7-A)*%
X177150000Y-78223700D02*
X177150000Y-76398600D01*
X177150000Y-73725000D02*
X178785000Y-73725000D01*
X177150000Y-73725000D02*
X177150000Y-76398600D01*
X176750000Y-73725000D02*
X177150000Y-73725000D01*
%TO.N,Net-(D8-A)*%
X194310000Y-74618800D02*
X196089800Y-76398600D01*
X194310000Y-73818700D02*
X194310000Y-74618800D01*
X192275000Y-73818700D02*
X192275000Y-74618800D01*
X196200000Y-78223700D02*
X196200000Y-76398600D01*
X194310000Y-74618800D02*
X192275000Y-74618800D01*
X196089800Y-76398600D02*
X196200000Y-76398600D01*
%TO.N,Net-(D9-A)*%
X213360000Y-74508600D02*
X215250000Y-76398600D01*
X215250000Y-78223700D02*
X215250000Y-76398600D01*
X211325000Y-73818700D02*
X212300100Y-73818700D01*
X213360000Y-73818700D02*
X213360000Y-74508600D01*
X213360000Y-73818700D02*
X212300100Y-73818700D01*
%TO.N,Net-(D10-A)*%
X234189800Y-76398600D02*
X234300000Y-76398600D01*
X232410000Y-73818700D02*
X232410000Y-74618800D01*
X230375000Y-73818700D02*
X230375000Y-74618800D01*
X232410000Y-74618800D02*
X230375000Y-74618800D01*
X234300000Y-78223700D02*
X234300000Y-76398600D01*
X232410000Y-74618800D02*
X234189800Y-76398600D01*
%TO.N,Net-(D11-A)*%
X251460000Y-74618800D02*
X249425000Y-74618800D01*
X251460000Y-74618800D02*
X253239800Y-76398600D01*
X249425000Y-73818700D02*
X249425000Y-74618800D01*
X253350000Y-78223700D02*
X253350000Y-76398600D01*
X251460000Y-73818700D02*
X251460000Y-74618800D01*
X253239800Y-76398600D02*
X253350000Y-76398600D01*
%TO.N,Net-(D12-A)*%
X272285000Y-74618800D02*
X270250000Y-74618800D01*
X274781300Y-78223700D02*
X274781300Y-76398600D01*
X274064800Y-76398600D02*
X272285000Y-74618800D01*
X272285000Y-74618800D02*
X272285000Y-73818700D01*
X274781300Y-76398600D02*
X274064800Y-76398600D01*
X270250000Y-73818700D02*
X270250000Y-74618800D01*
%TO.N,row1*%
X110850000Y-92249900D02*
X111094000Y-92005900D01*
X93790000Y-92238200D02*
X93790000Y-91726400D01*
X95825000Y-92750000D02*
X94849900Y-92750000D01*
X173831300Y-92868700D02*
X171796300Y-92868700D01*
X250637500Y-92868700D02*
X248602500Y-92868700D01*
X93790000Y-92750000D02*
X93790000Y-92238200D01*
X94338100Y-92238200D02*
X94849900Y-92750000D01*
X210156300Y-92868700D02*
X208121300Y-92868700D01*
X269687500Y-92868700D02*
X267652500Y-92868700D01*
X110850000Y-93050000D02*
X110850000Y-92249900D01*
X124440000Y-92850000D02*
X123416400Y-92850000D01*
X111094000Y-92005900D02*
X122572300Y-92005900D01*
X93790000Y-92238200D02*
X94338100Y-92238200D01*
X156225000Y-92950000D02*
X154190000Y-92950000D01*
X126475000Y-92850000D02*
X124440000Y-92850000D01*
X70000000Y-106650000D02*
X70000000Y-108685000D01*
X88762700Y-87453200D02*
X93035900Y-91726400D01*
X141100000Y-92850000D02*
X139065000Y-92850000D01*
X122572300Y-92005900D02*
X123416400Y-92850000D01*
X191106300Y-92868700D02*
X189071300Y-92868700D01*
X93035900Y-91726400D02*
X93790000Y-91726400D01*
X231587500Y-92868700D02*
X229552500Y-92868700D01*
X108815000Y-93050000D02*
X110850000Y-93050000D01*
%TO.N,Net-(D13-A)*%
X70000000Y-101065000D02*
X70000000Y-103100000D01*
X65231300Y-97273700D02*
X66208700Y-97273700D01*
X66208700Y-97273700D02*
X70000000Y-101065000D01*
%TO.N,Net-(D14-A)*%
X101410000Y-92750000D02*
X99375000Y-92750000D01*
X99375000Y-93550100D02*
X95651400Y-97273700D01*
X95651400Y-97273700D02*
X86662500Y-97273700D01*
X99375000Y-92750000D02*
X99375000Y-93550100D01*
%TO.N,Net-(D15-A)*%
X114400000Y-93050000D02*
X116435000Y-93050000D01*
X114400000Y-93050000D02*
X114400000Y-93850100D01*
X110976400Y-97273700D02*
X105712500Y-97273700D01*
X114400000Y-93850100D02*
X110976400Y-97273700D01*
%TO.N,Net-(D16-A)*%
X132060000Y-92850000D02*
X130143400Y-92850000D01*
X127187600Y-95805800D02*
X127187600Y-97273700D01*
X130143400Y-92850000D02*
X127187600Y-95805800D01*
X124762500Y-97273700D02*
X127187600Y-97273700D01*
X130143400Y-92850000D02*
X130025000Y-92850000D01*
%TO.N,Net-(D17-A)*%
X144650000Y-94611100D02*
X143812500Y-95448600D01*
X144650000Y-92850000D02*
X146685000Y-92850000D01*
X144650000Y-92850000D02*
X144650000Y-94611100D01*
X143812500Y-97273700D02*
X143812500Y-95448600D01*
%TO.N,Net-(D18-A)*%
X161810000Y-92950000D02*
X161810000Y-94396100D01*
X159775000Y-92950000D02*
X160750100Y-92950000D01*
X162862500Y-97273700D02*
X162862500Y-95448600D01*
X161810000Y-92950000D02*
X160750100Y-92950000D01*
X161810000Y-94396100D02*
X162862500Y-95448600D01*
%TO.N,Net-(D19-A)*%
X181912500Y-97273700D02*
X181912500Y-95448600D01*
X177381300Y-92868700D02*
X177381300Y-93668800D01*
X179416300Y-93668800D02*
X181196100Y-95448600D01*
X181196100Y-95448600D02*
X181912500Y-95448600D01*
X179416300Y-92868700D02*
X179416300Y-93668800D01*
X179416300Y-93668800D02*
X177381300Y-93668800D01*
%TO.N,Net-(D20-A)*%
X196691300Y-92868700D02*
X199271200Y-95448600D01*
X200962500Y-97273700D02*
X200962500Y-95448600D01*
X194656300Y-92868700D02*
X196691300Y-92868700D01*
X199271200Y-95448600D02*
X200962500Y-95448600D01*
%TO.N,Net-(D21-A)*%
X213706300Y-92868700D02*
X215741300Y-92868700D01*
X218321200Y-95448600D02*
X220012500Y-95448600D01*
X220012500Y-97273700D02*
X220012500Y-95448600D01*
X215741300Y-92868700D02*
X218321200Y-95448600D01*
%TO.N,Net-(D22-A)*%
X237172500Y-93668800D02*
X238952300Y-95448600D01*
X237172500Y-93668800D02*
X235137500Y-93668800D01*
X235137500Y-92868700D02*
X235137500Y-93668800D01*
X239062500Y-97273700D02*
X239062500Y-95448600D01*
X238952300Y-95448600D02*
X239062500Y-95448600D01*
X237172500Y-92868700D02*
X237172500Y-93668800D01*
%TO.N,Net-(D23-A)*%
X256222500Y-93668800D02*
X254187500Y-93668800D01*
X256222500Y-93668800D02*
X258002300Y-95448600D01*
X254187500Y-92868700D02*
X254187500Y-93668800D01*
X258002300Y-95448600D02*
X258112500Y-95448600D01*
X256222500Y-92868700D02*
X256222500Y-93668800D01*
X258112500Y-97273700D02*
X258112500Y-95448600D01*
%TO.N,Net-(D24-A)*%
X275272500Y-93668800D02*
X277052300Y-95448600D01*
X275272500Y-93668800D02*
X273237500Y-93668800D01*
X273237500Y-92868700D02*
X273237500Y-93668800D01*
X277162500Y-97273700D02*
X277162500Y-95448600D01*
X277052300Y-95448600D02*
X277162500Y-95448600D01*
X275272500Y-92868700D02*
X275272500Y-93668800D01*
%TO.N,row2*%
X65765000Y-74682200D02*
X65765000Y-80133500D01*
X81915000Y-111918700D02*
X81915000Y-111747600D01*
X198856300Y-111918700D02*
X196821300Y-111918700D01*
X236350000Y-111918700D02*
X234315000Y-111918700D01*
X260768800Y-111918700D02*
X258733800Y-111918700D01*
X83950000Y-111918700D02*
X82974900Y-111918700D01*
X103606300Y-111918700D02*
X101571300Y-111918700D01*
X65765000Y-80133500D02*
X64881200Y-81017300D01*
X82974900Y-111918700D02*
X82803800Y-111747600D01*
X217906300Y-111918700D02*
X215871300Y-111918700D01*
X60743800Y-111918700D02*
X58708800Y-111918700D01*
X140493800Y-111918700D02*
X138458800Y-111918700D01*
X179806300Y-111918700D02*
X177771300Y-111918700D01*
X121097500Y-111918700D02*
X119062500Y-111918700D01*
X82803800Y-111747600D02*
X81915000Y-111747600D01*
X159197500Y-111918700D02*
X157162500Y-111918700D01*
%TO.N,Net-(D25-A)*%
X67612500Y-114498600D02*
X66328800Y-113214900D01*
X66328800Y-111918700D02*
X65268900Y-111918700D01*
X66328800Y-113214900D02*
X66328800Y-111918700D01*
X64293800Y-111918700D02*
X65268900Y-111918700D01*
X67612500Y-116323700D02*
X67612500Y-114498600D01*
%TO.N,Net-(D26-A)*%
X87500000Y-111918700D02*
X87500000Y-112718800D01*
X89535000Y-112718800D02*
X87500000Y-112718800D01*
X91314800Y-114498600D02*
X91425000Y-114498600D01*
X91425000Y-116323700D02*
X91425000Y-114498600D01*
X89535000Y-111918700D02*
X89535000Y-112718800D01*
X89535000Y-112718800D02*
X91314800Y-114498600D01*
%TO.N,Net-(D27-A)*%
X107156300Y-111918700D02*
X108131400Y-111918700D01*
X109191300Y-111918700D02*
X109191300Y-113214900D01*
X110475000Y-116323700D02*
X110475000Y-114498600D01*
X109191300Y-111918700D02*
X108131400Y-111918700D01*
X109191300Y-113214900D02*
X110475000Y-114498600D01*
%TO.N,Net-(D28-A)*%
X129262400Y-114498600D02*
X129525000Y-114498600D01*
X124647500Y-111918700D02*
X126682500Y-111918700D01*
X129525000Y-116323700D02*
X129525000Y-114498600D01*
X126682500Y-111918700D02*
X129262400Y-114498600D01*
%TO.N,Net-(D29-A)*%
X146078800Y-112718800D02*
X147858600Y-114498600D01*
X147858600Y-114498600D02*
X148575000Y-114498600D01*
X148575000Y-116323700D02*
X148575000Y-114498600D01*
X146078800Y-111918700D02*
X146078800Y-112718800D01*
%TO.N,Net-(D30-A)*%
X167625000Y-116323700D02*
X167625000Y-114498600D01*
X162747500Y-111918700D02*
X164782500Y-111918700D01*
X164782500Y-111918700D02*
X167362400Y-114498600D01*
X167362400Y-114498600D02*
X167625000Y-114498600D01*
%TO.N,Net-(D31-A)*%
X185391300Y-111918700D02*
X184331400Y-111918700D01*
X185391300Y-113214900D02*
X186675000Y-114498600D01*
X185391300Y-111918700D02*
X185391300Y-113214900D01*
X186675000Y-116323700D02*
X186675000Y-114498600D01*
X183356300Y-111918700D02*
X184331400Y-111918700D01*
%TO.N,Net-(D32-A)*%
X202406300Y-111918700D02*
X203381400Y-111918700D01*
X204441300Y-111918700D02*
X203381400Y-111918700D01*
X204441300Y-113214900D02*
X205725000Y-114498600D01*
X204441300Y-111918700D02*
X204441300Y-113214900D01*
X205725000Y-116323700D02*
X205725000Y-114498600D01*
%TO.N,Net-(D33-A)*%
X223491300Y-111918700D02*
X223491300Y-113214900D01*
X223491300Y-113214900D02*
X224775000Y-114498600D01*
X224775000Y-116323700D02*
X224775000Y-114498600D01*
X223491300Y-111918700D02*
X222431400Y-111918700D01*
X221456300Y-111918700D02*
X222431400Y-111918700D01*
%TO.N,Net-(D34-A)*%
X239900000Y-111918700D02*
X239900000Y-112718800D01*
X241935000Y-111918700D02*
X241935000Y-112718800D01*
X241935000Y-112718800D02*
X239900000Y-112718800D01*
X243714800Y-114498600D02*
X243825000Y-114498600D01*
X243825000Y-116323700D02*
X243825000Y-114498600D01*
X241935000Y-112718800D02*
X243714800Y-114498600D01*
%TO.N,Net-(D35-A)*%
X264318800Y-111918700D02*
X266353800Y-111918700D01*
X270018800Y-116323700D02*
X270018800Y-114498600D01*
X270018800Y-114498600D02*
X268933700Y-114498600D01*
X268933700Y-114498600D02*
X266353800Y-111918700D01*
%TO.N,row3*%
X189331300Y-130968700D02*
X187296300Y-130968700D01*
X50825000Y-113975000D02*
X48075000Y-116725000D01*
X151231300Y-130968700D02*
X149196300Y-130968700D01*
X113131300Y-130968700D02*
X111096300Y-130968700D01*
X48075000Y-116725000D02*
X48075000Y-124525000D01*
X47425000Y-78754400D02*
X47425000Y-99775000D01*
X55595400Y-126497700D02*
X60066400Y-130968700D01*
X246481300Y-130968700D02*
X245469900Y-130968700D01*
X63125000Y-130968700D02*
X61090000Y-130968700D01*
X50047700Y-126497700D02*
X55595400Y-126497700D01*
X68305000Y-74682200D02*
X67179500Y-73556700D01*
X52622700Y-73556700D02*
X47425000Y-78754400D01*
X227431300Y-130968700D02*
X225396300Y-130968700D01*
X208381300Y-130968700D02*
X206346300Y-130968700D01*
X47425000Y-99775000D02*
X50825000Y-103175000D01*
X170281300Y-130968700D02*
X168246300Y-130968700D01*
X265839500Y-130968700D02*
X263804500Y-130968700D01*
X244446300Y-130968700D02*
X245469900Y-130968700D01*
X92046300Y-130968700D02*
X94081300Y-130968700D01*
X48075000Y-124525000D02*
X50047700Y-126497700D01*
X50825000Y-103175000D02*
X50825000Y-113975000D01*
X67179500Y-73556700D02*
X52622700Y-73556700D01*
X132181300Y-130968700D02*
X130146300Y-130968700D01*
X60066400Y-130968700D02*
X61090000Y-130968700D01*
%TO.N,Net-(D36-A)*%
X68710000Y-130968700D02*
X67650100Y-130968700D01*
X72275000Y-133588600D02*
X71329900Y-133588600D01*
X72275000Y-135413700D02*
X72275000Y-133588600D01*
X66675000Y-130968700D02*
X67650100Y-130968700D01*
X71329900Y-133588600D02*
X68710000Y-130968700D01*
%TO.N,Net-(D37-A)*%
X99666300Y-132264900D02*
X100950000Y-133548600D01*
X97631300Y-130968700D02*
X98606400Y-130968700D01*
X100950000Y-135373700D02*
X100950000Y-133548600D01*
X99666300Y-130968700D02*
X99666300Y-132264900D01*
X99666300Y-130968700D02*
X98606400Y-130968700D01*
%TO.N,Net-(D38-A)*%
X118716300Y-130968700D02*
X118716300Y-132264900D01*
X118716300Y-132264900D02*
X120000000Y-133548600D01*
X116681300Y-130968700D02*
X117656400Y-130968700D01*
X120000000Y-135373700D02*
X120000000Y-133548600D01*
X118716300Y-130968700D02*
X117656400Y-130968700D01*
%TO.N,Net-(D39-A)*%
X139050000Y-135373700D02*
X139050000Y-133548600D01*
X137766300Y-130968700D02*
X137766300Y-132264900D01*
X135731300Y-130968700D02*
X136706400Y-130968700D01*
X137766300Y-132264900D02*
X139050000Y-133548600D01*
X137766300Y-130968700D02*
X136706400Y-130968700D01*
%TO.N,Net-(D40-A)*%
X158100000Y-133548600D02*
X156816300Y-132264900D01*
X156816300Y-132264900D02*
X156816300Y-130968700D01*
X158100000Y-135373700D02*
X158100000Y-133548600D01*
X154781300Y-130968700D02*
X155756400Y-130968700D01*
X156816300Y-130968700D02*
X155756400Y-130968700D01*
%TO.N,Net-(D41-A)*%
X175866300Y-130968700D02*
X174806400Y-130968700D01*
X173831300Y-130968700D02*
X174806400Y-130968700D01*
X177150000Y-135373700D02*
X177150000Y-133548600D01*
X175866300Y-130968700D02*
X175866300Y-132264900D01*
X175866300Y-132264900D02*
X177150000Y-133548600D01*
%TO.N,Net-(D42-A)*%
X192881300Y-130968700D02*
X193856400Y-130968700D01*
X194916300Y-130968700D02*
X193856400Y-130968700D01*
X196200000Y-135373700D02*
X196200000Y-133548600D01*
X194916300Y-132264900D02*
X196200000Y-133548600D01*
X194916300Y-130968700D02*
X194916300Y-132264900D01*
%TO.N,Net-(D43-A)*%
X213966300Y-130968700D02*
X212906400Y-130968700D01*
X215250000Y-135373700D02*
X215250000Y-133548600D01*
X213966300Y-130968700D02*
X213966300Y-132264900D01*
X211931300Y-130968700D02*
X212906400Y-130968700D01*
X213966300Y-132264900D02*
X215250000Y-133548600D01*
%TO.N,Net-(D44-A)*%
X234300000Y-135373700D02*
X234300000Y-133548600D01*
X230981300Y-130968700D02*
X231956400Y-130968700D01*
X233016300Y-132264900D02*
X234300000Y-133548600D01*
X233016300Y-130968700D02*
X233016300Y-132264900D01*
X233016300Y-130968700D02*
X231956400Y-130968700D01*
%TO.N,Net-(D45-A)*%
X250031300Y-130968700D02*
X251006400Y-130968700D01*
X252066300Y-130968700D02*
X251006400Y-130968700D01*
X253350000Y-135373700D02*
X253350000Y-133548600D01*
X252066300Y-130968700D02*
X252066300Y-132264900D01*
X252066300Y-132264900D02*
X253350000Y-133548600D01*
%TO.N,Net-(D46-A)*%
X271424500Y-130968700D02*
X270364600Y-130968700D01*
X274781300Y-135373700D02*
X271424500Y-132016900D01*
X269389500Y-130968700D02*
X270364600Y-130968700D01*
X271424500Y-132016900D02*
X271424500Y-130968700D01*
%TO.N,row4*%
X51575000Y-72725000D02*
X46875000Y-77425000D01*
X70125000Y-165525000D02*
X70125000Y-167560000D01*
X47025000Y-157875000D02*
X56710000Y-167560000D01*
X47025000Y-116475000D02*
X47025000Y-157875000D01*
X49975000Y-113525000D02*
X47025000Y-116475000D01*
X46875000Y-77425000D02*
X46875000Y-100861396D01*
X89325000Y-165600000D02*
X89325000Y-167635000D01*
X70845000Y-74682200D02*
X68887800Y-72725000D01*
X49975000Y-103961396D02*
X49975000Y-113525000D01*
X239337500Y-150018700D02*
X237302500Y-150018700D01*
X68887800Y-72725000D02*
X51575000Y-72725000D01*
X46875000Y-100861396D02*
X49975000Y-103961396D01*
X167900000Y-150018700D02*
X165865000Y-150018700D01*
X265531300Y-150018700D02*
X263496300Y-150018700D01*
X56710000Y-167560000D02*
X70125000Y-167560000D01*
X108500000Y-165325000D02*
X108500000Y-167360000D01*
%TO.N,Net-(D47-A)*%
X68740000Y-159940000D02*
X70125000Y-159940000D01*
X65231300Y-154423700D02*
X65231300Y-156431300D01*
X65231300Y-156431300D02*
X68740000Y-159940000D01*
X70125000Y-159940000D02*
X70125000Y-161975000D01*
%TO.N,Net-(D48-A)*%
X89325000Y-160015000D02*
X89315000Y-160015000D01*
X86662500Y-157362500D02*
X86662500Y-154423700D01*
X89315000Y-160015000D02*
X86662500Y-157362500D01*
X89325000Y-162050000D02*
X89325000Y-160015000D01*
%TO.N,Net-(D49-A)*%
X108500000Y-159700000D02*
X105712500Y-156912500D01*
X108500000Y-159740000D02*
X108500000Y-159700000D01*
X105712500Y-156912500D02*
X105712500Y-154423700D01*
X108500000Y-161775000D02*
X108500000Y-159740000D01*
%TO.N,Net-(D50-A)*%
X173485000Y-151454800D02*
X173485000Y-150018700D01*
X174668800Y-154463700D02*
X174668800Y-152638600D01*
X174668800Y-152638600D02*
X173485000Y-151454800D01*
X173485000Y-150018700D02*
X172425100Y-150018700D01*
X171450000Y-150018700D02*
X172425100Y-150018700D01*
%TO.N,Net-(D51-A)*%
X246206300Y-152598600D02*
X244922500Y-151314800D01*
X244922500Y-151314800D02*
X244922500Y-150018700D01*
X244922500Y-150018700D02*
X243862600Y-150018700D01*
X242887500Y-150018700D02*
X243862600Y-150018700D01*
X246206300Y-154423700D02*
X246206300Y-152598600D01*
%TO.N,Net-(D52-A)*%
X272400000Y-154423700D02*
X272400000Y-152598600D01*
X271116300Y-150018700D02*
X270056400Y-150018700D01*
X272400000Y-152598600D02*
X271116300Y-151314900D01*
X271116300Y-151314900D02*
X271116300Y-150018700D01*
X269081300Y-150018700D02*
X270056400Y-150018700D01*
D20*
%TO.N,VCC*%
X129225000Y-163135000D02*
X129225000Y-156273900D01*
X129225000Y-156273900D02*
X117325000Y-144373900D01*
X112597127Y-134497127D02*
X111587127Y-134497127D01*
X83925000Y-105925000D02*
X83925000Y-101638172D01*
X87225800Y-109225800D02*
X83925000Y-105925000D01*
X79035900Y-96749072D02*
X79035900Y-95035900D01*
X107645000Y-120105000D02*
X96765800Y-109225800D01*
X96765800Y-109225800D02*
X87225800Y-109225800D01*
X83925000Y-101638172D02*
X79035900Y-96749072D01*
X117325000Y-139225000D02*
X112597127Y-134497127D01*
X79035900Y-95035900D02*
X75775000Y-91775000D01*
X68253382Y-91188500D02*
X61971300Y-91188500D01*
X61971300Y-91188500D02*
X60685000Y-89902200D01*
X111587127Y-134497127D02*
X107645000Y-130555000D01*
X117325000Y-144373900D02*
X117325000Y-139225000D01*
X107645000Y-130555000D02*
X107645000Y-120105000D01*
X68839882Y-91775000D02*
X68253382Y-91188500D01*
X75775000Y-91775000D02*
X68839882Y-91775000D01*
D19*
%TO.N,led*%
X100096000Y-137725000D02*
X95840057Y-137725000D01*
X59425000Y-88325000D02*
X60625000Y-87125000D01*
X72604900Y-117299100D02*
X72604900Y-114295100D01*
X63025000Y-104715200D02*
X63025000Y-101325000D01*
X55691200Y-78391200D02*
X53065000Y-75765000D01*
X82803257Y-124688200D02*
X79994000Y-124688200D01*
X95840057Y-137725000D02*
X82803257Y-124688200D01*
X72604900Y-114295100D02*
X63025000Y-104715200D01*
X59425000Y-97725000D02*
X59425000Y-88325000D01*
X53065000Y-75765000D02*
X53065000Y-74682200D01*
X63025000Y-101325000D02*
X59425000Y-97725000D01*
X79994000Y-124688200D02*
X72604900Y-117299100D01*
X60625000Y-87125000D02*
X60625000Y-82025000D01*
X56991200Y-78391200D02*
X55691200Y-78391200D01*
X60625000Y-82025000D02*
X56991200Y-78391200D01*
X129225000Y-165675000D02*
X128046000Y-165675000D01*
X128046000Y-165675000D02*
X100096000Y-137725000D01*
D20*
%TO.N,GND*%
X67849500Y-138043500D02*
X64705600Y-134899600D01*
X54962800Y-129456200D02*
X50006300Y-129456200D01*
X128012900Y-168215000D02*
X105533400Y-145735500D01*
X58145000Y-74682200D02*
X57125900Y-75701300D01*
X60406200Y-134899600D02*
X54962800Y-129456200D01*
X80062800Y-145735500D02*
X72370800Y-138043500D01*
X105533400Y-145735500D02*
X80062800Y-145735500D01*
X57125900Y-75701300D02*
X57125900Y-77666200D01*
X129225000Y-168215000D02*
X128012900Y-168215000D01*
X64705600Y-134899600D02*
X60406200Y-134899600D01*
X72370800Y-138043500D02*
X67849500Y-138043500D01*
D19*
%TO.N,col0*%
X50150000Y-80763700D02*
X50150000Y-85000000D01*
X50150000Y-85000000D02*
X53050500Y-87900500D01*
X52531300Y-99813700D02*
X52531300Y-108139500D01*
X56875000Y-89511800D02*
X56875000Y-91462300D01*
X56875000Y-91462300D02*
X56875000Y-95470000D01*
X55263700Y-87900500D02*
X56875000Y-89511800D01*
X54836600Y-116480800D02*
X54912500Y-116556700D01*
X54912500Y-116556700D02*
X54912500Y-118863700D01*
X56875000Y-95470000D02*
X52531300Y-99813700D01*
X59775000Y-137953700D02*
X59775000Y-136128600D01*
X52531300Y-156963700D02*
X59775000Y-149720000D01*
X59775000Y-135501400D02*
X54836600Y-130563000D01*
X59775000Y-136128600D02*
X59775000Y-135501400D01*
X53050500Y-87900500D02*
X55263700Y-87900500D01*
X52531300Y-108139500D02*
X54690700Y-110298900D01*
X59775000Y-149720000D02*
X59775000Y-137953700D01*
%TO.N,col1*%
X88250000Y-137913700D02*
X88250000Y-137463700D01*
X73962500Y-99813700D02*
X73962500Y-112276100D01*
X69056300Y-86610900D02*
X69056300Y-82585100D01*
X86047100Y-139666600D02*
X86047100Y-144879100D01*
X73962500Y-97988600D02*
X73851400Y-97988600D01*
X73962500Y-99813700D02*
X73962500Y-97988600D01*
X73962500Y-156963700D02*
X84336400Y-146589800D01*
X88250000Y-137463700D02*
X88250000Y-136088600D01*
X78725000Y-118863700D02*
X78725000Y-122393800D01*
X78725000Y-118863700D02*
X78725000Y-117038600D01*
X88250000Y-136088600D02*
X78240900Y-126079500D01*
X73851400Y-97988600D02*
X67901300Y-92038500D01*
X88250000Y-137463700D02*
X86047100Y-139666600D01*
X65765000Y-89902200D02*
X69056300Y-86610900D01*
X78240900Y-126079500D02*
X78240900Y-123963100D01*
X73962500Y-112276100D02*
X78725000Y-117038600D01*
X69056300Y-80760000D02*
X69056300Y-82585100D01*
X78725000Y-122393800D02*
X78842300Y-122511100D01*
%TO.N,col2*%
X79610900Y-88807900D02*
X79610900Y-96310900D01*
X68305000Y-89902200D02*
X69399300Y-88807900D01*
X79610900Y-86977700D02*
X85824900Y-80763700D01*
X69399300Y-88807900D02*
X79610900Y-88807900D01*
X94472800Y-110075800D02*
X97775000Y-113378000D01*
X107300000Y-137913700D02*
X104874900Y-137913700D01*
X88250000Y-80763700D02*
X85824900Y-80763700D01*
X97775000Y-122674700D02*
X97775000Y-118863700D01*
X104874900Y-129774600D02*
X97775000Y-122674700D01*
X93012500Y-156963700D02*
X93012500Y-150640100D01*
X93012500Y-99813700D02*
X91800000Y-99813700D01*
X79610900Y-88807900D02*
X79610900Y-86977700D01*
X104874900Y-137913700D02*
X104874900Y-138777700D01*
X93012500Y-150640100D02*
X97064400Y-146588200D01*
X90988700Y-100625000D02*
X91800000Y-99813700D01*
X91800000Y-99813700D02*
X91800000Y-102343400D01*
X79610900Y-96310900D02*
X83925000Y-100625000D01*
X97775000Y-113378000D02*
X97775000Y-118863700D01*
X104874900Y-138777700D02*
X103524500Y-140128100D01*
X104874900Y-137913700D02*
X104874900Y-129774600D01*
X91800000Y-102343400D02*
X95057800Y-105601200D01*
X83925000Y-100625000D02*
X90988700Y-100625000D01*
%TO.N,col3*%
X100125000Y-96375000D02*
X103225000Y-93275000D01*
X100125000Y-98325000D02*
X100125000Y-96375000D01*
X100530500Y-90367600D02*
X107300000Y-83598100D01*
X126350000Y-133298800D02*
X126350000Y-137913700D01*
X116825000Y-118863700D02*
X116825000Y-123773800D01*
X107300000Y-83598100D02*
X107300000Y-80763700D01*
X99788600Y-91109500D02*
X100530500Y-90367600D01*
X112062500Y-110154800D02*
X116825000Y-114917300D01*
X112062500Y-99813700D02*
X112062500Y-110154800D01*
X96166900Y-91109500D02*
X99788600Y-91109500D01*
X103225000Y-93275000D02*
X103225000Y-92175000D01*
X101613700Y-99813700D02*
X100125000Y-98325000D01*
X102159500Y-91109500D02*
X99788600Y-91109500D01*
X116825000Y-114917300D02*
X116825000Y-118863700D01*
X103225000Y-92175000D02*
X102159500Y-91109500D01*
X116825000Y-123773800D02*
X126350000Y-133298800D01*
X112062500Y-99813700D02*
X101613700Y-99813700D01*
%TO.N,col4*%
X126350000Y-82588800D02*
X126350000Y-86426000D01*
X145400000Y-132523400D02*
X145400000Y-137913700D01*
X122594600Y-86426000D02*
X126350000Y-86426000D01*
X159693700Y-157003700D02*
X145400000Y-142710000D01*
X127147300Y-86426000D02*
X133142900Y-92421600D01*
X145400000Y-142710000D02*
X145400000Y-137913700D01*
X126350000Y-80763700D02*
X126350000Y-82588800D01*
X131112500Y-112268100D02*
X135875000Y-117030600D01*
X135875000Y-117030600D02*
X135875000Y-118863700D01*
X135875000Y-122998400D02*
X145400000Y-132523400D01*
X135875000Y-118863700D02*
X135875000Y-122998400D01*
X133142900Y-97783300D02*
X131112500Y-99813700D01*
X133142900Y-92421600D02*
X133142900Y-97783300D01*
X131112500Y-99813700D02*
X131112500Y-112268100D01*
X162168800Y-157003700D02*
X159693700Y-157003700D01*
X126350000Y-86426000D02*
X127147300Y-86426000D01*
%TO.N,col5*%
X145400000Y-80763700D02*
X145400000Y-82588800D01*
X150162500Y-102881200D02*
X154925000Y-107643700D01*
X154925000Y-107643700D02*
X154925000Y-118863700D01*
X154925000Y-122818700D02*
X154925000Y-118863700D01*
X164450000Y-137913700D02*
X164450000Y-132343700D01*
X145400000Y-82588800D02*
X145400000Y-87397700D01*
X144072900Y-88724800D02*
X150162500Y-94814400D01*
X144072900Y-88724800D02*
X143154600Y-88724800D01*
X150162500Y-99813700D02*
X150162500Y-102881200D01*
X150162500Y-94814400D02*
X150162500Y-99813700D01*
X143154600Y-88724800D02*
X143079300Y-88649500D01*
X145400000Y-87397700D02*
X144072900Y-88724800D01*
X164450000Y-132343700D02*
X154925000Y-122818700D01*
%TO.N,col6*%
X151627100Y-89461700D02*
X160685600Y-89461700D01*
X169212500Y-99813700D02*
X169212500Y-97988600D01*
X183500000Y-137913700D02*
X183500000Y-132343700D01*
X169212500Y-97988600D02*
X160685600Y-89461700D01*
X173975000Y-109755800D02*
X169212500Y-104993300D01*
X164450000Y-80763700D02*
X164450000Y-82588800D01*
X160685600Y-89461700D02*
X160685600Y-86353200D01*
X173975000Y-122818700D02*
X173975000Y-118863700D01*
X169212500Y-104993300D02*
X169212500Y-99813700D01*
X160685600Y-86353200D02*
X164450000Y-82588800D01*
X183500000Y-132343700D02*
X173975000Y-122818700D01*
X150404200Y-90684600D02*
X151627100Y-89461700D01*
X173975000Y-118863700D02*
X173975000Y-109755800D01*
%TO.N,col7*%
X233506300Y-155856300D02*
X233506300Y-156963700D01*
X188262500Y-94312300D02*
X188262500Y-99813700D01*
X203646800Y-135025000D02*
X207372700Y-135025000D01*
X183500000Y-80763700D02*
X183500000Y-82588800D01*
X183500000Y-89549800D02*
X183500000Y-82588800D01*
X193025000Y-126596800D02*
X202550000Y-136121800D01*
X188262500Y-102881200D02*
X193025000Y-107643700D01*
X193025000Y-107643700D02*
X193025000Y-118863700D01*
X215375000Y-137725000D02*
X233506300Y-155856300D01*
X202550000Y-136121800D02*
X202550000Y-137913700D01*
X183500000Y-89549800D02*
X188262500Y-94312300D01*
X210072700Y-137725000D02*
X215375000Y-137725000D01*
X193025000Y-118863700D02*
X193025000Y-126596800D01*
X202550000Y-136121800D02*
X203646800Y-135025000D01*
X207372700Y-135025000D02*
X210072700Y-137725000D01*
X188262500Y-99813700D02*
X188262500Y-102881200D01*
%TO.N,col8*%
X229290057Y-137825000D02*
X226690057Y-135225000D01*
X202258200Y-78646800D02*
X202550000Y-78938600D01*
X207312500Y-112268100D02*
X212075000Y-117030600D01*
X199182100Y-78646800D02*
X202258200Y-78646800D01*
X254088100Y-156963700D02*
X234949400Y-137825000D01*
X212075000Y-118863700D02*
X212075000Y-126603500D01*
X226690057Y-135225000D02*
X222503500Y-135225000D01*
X207312500Y-99813700D02*
X207312500Y-112268100D01*
X202550000Y-93054700D02*
X207312500Y-97817200D01*
X221600000Y-136128500D02*
X221600000Y-137913700D01*
X202550000Y-80763700D02*
X202550000Y-93054700D01*
X222503500Y-135225000D02*
X221600000Y-136128500D01*
X212075000Y-117030600D02*
X212075000Y-118863700D01*
X212075000Y-126603500D02*
X221600000Y-136128500D01*
X202550000Y-80763700D02*
X202550000Y-78938600D01*
X207312500Y-97817200D02*
X207312500Y-99813700D01*
X234949400Y-137825000D02*
X229290057Y-137825000D01*
X259700000Y-156963700D02*
X254088100Y-156963700D01*
%TO.N,col9*%
X226362500Y-88593700D02*
X226362500Y-99813700D01*
X231125000Y-122818700D02*
X231125000Y-118863700D01*
X170675000Y-71875000D02*
X193813748Y-71875000D01*
X203569700Y-74075000D02*
X210258400Y-80763700D01*
X94625000Y-71575000D02*
X162925000Y-71575000D01*
X168975000Y-73575000D02*
X170675000Y-71875000D01*
X195333500Y-73394752D02*
X195333500Y-74075000D01*
X81935051Y-74075000D02*
X92125000Y-74075000D01*
X92125000Y-74075000D02*
X94625000Y-71575000D01*
X77012000Y-73595200D02*
X81455251Y-73595200D01*
X81455251Y-73595200D02*
X81935051Y-74075000D01*
X231125000Y-109548300D02*
X226362500Y-104785800D01*
X221600000Y-83831200D02*
X226362500Y-88593700D01*
X210258400Y-80763700D02*
X221600000Y-80763700D01*
X226362500Y-104785800D02*
X226362500Y-99813700D01*
X162925000Y-71575000D02*
X164925000Y-73575000D01*
X240650000Y-137913700D02*
X240650000Y-132343700D01*
X231125000Y-118863700D02*
X231125000Y-109548300D01*
X164925000Y-73575000D02*
X168975000Y-73575000D01*
X240650000Y-132343700D02*
X231125000Y-122818700D01*
X195333500Y-74075000D02*
X203569700Y-74075000D01*
X221600000Y-80763700D02*
X221600000Y-83831200D01*
X193813748Y-71875000D02*
X195333500Y-73394752D01*
X75925000Y-74682200D02*
X77012000Y-73595200D01*
%TO.N,col10*%
X262081300Y-137913700D02*
X262081300Y-136088600D01*
X245412500Y-88593700D02*
X240650000Y-83831200D01*
X257318800Y-117038600D02*
X245412500Y-105132300D01*
X262081300Y-136088600D02*
X257318800Y-131326100D01*
X240650000Y-80763700D02*
X240650000Y-78250000D01*
X238179500Y-75779500D02*
X235925200Y-75779500D01*
X245412500Y-105132300D02*
X245412500Y-99813700D01*
X240650000Y-83831200D02*
X240650000Y-80763700D01*
X245412500Y-99813700D02*
X245412500Y-88593700D01*
X257318800Y-118863700D02*
X257318800Y-117038600D01*
X240650000Y-78250000D02*
X238179500Y-75779500D01*
X257318800Y-131326100D02*
X257318800Y-118863700D01*
%TO.N,col11*%
X262081300Y-80763700D02*
X262081300Y-95607400D01*
X258979400Y-75329400D02*
X257097600Y-75329400D01*
X262081300Y-95607400D02*
X264462500Y-97988600D01*
X262081300Y-78431300D02*
X258979400Y-75329400D01*
X264462500Y-99813700D02*
X264462500Y-97988600D01*
X262081300Y-80763700D02*
X262081300Y-78431300D01*
%TO.N,reset*%
X58125000Y-89922200D02*
X58145000Y-89902200D01*
X58125000Y-97275000D02*
X58125000Y-89922200D01*
X62275000Y-103748600D02*
X62275000Y-101425000D01*
X50006300Y-116017300D02*
X62275000Y-103748600D01*
X50006300Y-122956200D02*
X50006300Y-116017300D01*
X62275000Y-101425000D02*
X58125000Y-97275000D01*
%TD*%
M02*
