M48
; DRILL file {KiCad (7.0.0)} date Mon Mar 27 16:40:09 2023
; FORMAT={-:-/ absolute / metric / decimal}
; #@! TF.CreationDate,2023-03-27T16:40:09+09:00
; #@! TF.GenerationSoftware,Kicad,Pcbnew,(7.0.0)
; #@! TF.FileFunction,Plated,1,2,PTH
FMAT,2
METRIC
; #@! TA.AperFunction,Plated,PTH,ViaDrill
T1C0.400
; #@! TA.AperFunction,Plated,PTH,ComponentDrill
T2C0.813
; #@! TA.AperFunction,Plated,PTH,ComponentDrill
T3C1.300
%
G90
G05
T1
X54.691Y-110.299
X54.837Y-116.481
X54.837Y-130.563
X56.875Y-91.462
X57.126Y-77.666
X64.881Y-81.017
X67.901Y-92.038
X68.302Y-85.677
X78.241Y-123.963
X78.842Y-122.511
X84.336Y-146.59
X86.047Y-144.879
X88.763Y-87.453
X94.473Y-110.076
X95.058Y-105.601
X96.167Y-91.109
X97.064Y-146.588
X103.524Y-140.128
X122.595Y-86.426
X143.079Y-88.649
X150.404Y-90.685
X183.5Y-89.55
X199.182Y-78.647
X235.925Y-75.779
X257.098Y-75.329
T2
X53.065Y-74.682
X53.065Y-89.902
X55.605Y-74.682
X55.605Y-89.902
X58.145Y-74.682
X58.145Y-89.902
X58.709Y-111.919
X60.685Y-74.682
X60.685Y-89.902
X61.09Y-130.969
X63.225Y-74.682
X63.225Y-89.902
X65.765Y-74.682
X65.765Y-89.902
X66.329Y-111.919
X68.305Y-74.682
X68.305Y-89.902
X68.71Y-130.969
X70.0Y-101.065
X70.0Y-108.685
X70.125Y-159.94
X70.125Y-167.56
X70.845Y-74.682
X70.845Y-89.902
X73.385Y-74.682
X73.385Y-89.902
X75.925Y-74.682
X75.925Y-89.902
X78.465Y-74.682
X78.465Y-89.902
X81.005Y-74.682
X81.005Y-89.902
X81.915Y-111.919
X85.25Y-84.94
X85.25Y-92.56
X89.325Y-160.015
X89.325Y-167.635
X89.535Y-111.919
X92.046Y-130.969
X93.79Y-92.75
X98.84Y-73.65
X99.666Y-130.969
X101.41Y-92.75
X101.571Y-111.919
X106.46Y-73.65
X108.5Y-159.74
X108.5Y-167.36
X108.815Y-93.05
X109.191Y-111.919
X111.096Y-130.969
X113.29Y-73.7
X116.435Y-93.05
X118.716Y-130.969
X119.062Y-111.919
X120.91Y-73.7
X124.44Y-92.85
X126.682Y-111.919
X127.54Y-73.775
X130.146Y-130.969
X132.06Y-92.85
X135.16Y-73.775
X137.766Y-130.969
X138.459Y-111.919
X139.065Y-92.85
X141.665Y-73.7
X146.079Y-111.919
X146.685Y-92.85
X149.196Y-130.969
X149.285Y-73.7
X154.19Y-92.95
X155.165Y-73.55
X156.816Y-130.969
X157.162Y-111.919
X161.81Y-92.95
X162.785Y-73.55
X164.782Y-111.919
X165.865Y-150.019
X168.246Y-130.969
X171.165Y-73.725
X171.796Y-92.869
X173.485Y-150.019
X175.866Y-130.969
X177.771Y-111.919
X178.785Y-73.725
X179.416Y-92.869
X185.391Y-111.919
X186.69Y-73.819
X187.296Y-130.969
X189.071Y-92.869
X194.31Y-73.819
X194.916Y-130.969
X196.691Y-92.869
X196.821Y-111.919
X204.441Y-111.919
X205.74Y-73.819
X206.346Y-130.969
X208.121Y-92.869
X213.36Y-73.819
X213.966Y-130.969
X215.741Y-92.869
X215.871Y-111.919
X223.491Y-111.919
X224.79Y-73.819
X225.396Y-130.969
X229.552Y-92.869
X232.41Y-73.819
X233.016Y-130.969
X234.315Y-111.919
X237.172Y-92.869
X237.302Y-150.019
X241.935Y-111.919
X243.84Y-73.819
X244.446Y-130.969
X244.922Y-150.019
X248.602Y-92.869
X251.46Y-73.819
X252.066Y-130.969
X256.222Y-92.869
X258.734Y-111.919
X263.496Y-150.019
X263.804Y-130.969
X264.665Y-73.819
X266.354Y-111.919
X267.652Y-92.869
X271.116Y-150.019
X271.424Y-130.969
X272.285Y-73.819
X275.272Y-92.869
T3
X50.006Y-122.956
X50.006Y-129.456
T0
M30
