M48
; DRILL file {KiCad (7.0.0)} date Mon Mar 27 16:40:09 2023
; FORMAT={-:-/ absolute / metric / decimal}
; #@! TF.CreationDate,2023-03-27T16:40:09+09:00
; #@! TF.GenerationSoftware,Kicad,Pcbnew,(7.0.0)
; #@! TF.FileFunction,NonPlated,1,2,NPTH
FMAT,2
METRIC
; #@! TA.AperFunction,NonPlated,NPTH,ComponentDrill
T1C1.800
; #@! TA.AperFunction,NonPlated,NPTH,ComponentDrill
T2C2.000
; #@! TA.AperFunction,NonPlated,NPTH,ComponentDrill
T3C3.000
; #@! TA.AperFunction,NonPlated,NPTH,ComponentDrill
T4C3.050
; #@! TA.AperFunction,NonPlated,NPTH,ComponentDrill
T5C4.000
%
G90
G05
T1
X61.595Y-140.494
X71.755Y-140.494
X163.989Y-159.544
X174.149Y-159.544
T2
X52.07Y-83.344
X54.451Y-102.394
X54.451Y-159.544
X56.832Y-121.444
X62.23Y-83.344
X64.611Y-102.394
X64.611Y-159.544
X66.992Y-121.444
X70.976Y-83.34
X75.882Y-102.394
X75.882Y-159.544
X80.645Y-121.444
X81.136Y-83.34
X86.042Y-102.394
X86.042Y-159.544
X90.17Y-83.344
X90.17Y-140.494
X90.805Y-121.444
X94.932Y-102.394
X94.932Y-159.544
X99.695Y-121.444
X100.33Y-83.344
X100.33Y-140.494
X105.093Y-102.394
X105.093Y-159.544
X109.22Y-83.344
X109.22Y-140.494
X109.855Y-121.444
X113.983Y-102.394
X118.745Y-121.444
X119.38Y-83.344
X119.38Y-140.494
X124.142Y-102.394
X128.27Y-83.344
X128.27Y-140.494
X128.905Y-121.444
X133.032Y-102.394
X137.795Y-121.444
X138.43Y-83.344
X138.43Y-140.494
X143.192Y-102.394
X147.32Y-83.344
X147.32Y-140.494
X147.955Y-121.444
X152.082Y-102.394
X156.845Y-121.444
X157.48Y-83.344
X157.48Y-140.494
X162.243Y-102.394
X166.37Y-83.344
X166.37Y-140.494
X167.005Y-121.444
X171.132Y-102.394
X175.895Y-121.444
X176.53Y-83.344
X176.53Y-140.494
X181.292Y-102.394
X185.42Y-83.344
X185.42Y-140.494
X186.055Y-121.444
X190.183Y-102.394
X194.945Y-121.444
X195.58Y-83.344
X195.58Y-140.494
X200.343Y-102.394
X204.47Y-83.344
X204.47Y-140.494
X205.105Y-121.444
X209.232Y-102.394
X213.995Y-121.444
X214.63Y-83.344
X214.63Y-140.494
X219.392Y-102.394
X223.52Y-83.344
X223.52Y-140.494
X224.155Y-121.444
X228.282Y-102.394
X233.045Y-121.444
X233.68Y-83.344
X233.68Y-140.494
X235.426Y-159.544
X238.442Y-102.394
X242.57Y-83.344
X242.57Y-140.494
X243.205Y-121.444
X245.586Y-159.544
X247.332Y-102.394
X252.73Y-83.344
X252.73Y-140.494
X257.493Y-102.394
X259.239Y-121.444
X261.62Y-159.544
X264.001Y-83.344
X264.001Y-140.494
X266.382Y-102.394
X269.399Y-121.444
X271.78Y-159.544
X274.161Y-83.344
X274.161Y-140.494
X276.542Y-102.394
T3
X53.34Y-80.804
X55.721Y-99.854
X55.721Y-157.004
X58.102Y-118.904
X59.69Y-78.264
X62.071Y-97.314
X62.071Y-154.464
X62.865Y-137.954
X64.453Y-116.364
X69.215Y-135.414
X72.246Y-80.8
X77.153Y-99.854
X77.153Y-157.004
X78.596Y-78.26
X81.915Y-118.904
X83.502Y-97.314
X83.502Y-154.464
X88.265Y-116.364
X91.44Y-80.804
X91.44Y-137.954
X96.203Y-99.854
X96.203Y-157.004
X97.79Y-78.264
X97.79Y-135.414
X100.965Y-118.904
X102.552Y-97.314
X102.552Y-154.464
X107.315Y-116.364
X110.49Y-80.804
X110.49Y-137.954
X115.252Y-99.854
X116.84Y-78.264
X116.84Y-135.414
X120.015Y-118.904
X121.602Y-97.314
X126.365Y-116.364
X129.54Y-80.804
X129.54Y-137.954
X134.302Y-99.854
X135.89Y-78.264
X135.89Y-135.414
X139.065Y-118.904
X140.653Y-97.314
X145.415Y-116.364
X148.59Y-80.804
X148.59Y-137.954
X153.352Y-99.854
X154.94Y-78.264
X154.94Y-135.414
X158.115Y-118.904
X159.702Y-97.314
X164.465Y-116.364
X165.259Y-157.004
X167.64Y-80.804
X167.64Y-137.954
X171.609Y-154.464
X172.403Y-99.854
X173.99Y-78.264
X173.99Y-135.414
X177.165Y-118.904
X178.752Y-97.314
X183.515Y-116.364
X186.69Y-80.804
X186.69Y-137.954
X191.452Y-99.854
X193.04Y-78.264
X193.04Y-135.414
X196.215Y-118.904
X197.802Y-97.314
X202.565Y-116.364
X205.74Y-80.804
X205.74Y-137.954
X210.502Y-99.854
X212.09Y-78.264
X212.09Y-135.414
X215.265Y-118.904
X216.852Y-97.314
X221.615Y-116.364
X224.79Y-80.804
X224.79Y-137.954
X229.552Y-99.854
X231.14Y-78.264
X231.14Y-135.414
X234.315Y-118.904
X235.903Y-97.314
X236.696Y-157.004
X240.665Y-116.364
X243.046Y-154.464
X243.84Y-80.804
X243.84Y-137.954
X248.602Y-99.854
X250.19Y-78.264
X250.19Y-135.414
X254.952Y-97.314
X260.509Y-118.904
X262.89Y-157.004
X265.271Y-80.804
X265.271Y-137.954
X266.859Y-116.364
X267.652Y-99.854
X269.24Y-154.464
X271.621Y-78.264
X271.621Y-135.414
X274.002Y-97.314
T4
X54.775Y-133.494
X78.575Y-133.494
X119.059Y-152.544
X219.079Y-152.544
T5
X54.775Y-148.734
X57.15Y-83.344
X59.531Y-102.394
X59.531Y-159.544
X61.912Y-121.444
X66.675Y-140.494
X76.056Y-83.34
X78.575Y-148.734
X80.962Y-102.394
X80.962Y-159.544
X85.725Y-121.444
X95.25Y-83.344
X95.25Y-140.494
X100.012Y-102.394
X100.012Y-159.544
X104.775Y-121.444
X114.3Y-83.344
X114.3Y-140.494
X119.059Y-167.784
X119.062Y-102.394
X123.825Y-121.444
X133.35Y-83.344
X133.35Y-140.494
X138.112Y-102.394
X142.875Y-121.444
X152.4Y-83.344
X152.4Y-140.494
X157.162Y-102.394
X161.925Y-121.444
X169.069Y-159.544
X171.45Y-83.344
X171.45Y-140.494
X176.213Y-102.394
X180.975Y-121.444
X190.5Y-83.344
X190.5Y-140.494
X195.262Y-102.394
X200.025Y-121.444
X209.55Y-83.344
X209.55Y-140.494
X214.312Y-102.394
X219.075Y-121.444
X219.079Y-167.784
X228.6Y-83.344
X228.6Y-140.494
X233.362Y-102.394
X238.125Y-121.444
X240.506Y-159.544
X247.65Y-83.344
X247.65Y-140.494
X252.412Y-102.394
X264.319Y-121.444
X266.7Y-159.544
X269.081Y-83.344
X269.081Y-140.494
X271.462Y-102.394
T0
M30
