G04 #@! TF.GenerationSoftware,KiCad,Pcbnew,(7.0.0)*
G04 #@! TF.CreationDate,2023-03-27T16:38:47+09:00*
G04 #@! TF.ProjectId,rowlow11,726f776c-6f77-4313-912e-6b696361645f,rev?*
G04 #@! TF.SameCoordinates,Original*
G04 #@! TF.FileFunction,Legend,Top*
G04 #@! TF.FilePolarity,Positive*
%FSLAX46Y46*%
G04 Gerber Fmt 4.6, Leading zero omitted, Abs format (unit mm)*
G04 Created by KiCad (PCBNEW (7.0.0)) date 2023-03-27 16:38:47*
%MOMM*%
%LPD*%
G01*
G04 APERTURE LIST*
%ADD10C,0.150000*%
%ADD11C,0.125000*%
%ADD12C,2.000000*%
%ADD13C,4.000000*%
%ADD14R,1.397000X1.397000*%
%ADD15C,1.397000*%
%ADD16C,1.524000*%
G04 APERTURE END LIST*
D10*
X50373680Y-127658581D02*
X49897490Y-127991914D01*
X50373680Y-128230009D02*
X49373680Y-128230009D01*
X49373680Y-128230009D02*
X49373680Y-127849057D01*
X49373680Y-127849057D02*
X49421300Y-127753819D01*
X49421300Y-127753819D02*
X49468919Y-127706200D01*
X49468919Y-127706200D02*
X49564157Y-127658581D01*
X49564157Y-127658581D02*
X49707014Y-127658581D01*
X49707014Y-127658581D02*
X49802252Y-127706200D01*
X49802252Y-127706200D02*
X49849871Y-127753819D01*
X49849871Y-127753819D02*
X49897490Y-127849057D01*
X49897490Y-127849057D02*
X49897490Y-128230009D01*
X49849871Y-127230009D02*
X49849871Y-126896676D01*
X50373680Y-126753819D02*
X50373680Y-127230009D01*
X50373680Y-127230009D02*
X49373680Y-127230009D01*
X49373680Y-127230009D02*
X49373680Y-126753819D01*
X50326061Y-126372866D02*
X50373680Y-126230009D01*
X50373680Y-126230009D02*
X50373680Y-125991914D01*
X50373680Y-125991914D02*
X50326061Y-125896676D01*
X50326061Y-125896676D02*
X50278442Y-125849057D01*
X50278442Y-125849057D02*
X50183204Y-125801438D01*
X50183204Y-125801438D02*
X50087966Y-125801438D01*
X50087966Y-125801438D02*
X49992728Y-125849057D01*
X49992728Y-125849057D02*
X49945109Y-125896676D01*
X49945109Y-125896676D02*
X49897490Y-125991914D01*
X49897490Y-125991914D02*
X49849871Y-126182390D01*
X49849871Y-126182390D02*
X49802252Y-126277628D01*
X49802252Y-126277628D02*
X49754633Y-126325247D01*
X49754633Y-126325247D02*
X49659395Y-126372866D01*
X49659395Y-126372866D02*
X49564157Y-126372866D01*
X49564157Y-126372866D02*
X49468919Y-126325247D01*
X49468919Y-126325247D02*
X49421300Y-126277628D01*
X49421300Y-126277628D02*
X49373680Y-126182390D01*
X49373680Y-126182390D02*
X49373680Y-125944295D01*
X49373680Y-125944295D02*
X49421300Y-125801438D01*
X49849871Y-125372866D02*
X49849871Y-125039533D01*
X50373680Y-124896676D02*
X50373680Y-125372866D01*
X50373680Y-125372866D02*
X49373680Y-125372866D01*
X49373680Y-125372866D02*
X49373680Y-124896676D01*
X49373680Y-124610961D02*
X49373680Y-124039533D01*
X50373680Y-124325247D02*
X49373680Y-124325247D01*
D11*
X68543904Y-72730952D02*
X68162952Y-72897618D01*
X68543904Y-73016666D02*
X67743904Y-73016666D01*
X67743904Y-73016666D02*
X67743904Y-72826190D01*
X67743904Y-72826190D02*
X67782000Y-72778571D01*
X67782000Y-72778571D02*
X67820095Y-72754761D01*
X67820095Y-72754761D02*
X67896285Y-72730952D01*
X67896285Y-72730952D02*
X68010571Y-72730952D01*
X68010571Y-72730952D02*
X68086761Y-72754761D01*
X68086761Y-72754761D02*
X68124857Y-72778571D01*
X68124857Y-72778571D02*
X68162952Y-72826190D01*
X68162952Y-72826190D02*
X68162952Y-73016666D01*
X67743904Y-72421428D02*
X67743904Y-72326190D01*
X67743904Y-72326190D02*
X67782000Y-72278571D01*
X67782000Y-72278571D02*
X67858190Y-72230952D01*
X67858190Y-72230952D02*
X68010571Y-72207142D01*
X68010571Y-72207142D02*
X68277238Y-72207142D01*
X68277238Y-72207142D02*
X68429619Y-72230952D01*
X68429619Y-72230952D02*
X68505809Y-72278571D01*
X68505809Y-72278571D02*
X68543904Y-72326190D01*
X68543904Y-72326190D02*
X68543904Y-72421428D01*
X68543904Y-72421428D02*
X68505809Y-72469047D01*
X68505809Y-72469047D02*
X68429619Y-72516666D01*
X68429619Y-72516666D02*
X68277238Y-72540475D01*
X68277238Y-72540475D02*
X68010571Y-72540475D01*
X68010571Y-72540475D02*
X67858190Y-72516666D01*
X67858190Y-72516666D02*
X67782000Y-72469047D01*
X67782000Y-72469047D02*
X67743904Y-72421428D01*
X67743904Y-72040475D02*
X68543904Y-71921427D01*
X68543904Y-71921427D02*
X67972476Y-71826189D01*
X67972476Y-71826189D02*
X68543904Y-71730951D01*
X68543904Y-71730951D02*
X67743904Y-71611904D01*
X67743904Y-71326189D02*
X67743904Y-71278570D01*
X67743904Y-71278570D02*
X67782000Y-71230951D01*
X67782000Y-71230951D02*
X67820095Y-71207141D01*
X67820095Y-71207141D02*
X67896285Y-71183332D01*
X67896285Y-71183332D02*
X68048666Y-71159522D01*
X68048666Y-71159522D02*
X68239142Y-71159522D01*
X68239142Y-71159522D02*
X68391523Y-71183332D01*
X68391523Y-71183332D02*
X68467714Y-71207141D01*
X68467714Y-71207141D02*
X68505809Y-71230951D01*
X68505809Y-71230951D02*
X68543904Y-71278570D01*
X68543904Y-71278570D02*
X68543904Y-71326189D01*
X68543904Y-71326189D02*
X68505809Y-71373808D01*
X68505809Y-71373808D02*
X68467714Y-71397617D01*
X68467714Y-71397617D02*
X68391523Y-71421427D01*
X68391523Y-71421427D02*
X68239142Y-71445236D01*
X68239142Y-71445236D02*
X68048666Y-71445236D01*
X68048666Y-71445236D02*
X67896285Y-71421427D01*
X67896285Y-71421427D02*
X67820095Y-71397617D01*
X67820095Y-71397617D02*
X67782000Y-71373808D01*
X67782000Y-71373808D02*
X67743904Y-71326189D01*
X76206214Y-92836219D02*
X76244309Y-92860028D01*
X76244309Y-92860028D02*
X76282404Y-92931457D01*
X76282404Y-92931457D02*
X76282404Y-92979076D01*
X76282404Y-92979076D02*
X76244309Y-93050504D01*
X76244309Y-93050504D02*
X76168119Y-93098123D01*
X76168119Y-93098123D02*
X76091928Y-93121933D01*
X76091928Y-93121933D02*
X75939547Y-93145742D01*
X75939547Y-93145742D02*
X75825261Y-93145742D01*
X75825261Y-93145742D02*
X75672880Y-93121933D01*
X75672880Y-93121933D02*
X75596690Y-93098123D01*
X75596690Y-93098123D02*
X75520500Y-93050504D01*
X75520500Y-93050504D02*
X75482404Y-92979076D01*
X75482404Y-92979076D02*
X75482404Y-92931457D01*
X75482404Y-92931457D02*
X75520500Y-92860028D01*
X75520500Y-92860028D02*
X75558595Y-92836219D01*
X75482404Y-92526695D02*
X75482404Y-92431457D01*
X75482404Y-92431457D02*
X75520500Y-92383838D01*
X75520500Y-92383838D02*
X75596690Y-92336219D01*
X75596690Y-92336219D02*
X75749071Y-92312409D01*
X75749071Y-92312409D02*
X76015738Y-92312409D01*
X76015738Y-92312409D02*
X76168119Y-92336219D01*
X76168119Y-92336219D02*
X76244309Y-92383838D01*
X76244309Y-92383838D02*
X76282404Y-92431457D01*
X76282404Y-92431457D02*
X76282404Y-92526695D01*
X76282404Y-92526695D02*
X76244309Y-92574314D01*
X76244309Y-92574314D02*
X76168119Y-92621933D01*
X76168119Y-92621933D02*
X76015738Y-92645742D01*
X76015738Y-92645742D02*
X75749071Y-92645742D01*
X75749071Y-92645742D02*
X75596690Y-92621933D01*
X75596690Y-92621933D02*
X75520500Y-92574314D01*
X75520500Y-92574314D02*
X75482404Y-92526695D01*
X76282404Y-91860028D02*
X76282404Y-92098123D01*
X76282404Y-92098123D02*
X75482404Y-92098123D01*
X75482404Y-91455266D02*
X75482404Y-91693361D01*
X75482404Y-91693361D02*
X75863357Y-91717170D01*
X75863357Y-91717170D02*
X75825261Y-91693361D01*
X75825261Y-91693361D02*
X75787166Y-91645742D01*
X75787166Y-91645742D02*
X75787166Y-91526694D01*
X75787166Y-91526694D02*
X75825261Y-91479075D01*
X75825261Y-91479075D02*
X75863357Y-91455266D01*
X75863357Y-91455266D02*
X75939547Y-91431456D01*
X75939547Y-91431456D02*
X76130023Y-91431456D01*
X76130023Y-91431456D02*
X76206214Y-91455266D01*
X76206214Y-91455266D02*
X76244309Y-91479075D01*
X76244309Y-91479075D02*
X76282404Y-91526694D01*
X76282404Y-91526694D02*
X76282404Y-91645742D01*
X76282404Y-91645742D02*
X76244309Y-91693361D01*
X76244309Y-91693361D02*
X76206214Y-91717170D01*
X63430809Y-72882141D02*
X63468904Y-72810713D01*
X63468904Y-72810713D02*
X63468904Y-72691665D01*
X63468904Y-72691665D02*
X63430809Y-72644046D01*
X63430809Y-72644046D02*
X63392714Y-72620237D01*
X63392714Y-72620237D02*
X63316523Y-72596427D01*
X63316523Y-72596427D02*
X63240333Y-72596427D01*
X63240333Y-72596427D02*
X63164142Y-72620237D01*
X63164142Y-72620237D02*
X63126047Y-72644046D01*
X63126047Y-72644046D02*
X63087952Y-72691665D01*
X63087952Y-72691665D02*
X63049857Y-72786903D01*
X63049857Y-72786903D02*
X63011761Y-72834522D01*
X63011761Y-72834522D02*
X62973666Y-72858332D01*
X62973666Y-72858332D02*
X62897476Y-72882141D01*
X62897476Y-72882141D02*
X62821285Y-72882141D01*
X62821285Y-72882141D02*
X62745095Y-72858332D01*
X62745095Y-72858332D02*
X62707000Y-72834522D01*
X62707000Y-72834522D02*
X62668904Y-72786903D01*
X62668904Y-72786903D02*
X62668904Y-72667856D01*
X62668904Y-72667856D02*
X62707000Y-72596427D01*
X63468904Y-72382142D02*
X62668904Y-72382142D01*
X62668904Y-72382142D02*
X62668904Y-72263094D01*
X62668904Y-72263094D02*
X62707000Y-72191666D01*
X62707000Y-72191666D02*
X62783190Y-72144047D01*
X62783190Y-72144047D02*
X62859380Y-72120237D01*
X62859380Y-72120237D02*
X63011761Y-72096428D01*
X63011761Y-72096428D02*
X63126047Y-72096428D01*
X63126047Y-72096428D02*
X63278428Y-72120237D01*
X63278428Y-72120237D02*
X63354619Y-72144047D01*
X63354619Y-72144047D02*
X63430809Y-72191666D01*
X63430809Y-72191666D02*
X63468904Y-72263094D01*
X63468904Y-72263094D02*
X63468904Y-72382142D01*
X63240333Y-71905951D02*
X63240333Y-71667856D01*
X63468904Y-71953570D02*
X62668904Y-71786904D01*
X62668904Y-71786904D02*
X63468904Y-71620237D01*
X71293904Y-72680952D02*
X70912952Y-72847618D01*
X71293904Y-72966666D02*
X70493904Y-72966666D01*
X70493904Y-72966666D02*
X70493904Y-72776190D01*
X70493904Y-72776190D02*
X70532000Y-72728571D01*
X70532000Y-72728571D02*
X70570095Y-72704761D01*
X70570095Y-72704761D02*
X70646285Y-72680952D01*
X70646285Y-72680952D02*
X70760571Y-72680952D01*
X70760571Y-72680952D02*
X70836761Y-72704761D01*
X70836761Y-72704761D02*
X70874857Y-72728571D01*
X70874857Y-72728571D02*
X70912952Y-72776190D01*
X70912952Y-72776190D02*
X70912952Y-72966666D01*
X70493904Y-72371428D02*
X70493904Y-72276190D01*
X70493904Y-72276190D02*
X70532000Y-72228571D01*
X70532000Y-72228571D02*
X70608190Y-72180952D01*
X70608190Y-72180952D02*
X70760571Y-72157142D01*
X70760571Y-72157142D02*
X71027238Y-72157142D01*
X71027238Y-72157142D02*
X71179619Y-72180952D01*
X71179619Y-72180952D02*
X71255809Y-72228571D01*
X71255809Y-72228571D02*
X71293904Y-72276190D01*
X71293904Y-72276190D02*
X71293904Y-72371428D01*
X71293904Y-72371428D02*
X71255809Y-72419047D01*
X71255809Y-72419047D02*
X71179619Y-72466666D01*
X71179619Y-72466666D02*
X71027238Y-72490475D01*
X71027238Y-72490475D02*
X70760571Y-72490475D01*
X70760571Y-72490475D02*
X70608190Y-72466666D01*
X70608190Y-72466666D02*
X70532000Y-72419047D01*
X70532000Y-72419047D02*
X70493904Y-72371428D01*
X70493904Y-71990475D02*
X71293904Y-71871427D01*
X71293904Y-71871427D02*
X70722476Y-71776189D01*
X70722476Y-71776189D02*
X71293904Y-71680951D01*
X71293904Y-71680951D02*
X70493904Y-71561904D01*
X71293904Y-71109522D02*
X71293904Y-71395236D01*
X71293904Y-71252379D02*
X70493904Y-71252379D01*
X70493904Y-71252379D02*
X70608190Y-71299998D01*
X70608190Y-71299998D02*
X70684380Y-71347617D01*
X70684380Y-71347617D02*
X70722476Y-71395236D01*
X57682000Y-72605952D02*
X57643904Y-72653571D01*
X57643904Y-72653571D02*
X57643904Y-72725000D01*
X57643904Y-72725000D02*
X57682000Y-72796428D01*
X57682000Y-72796428D02*
X57758190Y-72844047D01*
X57758190Y-72844047D02*
X57834380Y-72867857D01*
X57834380Y-72867857D02*
X57986761Y-72891666D01*
X57986761Y-72891666D02*
X58101047Y-72891666D01*
X58101047Y-72891666D02*
X58253428Y-72867857D01*
X58253428Y-72867857D02*
X58329619Y-72844047D01*
X58329619Y-72844047D02*
X58405809Y-72796428D01*
X58405809Y-72796428D02*
X58443904Y-72725000D01*
X58443904Y-72725000D02*
X58443904Y-72677381D01*
X58443904Y-72677381D02*
X58405809Y-72605952D01*
X58405809Y-72605952D02*
X58367714Y-72582143D01*
X58367714Y-72582143D02*
X58101047Y-72582143D01*
X58101047Y-72582143D02*
X58101047Y-72677381D01*
X58443904Y-72367857D02*
X57643904Y-72367857D01*
X57643904Y-72367857D02*
X58443904Y-72082143D01*
X58443904Y-72082143D02*
X57643904Y-72082143D01*
X58443904Y-71844047D02*
X57643904Y-71844047D01*
X57643904Y-71844047D02*
X57643904Y-71724999D01*
X57643904Y-71724999D02*
X57682000Y-71653571D01*
X57682000Y-71653571D02*
X57758190Y-71605952D01*
X57758190Y-71605952D02*
X57834380Y-71582142D01*
X57834380Y-71582142D02*
X57986761Y-71558333D01*
X57986761Y-71558333D02*
X58101047Y-71558333D01*
X58101047Y-71558333D02*
X58253428Y-71582142D01*
X58253428Y-71582142D02*
X58329619Y-71605952D01*
X58329619Y-71605952D02*
X58405809Y-71653571D01*
X58405809Y-71653571D02*
X58443904Y-71724999D01*
X58443904Y-71724999D02*
X58443904Y-71844047D01*
X78474857Y-72652380D02*
X78512952Y-72580952D01*
X78512952Y-72580952D02*
X78551047Y-72557142D01*
X78551047Y-72557142D02*
X78627238Y-72533333D01*
X78627238Y-72533333D02*
X78741523Y-72533333D01*
X78741523Y-72533333D02*
X78817714Y-72557142D01*
X78817714Y-72557142D02*
X78855809Y-72580952D01*
X78855809Y-72580952D02*
X78893904Y-72628571D01*
X78893904Y-72628571D02*
X78893904Y-72819047D01*
X78893904Y-72819047D02*
X78093904Y-72819047D01*
X78093904Y-72819047D02*
X78093904Y-72652380D01*
X78093904Y-72652380D02*
X78132000Y-72604761D01*
X78132000Y-72604761D02*
X78170095Y-72580952D01*
X78170095Y-72580952D02*
X78246285Y-72557142D01*
X78246285Y-72557142D02*
X78322476Y-72557142D01*
X78322476Y-72557142D02*
X78398666Y-72580952D01*
X78398666Y-72580952D02*
X78436761Y-72604761D01*
X78436761Y-72604761D02*
X78474857Y-72652380D01*
X78474857Y-72652380D02*
X78474857Y-72819047D01*
X78360571Y-72104761D02*
X78893904Y-72104761D01*
X78055809Y-72223809D02*
X78627238Y-72342856D01*
X78627238Y-72342856D02*
X78627238Y-72033333D01*
X65982714Y-92736219D02*
X66020809Y-92760028D01*
X66020809Y-92760028D02*
X66058904Y-92831457D01*
X66058904Y-92831457D02*
X66058904Y-92879076D01*
X66058904Y-92879076D02*
X66020809Y-92950504D01*
X66020809Y-92950504D02*
X65944619Y-92998123D01*
X65944619Y-92998123D02*
X65868428Y-93021933D01*
X65868428Y-93021933D02*
X65716047Y-93045742D01*
X65716047Y-93045742D02*
X65601761Y-93045742D01*
X65601761Y-93045742D02*
X65449380Y-93021933D01*
X65449380Y-93021933D02*
X65373190Y-92998123D01*
X65373190Y-92998123D02*
X65297000Y-92950504D01*
X65297000Y-92950504D02*
X65258904Y-92879076D01*
X65258904Y-92879076D02*
X65258904Y-92831457D01*
X65258904Y-92831457D02*
X65297000Y-92760028D01*
X65297000Y-92760028D02*
X65335095Y-92736219D01*
X65258904Y-92426695D02*
X65258904Y-92331457D01*
X65258904Y-92331457D02*
X65297000Y-92283838D01*
X65297000Y-92283838D02*
X65373190Y-92236219D01*
X65373190Y-92236219D02*
X65525571Y-92212409D01*
X65525571Y-92212409D02*
X65792238Y-92212409D01*
X65792238Y-92212409D02*
X65944619Y-92236219D01*
X65944619Y-92236219D02*
X66020809Y-92283838D01*
X66020809Y-92283838D02*
X66058904Y-92331457D01*
X66058904Y-92331457D02*
X66058904Y-92426695D01*
X66058904Y-92426695D02*
X66020809Y-92474314D01*
X66020809Y-92474314D02*
X65944619Y-92521933D01*
X65944619Y-92521933D02*
X65792238Y-92545742D01*
X65792238Y-92545742D02*
X65525571Y-92545742D01*
X65525571Y-92545742D02*
X65373190Y-92521933D01*
X65373190Y-92521933D02*
X65297000Y-92474314D01*
X65297000Y-92474314D02*
X65258904Y-92426695D01*
X66058904Y-91760028D02*
X66058904Y-91998123D01*
X66058904Y-91998123D02*
X65258904Y-91998123D01*
X66058904Y-91331456D02*
X66058904Y-91617170D01*
X66058904Y-91474313D02*
X65258904Y-91474313D01*
X65258904Y-91474313D02*
X65373190Y-91521932D01*
X65373190Y-91521932D02*
X65449380Y-91569551D01*
X65449380Y-91569551D02*
X65487476Y-91617170D01*
X80917857Y-92590980D02*
X80955952Y-92519552D01*
X80955952Y-92519552D02*
X80994047Y-92495742D01*
X80994047Y-92495742D02*
X81070238Y-92471933D01*
X81070238Y-92471933D02*
X81184523Y-92471933D01*
X81184523Y-92471933D02*
X81260714Y-92495742D01*
X81260714Y-92495742D02*
X81298809Y-92519552D01*
X81298809Y-92519552D02*
X81336904Y-92567171D01*
X81336904Y-92567171D02*
X81336904Y-92757647D01*
X81336904Y-92757647D02*
X80536904Y-92757647D01*
X80536904Y-92757647D02*
X80536904Y-92590980D01*
X80536904Y-92590980D02*
X80575000Y-92543361D01*
X80575000Y-92543361D02*
X80613095Y-92519552D01*
X80613095Y-92519552D02*
X80689285Y-92495742D01*
X80689285Y-92495742D02*
X80765476Y-92495742D01*
X80765476Y-92495742D02*
X80841666Y-92519552D01*
X80841666Y-92519552D02*
X80879761Y-92543361D01*
X80879761Y-92543361D02*
X80917857Y-92590980D01*
X80917857Y-92590980D02*
X80917857Y-92757647D01*
X80536904Y-92043361D02*
X80536904Y-92138599D01*
X80536904Y-92138599D02*
X80575000Y-92186218D01*
X80575000Y-92186218D02*
X80613095Y-92210028D01*
X80613095Y-92210028D02*
X80727380Y-92257647D01*
X80727380Y-92257647D02*
X80879761Y-92281456D01*
X80879761Y-92281456D02*
X81184523Y-92281456D01*
X81184523Y-92281456D02*
X81260714Y-92257647D01*
X81260714Y-92257647D02*
X81298809Y-92233837D01*
X81298809Y-92233837D02*
X81336904Y-92186218D01*
X81336904Y-92186218D02*
X81336904Y-92090980D01*
X81336904Y-92090980D02*
X81298809Y-92043361D01*
X81298809Y-92043361D02*
X81260714Y-92019552D01*
X81260714Y-92019552D02*
X81184523Y-91995742D01*
X81184523Y-91995742D02*
X80994047Y-91995742D01*
X80994047Y-91995742D02*
X80917857Y-92019552D01*
X80917857Y-92019552D02*
X80879761Y-92043361D01*
X80879761Y-92043361D02*
X80841666Y-92090980D01*
X80841666Y-92090980D02*
X80841666Y-92186218D01*
X80841666Y-92186218D02*
X80879761Y-92233837D01*
X80879761Y-92233837D02*
X80917857Y-92257647D01*
X80917857Y-92257647D02*
X80994047Y-92281456D01*
X53343904Y-72771428D02*
X53343904Y-73009523D01*
X53343904Y-73009523D02*
X52543904Y-73009523D01*
X52924857Y-72604761D02*
X52924857Y-72438094D01*
X53343904Y-72366666D02*
X53343904Y-72604761D01*
X53343904Y-72604761D02*
X52543904Y-72604761D01*
X52543904Y-72604761D02*
X52543904Y-72366666D01*
X53343904Y-72152380D02*
X52543904Y-72152380D01*
X52543904Y-72152380D02*
X52543904Y-72033332D01*
X52543904Y-72033332D02*
X52582000Y-71961904D01*
X52582000Y-71961904D02*
X52658190Y-71914285D01*
X52658190Y-71914285D02*
X52734380Y-71890475D01*
X52734380Y-71890475D02*
X52886761Y-71866666D01*
X52886761Y-71866666D02*
X53001047Y-71866666D01*
X53001047Y-71866666D02*
X53153428Y-71890475D01*
X53153428Y-71890475D02*
X53229619Y-71914285D01*
X53229619Y-71914285D02*
X53305809Y-71961904D01*
X53305809Y-71961904D02*
X53343904Y-72033332D01*
X53343904Y-72033332D02*
X53343904Y-72152380D01*
X60178904Y-92720765D02*
X60978904Y-92554099D01*
X60978904Y-92554099D02*
X60178904Y-92387432D01*
X60902714Y-91935052D02*
X60940809Y-91958861D01*
X60940809Y-91958861D02*
X60978904Y-92030290D01*
X60978904Y-92030290D02*
X60978904Y-92077909D01*
X60978904Y-92077909D02*
X60940809Y-92149337D01*
X60940809Y-92149337D02*
X60864619Y-92196956D01*
X60864619Y-92196956D02*
X60788428Y-92220766D01*
X60788428Y-92220766D02*
X60636047Y-92244575D01*
X60636047Y-92244575D02*
X60521761Y-92244575D01*
X60521761Y-92244575D02*
X60369380Y-92220766D01*
X60369380Y-92220766D02*
X60293190Y-92196956D01*
X60293190Y-92196956D02*
X60217000Y-92149337D01*
X60217000Y-92149337D02*
X60178904Y-92077909D01*
X60178904Y-92077909D02*
X60178904Y-92030290D01*
X60178904Y-92030290D02*
X60217000Y-91958861D01*
X60217000Y-91958861D02*
X60255095Y-91935052D01*
X60902714Y-91435052D02*
X60940809Y-91458861D01*
X60940809Y-91458861D02*
X60978904Y-91530290D01*
X60978904Y-91530290D02*
X60978904Y-91577909D01*
X60978904Y-91577909D02*
X60940809Y-91649337D01*
X60940809Y-91649337D02*
X60864619Y-91696956D01*
X60864619Y-91696956D02*
X60788428Y-91720766D01*
X60788428Y-91720766D02*
X60636047Y-91744575D01*
X60636047Y-91744575D02*
X60521761Y-91744575D01*
X60521761Y-91744575D02*
X60369380Y-91720766D01*
X60369380Y-91720766D02*
X60293190Y-91696956D01*
X60293190Y-91696956D02*
X60217000Y-91649337D01*
X60217000Y-91649337D02*
X60178904Y-91577909D01*
X60178904Y-91577909D02*
X60178904Y-91530290D01*
X60178904Y-91530290D02*
X60217000Y-91458861D01*
X60217000Y-91458861D02*
X60255095Y-91435052D01*
X73768904Y-72730952D02*
X73387952Y-72897618D01*
X73768904Y-73016666D02*
X72968904Y-73016666D01*
X72968904Y-73016666D02*
X72968904Y-72826190D01*
X72968904Y-72826190D02*
X73007000Y-72778571D01*
X73007000Y-72778571D02*
X73045095Y-72754761D01*
X73045095Y-72754761D02*
X73121285Y-72730952D01*
X73121285Y-72730952D02*
X73235571Y-72730952D01*
X73235571Y-72730952D02*
X73311761Y-72754761D01*
X73311761Y-72754761D02*
X73349857Y-72778571D01*
X73349857Y-72778571D02*
X73387952Y-72826190D01*
X73387952Y-72826190D02*
X73387952Y-73016666D01*
X72968904Y-72421428D02*
X72968904Y-72326190D01*
X72968904Y-72326190D02*
X73007000Y-72278571D01*
X73007000Y-72278571D02*
X73083190Y-72230952D01*
X73083190Y-72230952D02*
X73235571Y-72207142D01*
X73235571Y-72207142D02*
X73502238Y-72207142D01*
X73502238Y-72207142D02*
X73654619Y-72230952D01*
X73654619Y-72230952D02*
X73730809Y-72278571D01*
X73730809Y-72278571D02*
X73768904Y-72326190D01*
X73768904Y-72326190D02*
X73768904Y-72421428D01*
X73768904Y-72421428D02*
X73730809Y-72469047D01*
X73730809Y-72469047D02*
X73654619Y-72516666D01*
X73654619Y-72516666D02*
X73502238Y-72540475D01*
X73502238Y-72540475D02*
X73235571Y-72540475D01*
X73235571Y-72540475D02*
X73083190Y-72516666D01*
X73083190Y-72516666D02*
X73007000Y-72469047D01*
X73007000Y-72469047D02*
X72968904Y-72421428D01*
X72968904Y-72040475D02*
X73768904Y-71921427D01*
X73768904Y-71921427D02*
X73197476Y-71826189D01*
X73197476Y-71826189D02*
X73768904Y-71730951D01*
X73768904Y-71730951D02*
X72968904Y-71611904D01*
X73045095Y-71445236D02*
X73007000Y-71421427D01*
X73007000Y-71421427D02*
X72968904Y-71373808D01*
X72968904Y-71373808D02*
X72968904Y-71254760D01*
X72968904Y-71254760D02*
X73007000Y-71207141D01*
X73007000Y-71207141D02*
X73045095Y-71183332D01*
X73045095Y-71183332D02*
X73121285Y-71159522D01*
X73121285Y-71159522D02*
X73197476Y-71159522D01*
X73197476Y-71159522D02*
X73311761Y-71183332D01*
X73311761Y-71183332D02*
X73768904Y-71469046D01*
X73768904Y-71469046D02*
X73768904Y-71159522D01*
X63460714Y-92786219D02*
X63498809Y-92810028D01*
X63498809Y-92810028D02*
X63536904Y-92881457D01*
X63536904Y-92881457D02*
X63536904Y-92929076D01*
X63536904Y-92929076D02*
X63498809Y-93000504D01*
X63498809Y-93000504D02*
X63422619Y-93048123D01*
X63422619Y-93048123D02*
X63346428Y-93071933D01*
X63346428Y-93071933D02*
X63194047Y-93095742D01*
X63194047Y-93095742D02*
X63079761Y-93095742D01*
X63079761Y-93095742D02*
X62927380Y-93071933D01*
X62927380Y-93071933D02*
X62851190Y-93048123D01*
X62851190Y-93048123D02*
X62775000Y-93000504D01*
X62775000Y-93000504D02*
X62736904Y-92929076D01*
X62736904Y-92929076D02*
X62736904Y-92881457D01*
X62736904Y-92881457D02*
X62775000Y-92810028D01*
X62775000Y-92810028D02*
X62813095Y-92786219D01*
X62736904Y-92476695D02*
X62736904Y-92381457D01*
X62736904Y-92381457D02*
X62775000Y-92333838D01*
X62775000Y-92333838D02*
X62851190Y-92286219D01*
X62851190Y-92286219D02*
X63003571Y-92262409D01*
X63003571Y-92262409D02*
X63270238Y-92262409D01*
X63270238Y-92262409D02*
X63422619Y-92286219D01*
X63422619Y-92286219D02*
X63498809Y-92333838D01*
X63498809Y-92333838D02*
X63536904Y-92381457D01*
X63536904Y-92381457D02*
X63536904Y-92476695D01*
X63536904Y-92476695D02*
X63498809Y-92524314D01*
X63498809Y-92524314D02*
X63422619Y-92571933D01*
X63422619Y-92571933D02*
X63270238Y-92595742D01*
X63270238Y-92595742D02*
X63003571Y-92595742D01*
X63003571Y-92595742D02*
X62851190Y-92571933D01*
X62851190Y-92571933D02*
X62775000Y-92524314D01*
X62775000Y-92524314D02*
X62736904Y-92476695D01*
X63536904Y-91810028D02*
X63536904Y-92048123D01*
X63536904Y-92048123D02*
X62736904Y-92048123D01*
X62736904Y-91548123D02*
X62736904Y-91500504D01*
X62736904Y-91500504D02*
X62775000Y-91452885D01*
X62775000Y-91452885D02*
X62813095Y-91429075D01*
X62813095Y-91429075D02*
X62889285Y-91405266D01*
X62889285Y-91405266D02*
X63041666Y-91381456D01*
X63041666Y-91381456D02*
X63232142Y-91381456D01*
X63232142Y-91381456D02*
X63384523Y-91405266D01*
X63384523Y-91405266D02*
X63460714Y-91429075D01*
X63460714Y-91429075D02*
X63498809Y-91452885D01*
X63498809Y-91452885D02*
X63536904Y-91500504D01*
X63536904Y-91500504D02*
X63536904Y-91548123D01*
X63536904Y-91548123D02*
X63498809Y-91595742D01*
X63498809Y-91595742D02*
X63460714Y-91619551D01*
X63460714Y-91619551D02*
X63384523Y-91643361D01*
X63384523Y-91643361D02*
X63232142Y-91667170D01*
X63232142Y-91667170D02*
X63041666Y-91667170D01*
X63041666Y-91667170D02*
X62889285Y-91643361D01*
X62889285Y-91643361D02*
X62813095Y-91619551D01*
X62813095Y-91619551D02*
X62775000Y-91595742D01*
X62775000Y-91595742D02*
X62736904Y-91548123D01*
X78367857Y-92490980D02*
X78405952Y-92419552D01*
X78405952Y-92419552D02*
X78444047Y-92395742D01*
X78444047Y-92395742D02*
X78520238Y-92371933D01*
X78520238Y-92371933D02*
X78634523Y-92371933D01*
X78634523Y-92371933D02*
X78710714Y-92395742D01*
X78710714Y-92395742D02*
X78748809Y-92419552D01*
X78748809Y-92419552D02*
X78786904Y-92467171D01*
X78786904Y-92467171D02*
X78786904Y-92657647D01*
X78786904Y-92657647D02*
X77986904Y-92657647D01*
X77986904Y-92657647D02*
X77986904Y-92490980D01*
X77986904Y-92490980D02*
X78025000Y-92443361D01*
X78025000Y-92443361D02*
X78063095Y-92419552D01*
X78063095Y-92419552D02*
X78139285Y-92395742D01*
X78139285Y-92395742D02*
X78215476Y-92395742D01*
X78215476Y-92395742D02*
X78291666Y-92419552D01*
X78291666Y-92419552D02*
X78329761Y-92443361D01*
X78329761Y-92443361D02*
X78367857Y-92490980D01*
X78367857Y-92490980D02*
X78367857Y-92657647D01*
X78063095Y-92181456D02*
X78025000Y-92157647D01*
X78025000Y-92157647D02*
X77986904Y-92110028D01*
X77986904Y-92110028D02*
X77986904Y-91990980D01*
X77986904Y-91990980D02*
X78025000Y-91943361D01*
X78025000Y-91943361D02*
X78063095Y-91919552D01*
X78063095Y-91919552D02*
X78139285Y-91895742D01*
X78139285Y-91895742D02*
X78215476Y-91895742D01*
X78215476Y-91895742D02*
X78329761Y-91919552D01*
X78329761Y-91919552D02*
X78786904Y-92205266D01*
X78786904Y-92205266D02*
X78786904Y-91895742D01*
X76118904Y-72730952D02*
X75737952Y-72897618D01*
X76118904Y-73016666D02*
X75318904Y-73016666D01*
X75318904Y-73016666D02*
X75318904Y-72826190D01*
X75318904Y-72826190D02*
X75357000Y-72778571D01*
X75357000Y-72778571D02*
X75395095Y-72754761D01*
X75395095Y-72754761D02*
X75471285Y-72730952D01*
X75471285Y-72730952D02*
X75585571Y-72730952D01*
X75585571Y-72730952D02*
X75661761Y-72754761D01*
X75661761Y-72754761D02*
X75699857Y-72778571D01*
X75699857Y-72778571D02*
X75737952Y-72826190D01*
X75737952Y-72826190D02*
X75737952Y-73016666D01*
X75318904Y-72421428D02*
X75318904Y-72326190D01*
X75318904Y-72326190D02*
X75357000Y-72278571D01*
X75357000Y-72278571D02*
X75433190Y-72230952D01*
X75433190Y-72230952D02*
X75585571Y-72207142D01*
X75585571Y-72207142D02*
X75852238Y-72207142D01*
X75852238Y-72207142D02*
X76004619Y-72230952D01*
X76004619Y-72230952D02*
X76080809Y-72278571D01*
X76080809Y-72278571D02*
X76118904Y-72326190D01*
X76118904Y-72326190D02*
X76118904Y-72421428D01*
X76118904Y-72421428D02*
X76080809Y-72469047D01*
X76080809Y-72469047D02*
X76004619Y-72516666D01*
X76004619Y-72516666D02*
X75852238Y-72540475D01*
X75852238Y-72540475D02*
X75585571Y-72540475D01*
X75585571Y-72540475D02*
X75433190Y-72516666D01*
X75433190Y-72516666D02*
X75357000Y-72469047D01*
X75357000Y-72469047D02*
X75318904Y-72421428D01*
X75318904Y-72040475D02*
X76118904Y-71921427D01*
X76118904Y-71921427D02*
X75547476Y-71826189D01*
X75547476Y-71826189D02*
X76118904Y-71730951D01*
X76118904Y-71730951D02*
X75318904Y-71611904D01*
X75318904Y-71469046D02*
X75318904Y-71159522D01*
X75318904Y-71159522D02*
X75623666Y-71326189D01*
X75623666Y-71326189D02*
X75623666Y-71254760D01*
X75623666Y-71254760D02*
X75661761Y-71207141D01*
X75661761Y-71207141D02*
X75699857Y-71183332D01*
X75699857Y-71183332D02*
X75776047Y-71159522D01*
X75776047Y-71159522D02*
X75966523Y-71159522D01*
X75966523Y-71159522D02*
X76042714Y-71183332D01*
X76042714Y-71183332D02*
X76080809Y-71207141D01*
X76080809Y-71207141D02*
X76118904Y-71254760D01*
X76118904Y-71254760D02*
X76118904Y-71397617D01*
X76118904Y-71397617D02*
X76080809Y-71445236D01*
X76080809Y-71445236D02*
X76042714Y-71469046D01*
X53358904Y-92399338D02*
X52977952Y-92566004D01*
X53358904Y-92685052D02*
X52558904Y-92685052D01*
X52558904Y-92685052D02*
X52558904Y-92494576D01*
X52558904Y-92494576D02*
X52597000Y-92446957D01*
X52597000Y-92446957D02*
X52635095Y-92423147D01*
X52635095Y-92423147D02*
X52711285Y-92399338D01*
X52711285Y-92399338D02*
X52825571Y-92399338D01*
X52825571Y-92399338D02*
X52901761Y-92423147D01*
X52901761Y-92423147D02*
X52939857Y-92446957D01*
X52939857Y-92446957D02*
X52977952Y-92494576D01*
X52977952Y-92494576D02*
X52977952Y-92685052D01*
X53130333Y-92208861D02*
X53130333Y-91970766D01*
X53358904Y-92256480D02*
X52558904Y-92089814D01*
X52558904Y-92089814D02*
X53358904Y-91923147D01*
X52558904Y-91804100D02*
X53358904Y-91685052D01*
X53358904Y-91685052D02*
X52787476Y-91589814D01*
X52787476Y-91589814D02*
X53358904Y-91494576D01*
X53358904Y-91494576D02*
X52558904Y-91375529D01*
X65930809Y-72920237D02*
X65968904Y-72848809D01*
X65968904Y-72848809D02*
X65968904Y-72729761D01*
X65968904Y-72729761D02*
X65930809Y-72682142D01*
X65930809Y-72682142D02*
X65892714Y-72658333D01*
X65892714Y-72658333D02*
X65816523Y-72634523D01*
X65816523Y-72634523D02*
X65740333Y-72634523D01*
X65740333Y-72634523D02*
X65664142Y-72658333D01*
X65664142Y-72658333D02*
X65626047Y-72682142D01*
X65626047Y-72682142D02*
X65587952Y-72729761D01*
X65587952Y-72729761D02*
X65549857Y-72824999D01*
X65549857Y-72824999D02*
X65511761Y-72872618D01*
X65511761Y-72872618D02*
X65473666Y-72896428D01*
X65473666Y-72896428D02*
X65397476Y-72920237D01*
X65397476Y-72920237D02*
X65321285Y-72920237D01*
X65321285Y-72920237D02*
X65245095Y-72896428D01*
X65245095Y-72896428D02*
X65207000Y-72872618D01*
X65207000Y-72872618D02*
X65168904Y-72824999D01*
X65168904Y-72824999D02*
X65168904Y-72705952D01*
X65168904Y-72705952D02*
X65207000Y-72634523D01*
X65892714Y-72134524D02*
X65930809Y-72158333D01*
X65930809Y-72158333D02*
X65968904Y-72229762D01*
X65968904Y-72229762D02*
X65968904Y-72277381D01*
X65968904Y-72277381D02*
X65930809Y-72348809D01*
X65930809Y-72348809D02*
X65854619Y-72396428D01*
X65854619Y-72396428D02*
X65778428Y-72420238D01*
X65778428Y-72420238D02*
X65626047Y-72444047D01*
X65626047Y-72444047D02*
X65511761Y-72444047D01*
X65511761Y-72444047D02*
X65359380Y-72420238D01*
X65359380Y-72420238D02*
X65283190Y-72396428D01*
X65283190Y-72396428D02*
X65207000Y-72348809D01*
X65207000Y-72348809D02*
X65168904Y-72277381D01*
X65168904Y-72277381D02*
X65168904Y-72229762D01*
X65168904Y-72229762D02*
X65207000Y-72158333D01*
X65207000Y-72158333D02*
X65245095Y-72134524D01*
X65968904Y-71682143D02*
X65968904Y-71920238D01*
X65968904Y-71920238D02*
X65168904Y-71920238D01*
X71110714Y-92886219D02*
X71148809Y-92910028D01*
X71148809Y-92910028D02*
X71186904Y-92981457D01*
X71186904Y-92981457D02*
X71186904Y-93029076D01*
X71186904Y-93029076D02*
X71148809Y-93100504D01*
X71148809Y-93100504D02*
X71072619Y-93148123D01*
X71072619Y-93148123D02*
X70996428Y-93171933D01*
X70996428Y-93171933D02*
X70844047Y-93195742D01*
X70844047Y-93195742D02*
X70729761Y-93195742D01*
X70729761Y-93195742D02*
X70577380Y-93171933D01*
X70577380Y-93171933D02*
X70501190Y-93148123D01*
X70501190Y-93148123D02*
X70425000Y-93100504D01*
X70425000Y-93100504D02*
X70386904Y-93029076D01*
X70386904Y-93029076D02*
X70386904Y-92981457D01*
X70386904Y-92981457D02*
X70425000Y-92910028D01*
X70425000Y-92910028D02*
X70463095Y-92886219D01*
X70386904Y-92576695D02*
X70386904Y-92481457D01*
X70386904Y-92481457D02*
X70425000Y-92433838D01*
X70425000Y-92433838D02*
X70501190Y-92386219D01*
X70501190Y-92386219D02*
X70653571Y-92362409D01*
X70653571Y-92362409D02*
X70920238Y-92362409D01*
X70920238Y-92362409D02*
X71072619Y-92386219D01*
X71072619Y-92386219D02*
X71148809Y-92433838D01*
X71148809Y-92433838D02*
X71186904Y-92481457D01*
X71186904Y-92481457D02*
X71186904Y-92576695D01*
X71186904Y-92576695D02*
X71148809Y-92624314D01*
X71148809Y-92624314D02*
X71072619Y-92671933D01*
X71072619Y-92671933D02*
X70920238Y-92695742D01*
X70920238Y-92695742D02*
X70653571Y-92695742D01*
X70653571Y-92695742D02*
X70501190Y-92671933D01*
X70501190Y-92671933D02*
X70425000Y-92624314D01*
X70425000Y-92624314D02*
X70386904Y-92576695D01*
X71186904Y-91910028D02*
X71186904Y-92148123D01*
X71186904Y-92148123D02*
X70386904Y-92148123D01*
X70386904Y-91790980D02*
X70386904Y-91481456D01*
X70386904Y-91481456D02*
X70691666Y-91648123D01*
X70691666Y-91648123D02*
X70691666Y-91576694D01*
X70691666Y-91576694D02*
X70729761Y-91529075D01*
X70729761Y-91529075D02*
X70767857Y-91505266D01*
X70767857Y-91505266D02*
X70844047Y-91481456D01*
X70844047Y-91481456D02*
X71034523Y-91481456D01*
X71034523Y-91481456D02*
X71110714Y-91505266D01*
X71110714Y-91505266D02*
X71148809Y-91529075D01*
X71148809Y-91529075D02*
X71186904Y-91576694D01*
X71186904Y-91576694D02*
X71186904Y-91719551D01*
X71186904Y-91719551D02*
X71148809Y-91767170D01*
X71148809Y-91767170D02*
X71110714Y-91790980D01*
X55968904Y-72924999D02*
X55168904Y-72924999D01*
X55168904Y-72924999D02*
X55168904Y-72805951D01*
X55168904Y-72805951D02*
X55207000Y-72734523D01*
X55207000Y-72734523D02*
X55283190Y-72686904D01*
X55283190Y-72686904D02*
X55359380Y-72663094D01*
X55359380Y-72663094D02*
X55511761Y-72639285D01*
X55511761Y-72639285D02*
X55626047Y-72639285D01*
X55626047Y-72639285D02*
X55778428Y-72663094D01*
X55778428Y-72663094D02*
X55854619Y-72686904D01*
X55854619Y-72686904D02*
X55930809Y-72734523D01*
X55930809Y-72734523D02*
X55968904Y-72805951D01*
X55968904Y-72805951D02*
X55968904Y-72924999D01*
X55740333Y-72448808D02*
X55740333Y-72210713D01*
X55968904Y-72496427D02*
X55168904Y-72329761D01*
X55168904Y-72329761D02*
X55968904Y-72163094D01*
X55168904Y-72067856D02*
X55168904Y-71782142D01*
X55968904Y-71924999D02*
X55168904Y-71924999D01*
X55740333Y-71639285D02*
X55740333Y-71401190D01*
X55968904Y-71686904D02*
X55168904Y-71520238D01*
X55168904Y-71520238D02*
X55968904Y-71353571D01*
X73610714Y-92836219D02*
X73648809Y-92860028D01*
X73648809Y-92860028D02*
X73686904Y-92931457D01*
X73686904Y-92931457D02*
X73686904Y-92979076D01*
X73686904Y-92979076D02*
X73648809Y-93050504D01*
X73648809Y-93050504D02*
X73572619Y-93098123D01*
X73572619Y-93098123D02*
X73496428Y-93121933D01*
X73496428Y-93121933D02*
X73344047Y-93145742D01*
X73344047Y-93145742D02*
X73229761Y-93145742D01*
X73229761Y-93145742D02*
X73077380Y-93121933D01*
X73077380Y-93121933D02*
X73001190Y-93098123D01*
X73001190Y-93098123D02*
X72925000Y-93050504D01*
X72925000Y-93050504D02*
X72886904Y-92979076D01*
X72886904Y-92979076D02*
X72886904Y-92931457D01*
X72886904Y-92931457D02*
X72925000Y-92860028D01*
X72925000Y-92860028D02*
X72963095Y-92836219D01*
X72886904Y-92526695D02*
X72886904Y-92431457D01*
X72886904Y-92431457D02*
X72925000Y-92383838D01*
X72925000Y-92383838D02*
X73001190Y-92336219D01*
X73001190Y-92336219D02*
X73153571Y-92312409D01*
X73153571Y-92312409D02*
X73420238Y-92312409D01*
X73420238Y-92312409D02*
X73572619Y-92336219D01*
X73572619Y-92336219D02*
X73648809Y-92383838D01*
X73648809Y-92383838D02*
X73686904Y-92431457D01*
X73686904Y-92431457D02*
X73686904Y-92526695D01*
X73686904Y-92526695D02*
X73648809Y-92574314D01*
X73648809Y-92574314D02*
X73572619Y-92621933D01*
X73572619Y-92621933D02*
X73420238Y-92645742D01*
X73420238Y-92645742D02*
X73153571Y-92645742D01*
X73153571Y-92645742D02*
X73001190Y-92621933D01*
X73001190Y-92621933D02*
X72925000Y-92574314D01*
X72925000Y-92574314D02*
X72886904Y-92526695D01*
X73686904Y-91860028D02*
X73686904Y-92098123D01*
X73686904Y-92098123D02*
X72886904Y-92098123D01*
X73153571Y-91479075D02*
X73686904Y-91479075D01*
X72848809Y-91598123D02*
X73420238Y-91717170D01*
X73420238Y-91717170D02*
X73420238Y-91407647D01*
X55137000Y-92435052D02*
X55098904Y-92482671D01*
X55098904Y-92482671D02*
X55098904Y-92554100D01*
X55098904Y-92554100D02*
X55137000Y-92625528D01*
X55137000Y-92625528D02*
X55213190Y-92673147D01*
X55213190Y-92673147D02*
X55289380Y-92696957D01*
X55289380Y-92696957D02*
X55441761Y-92720766D01*
X55441761Y-92720766D02*
X55556047Y-92720766D01*
X55556047Y-92720766D02*
X55708428Y-92696957D01*
X55708428Y-92696957D02*
X55784619Y-92673147D01*
X55784619Y-92673147D02*
X55860809Y-92625528D01*
X55860809Y-92625528D02*
X55898904Y-92554100D01*
X55898904Y-92554100D02*
X55898904Y-92506481D01*
X55898904Y-92506481D02*
X55860809Y-92435052D01*
X55860809Y-92435052D02*
X55822714Y-92411243D01*
X55822714Y-92411243D02*
X55556047Y-92411243D01*
X55556047Y-92411243D02*
X55556047Y-92506481D01*
X55898904Y-92196957D02*
X55098904Y-92196957D01*
X55098904Y-92196957D02*
X55898904Y-91911243D01*
X55898904Y-91911243D02*
X55098904Y-91911243D01*
X55898904Y-91673147D02*
X55098904Y-91673147D01*
X55098904Y-91673147D02*
X55098904Y-91554099D01*
X55098904Y-91554099D02*
X55137000Y-91482671D01*
X55137000Y-91482671D02*
X55213190Y-91435052D01*
X55213190Y-91435052D02*
X55289380Y-91411242D01*
X55289380Y-91411242D02*
X55441761Y-91387433D01*
X55441761Y-91387433D02*
X55556047Y-91387433D01*
X55556047Y-91387433D02*
X55708428Y-91411242D01*
X55708428Y-91411242D02*
X55784619Y-91435052D01*
X55784619Y-91435052D02*
X55860809Y-91482671D01*
X55860809Y-91482671D02*
X55898904Y-91554099D01*
X55898904Y-91554099D02*
X55898904Y-91673147D01*
X68522714Y-92786219D02*
X68560809Y-92810028D01*
X68560809Y-92810028D02*
X68598904Y-92881457D01*
X68598904Y-92881457D02*
X68598904Y-92929076D01*
X68598904Y-92929076D02*
X68560809Y-93000504D01*
X68560809Y-93000504D02*
X68484619Y-93048123D01*
X68484619Y-93048123D02*
X68408428Y-93071933D01*
X68408428Y-93071933D02*
X68256047Y-93095742D01*
X68256047Y-93095742D02*
X68141761Y-93095742D01*
X68141761Y-93095742D02*
X67989380Y-93071933D01*
X67989380Y-93071933D02*
X67913190Y-93048123D01*
X67913190Y-93048123D02*
X67837000Y-93000504D01*
X67837000Y-93000504D02*
X67798904Y-92929076D01*
X67798904Y-92929076D02*
X67798904Y-92881457D01*
X67798904Y-92881457D02*
X67837000Y-92810028D01*
X67837000Y-92810028D02*
X67875095Y-92786219D01*
X67798904Y-92476695D02*
X67798904Y-92381457D01*
X67798904Y-92381457D02*
X67837000Y-92333838D01*
X67837000Y-92333838D02*
X67913190Y-92286219D01*
X67913190Y-92286219D02*
X68065571Y-92262409D01*
X68065571Y-92262409D02*
X68332238Y-92262409D01*
X68332238Y-92262409D02*
X68484619Y-92286219D01*
X68484619Y-92286219D02*
X68560809Y-92333838D01*
X68560809Y-92333838D02*
X68598904Y-92381457D01*
X68598904Y-92381457D02*
X68598904Y-92476695D01*
X68598904Y-92476695D02*
X68560809Y-92524314D01*
X68560809Y-92524314D02*
X68484619Y-92571933D01*
X68484619Y-92571933D02*
X68332238Y-92595742D01*
X68332238Y-92595742D02*
X68065571Y-92595742D01*
X68065571Y-92595742D02*
X67913190Y-92571933D01*
X67913190Y-92571933D02*
X67837000Y-92524314D01*
X67837000Y-92524314D02*
X67798904Y-92476695D01*
X68598904Y-91810028D02*
X68598904Y-92048123D01*
X68598904Y-92048123D02*
X67798904Y-92048123D01*
X67875095Y-91667170D02*
X67837000Y-91643361D01*
X67837000Y-91643361D02*
X67798904Y-91595742D01*
X67798904Y-91595742D02*
X67798904Y-91476694D01*
X67798904Y-91476694D02*
X67837000Y-91429075D01*
X67837000Y-91429075D02*
X67875095Y-91405266D01*
X67875095Y-91405266D02*
X67951285Y-91381456D01*
X67951285Y-91381456D02*
X68027476Y-91381456D01*
X68027476Y-91381456D02*
X68141761Y-91405266D01*
X68141761Y-91405266D02*
X68598904Y-91690980D01*
X68598904Y-91690980D02*
X68598904Y-91381456D01*
X60082000Y-72555952D02*
X60043904Y-72603571D01*
X60043904Y-72603571D02*
X60043904Y-72675000D01*
X60043904Y-72675000D02*
X60082000Y-72746428D01*
X60082000Y-72746428D02*
X60158190Y-72794047D01*
X60158190Y-72794047D02*
X60234380Y-72817857D01*
X60234380Y-72817857D02*
X60386761Y-72841666D01*
X60386761Y-72841666D02*
X60501047Y-72841666D01*
X60501047Y-72841666D02*
X60653428Y-72817857D01*
X60653428Y-72817857D02*
X60729619Y-72794047D01*
X60729619Y-72794047D02*
X60805809Y-72746428D01*
X60805809Y-72746428D02*
X60843904Y-72675000D01*
X60843904Y-72675000D02*
X60843904Y-72627381D01*
X60843904Y-72627381D02*
X60805809Y-72555952D01*
X60805809Y-72555952D02*
X60767714Y-72532143D01*
X60767714Y-72532143D02*
X60501047Y-72532143D01*
X60501047Y-72532143D02*
X60501047Y-72627381D01*
X60843904Y-72317857D02*
X60043904Y-72317857D01*
X60043904Y-72317857D02*
X60843904Y-72032143D01*
X60843904Y-72032143D02*
X60043904Y-72032143D01*
X60843904Y-71794047D02*
X60043904Y-71794047D01*
X60043904Y-71794047D02*
X60043904Y-71674999D01*
X60043904Y-71674999D02*
X60082000Y-71603571D01*
X60082000Y-71603571D02*
X60158190Y-71555952D01*
X60158190Y-71555952D02*
X60234380Y-71532142D01*
X60234380Y-71532142D02*
X60386761Y-71508333D01*
X60386761Y-71508333D02*
X60501047Y-71508333D01*
X60501047Y-71508333D02*
X60653428Y-71532142D01*
X60653428Y-71532142D02*
X60729619Y-71555952D01*
X60729619Y-71555952D02*
X60805809Y-71603571D01*
X60805809Y-71603571D02*
X60843904Y-71674999D01*
X60843904Y-71674999D02*
X60843904Y-71794047D01*
X58502404Y-92327909D02*
X58121452Y-92494575D01*
X58502404Y-92613623D02*
X57702404Y-92613623D01*
X57702404Y-92613623D02*
X57702404Y-92423147D01*
X57702404Y-92423147D02*
X57740500Y-92375528D01*
X57740500Y-92375528D02*
X57778595Y-92351718D01*
X57778595Y-92351718D02*
X57854785Y-92327909D01*
X57854785Y-92327909D02*
X57969071Y-92327909D01*
X57969071Y-92327909D02*
X58045261Y-92351718D01*
X58045261Y-92351718D02*
X58083357Y-92375528D01*
X58083357Y-92375528D02*
X58121452Y-92423147D01*
X58121452Y-92423147D02*
X58121452Y-92613623D01*
X58464309Y-92137432D02*
X58502404Y-92066004D01*
X58502404Y-92066004D02*
X58502404Y-91946956D01*
X58502404Y-91946956D02*
X58464309Y-91899337D01*
X58464309Y-91899337D02*
X58426214Y-91875528D01*
X58426214Y-91875528D02*
X58350023Y-91851718D01*
X58350023Y-91851718D02*
X58273833Y-91851718D01*
X58273833Y-91851718D02*
X58197642Y-91875528D01*
X58197642Y-91875528D02*
X58159547Y-91899337D01*
X58159547Y-91899337D02*
X58121452Y-91946956D01*
X58121452Y-91946956D02*
X58083357Y-92042194D01*
X58083357Y-92042194D02*
X58045261Y-92089813D01*
X58045261Y-92089813D02*
X58007166Y-92113623D01*
X58007166Y-92113623D02*
X57930976Y-92137432D01*
X57930976Y-92137432D02*
X57854785Y-92137432D01*
X57854785Y-92137432D02*
X57778595Y-92113623D01*
X57778595Y-92113623D02*
X57740500Y-92089813D01*
X57740500Y-92089813D02*
X57702404Y-92042194D01*
X57702404Y-92042194D02*
X57702404Y-91923147D01*
X57702404Y-91923147D02*
X57740500Y-91851718D01*
X57702404Y-91708861D02*
X57702404Y-91423147D01*
X58502404Y-91566004D02*
X57702404Y-91566004D01*
X80899857Y-72827380D02*
X80937952Y-72755952D01*
X80937952Y-72755952D02*
X80976047Y-72732142D01*
X80976047Y-72732142D02*
X81052238Y-72708333D01*
X81052238Y-72708333D02*
X81166523Y-72708333D01*
X81166523Y-72708333D02*
X81242714Y-72732142D01*
X81242714Y-72732142D02*
X81280809Y-72755952D01*
X81280809Y-72755952D02*
X81318904Y-72803571D01*
X81318904Y-72803571D02*
X81318904Y-72994047D01*
X81318904Y-72994047D02*
X80518904Y-72994047D01*
X80518904Y-72994047D02*
X80518904Y-72827380D01*
X80518904Y-72827380D02*
X80557000Y-72779761D01*
X80557000Y-72779761D02*
X80595095Y-72755952D01*
X80595095Y-72755952D02*
X80671285Y-72732142D01*
X80671285Y-72732142D02*
X80747476Y-72732142D01*
X80747476Y-72732142D02*
X80823666Y-72755952D01*
X80823666Y-72755952D02*
X80861761Y-72779761D01*
X80861761Y-72779761D02*
X80899857Y-72827380D01*
X80899857Y-72827380D02*
X80899857Y-72994047D01*
X80518904Y-72255952D02*
X80518904Y-72494047D01*
X80518904Y-72494047D02*
X80899857Y-72517856D01*
X80899857Y-72517856D02*
X80861761Y-72494047D01*
X80861761Y-72494047D02*
X80823666Y-72446428D01*
X80823666Y-72446428D02*
X80823666Y-72327380D01*
X80823666Y-72327380D02*
X80861761Y-72279761D01*
X80861761Y-72279761D02*
X80899857Y-72255952D01*
X80899857Y-72255952D02*
X80976047Y-72232142D01*
X80976047Y-72232142D02*
X81166523Y-72232142D01*
X81166523Y-72232142D02*
X81242714Y-72255952D01*
X81242714Y-72255952D02*
X81280809Y-72279761D01*
X81280809Y-72279761D02*
X81318904Y-72327380D01*
X81318904Y-72327380D02*
X81318904Y-72446428D01*
X81318904Y-72446428D02*
X81280809Y-72494047D01*
X81280809Y-72494047D02*
X81242714Y-72517856D01*
D10*
X139568800Y-111168700D02*
X139568800Y-112668700D01*
X139568800Y-112668700D02*
X144968800Y-112668700D01*
X141768800Y-111418700D02*
X141768800Y-112418700D01*
X141868800Y-111918700D02*
X142768800Y-111418700D01*
X142768800Y-111418700D02*
X142768800Y-112418700D01*
X142768800Y-112418700D02*
X141868800Y-111918700D01*
X144968800Y-111168700D02*
X139568800Y-111168700D01*
X144968800Y-112668700D02*
X144968800Y-111168700D01*
X114400000Y-72950000D02*
X114400000Y-74450000D01*
X114400000Y-74450000D02*
X119800000Y-74450000D01*
X116600000Y-73200000D02*
X116600000Y-74200000D01*
X116700000Y-73700000D02*
X117600000Y-73200000D01*
X117600000Y-73200000D02*
X117600000Y-74200000D01*
X117600000Y-74200000D02*
X116700000Y-73700000D01*
X119800000Y-72950000D02*
X114400000Y-72950000D01*
X119800000Y-74450000D02*
X119800000Y-72950000D01*
X131256300Y-130218700D02*
X131256300Y-131718700D01*
X131256300Y-131718700D02*
X136656300Y-131718700D01*
X133456300Y-130468700D02*
X133456300Y-131468700D01*
X133556300Y-130968700D02*
X134456300Y-130468700D01*
X134456300Y-130468700D02*
X134456300Y-131468700D01*
X134456300Y-131468700D02*
X133556300Y-130968700D01*
X136656300Y-130218700D02*
X131256300Y-130218700D01*
X136656300Y-131718700D02*
X136656300Y-130218700D01*
X216981300Y-111168700D02*
X216981300Y-112668700D01*
X216981300Y-112668700D02*
X222381300Y-112668700D01*
X219181300Y-111418700D02*
X219181300Y-112418700D01*
X219281300Y-111918700D02*
X220181300Y-111418700D01*
X220181300Y-111418700D02*
X220181300Y-112418700D01*
X220181300Y-112418700D02*
X219281300Y-111918700D01*
X222381300Y-111168700D02*
X216981300Y-111168700D01*
X222381300Y-112668700D02*
X222381300Y-111168700D01*
X156275000Y-72800000D02*
X156275000Y-74300000D01*
X156275000Y-74300000D02*
X161675000Y-74300000D01*
X158475000Y-73050000D02*
X158475000Y-74050000D01*
X158575000Y-73550000D02*
X159475000Y-73050000D01*
X159475000Y-73050000D02*
X159475000Y-74050000D01*
X159475000Y-74050000D02*
X158575000Y-73550000D01*
X161675000Y-72800000D02*
X156275000Y-72800000D01*
X161675000Y-74300000D02*
X161675000Y-72800000D01*
X190181300Y-92118700D02*
X190181300Y-93618700D01*
X190181300Y-93618700D02*
X195581300Y-93618700D01*
X192381300Y-92368700D02*
X192381300Y-93368700D01*
X192481300Y-92868700D02*
X193381300Y-92368700D01*
X193381300Y-92368700D02*
X193381300Y-93368700D01*
X193381300Y-93368700D02*
X192481300Y-92868700D01*
X195581300Y-92118700D02*
X190181300Y-92118700D01*
X195581300Y-93618700D02*
X195581300Y-92118700D01*
X206850000Y-73068700D02*
X206850000Y-74568700D01*
X206850000Y-74568700D02*
X212250000Y-74568700D01*
X209050000Y-73318700D02*
X209050000Y-74318700D01*
X209150000Y-73818700D02*
X210050000Y-73318700D01*
X210050000Y-73318700D02*
X210050000Y-74318700D01*
X210050000Y-74318700D02*
X209150000Y-73818700D01*
X212250000Y-73068700D02*
X206850000Y-73068700D01*
X212250000Y-74568700D02*
X212250000Y-73068700D01*
X264606300Y-149268700D02*
X264606300Y-150768700D01*
X264606300Y-150768700D02*
X270006300Y-150768700D01*
X266806300Y-149518700D02*
X266806300Y-150518700D01*
X266906300Y-150018700D02*
X267806300Y-149518700D01*
X267806300Y-149518700D02*
X267806300Y-150518700D01*
X267806300Y-150518700D02*
X266906300Y-150018700D01*
X270006300Y-149268700D02*
X264606300Y-149268700D01*
X270006300Y-150768700D02*
X270006300Y-149268700D01*
X155300000Y-92200000D02*
X155300000Y-93700000D01*
X155300000Y-93700000D02*
X160700000Y-93700000D01*
X157500000Y-92450000D02*
X157500000Y-93450000D01*
X157600000Y-92950000D02*
X158500000Y-92450000D01*
X158500000Y-92450000D02*
X158500000Y-93450000D01*
X158500000Y-93450000D02*
X157600000Y-92950000D01*
X160700000Y-92200000D02*
X155300000Y-92200000D01*
X160700000Y-93700000D02*
X160700000Y-92200000D01*
X88575000Y-166525000D02*
X90075000Y-166525000D01*
X90075000Y-166525000D02*
X90075000Y-161125000D01*
X88825000Y-164325000D02*
X89825000Y-164325000D01*
X89325000Y-164225000D02*
X88825000Y-163325000D01*
X88825000Y-163325000D02*
X89825000Y-163325000D01*
X89825000Y-163325000D02*
X89325000Y-164225000D01*
X88575000Y-161125000D02*
X88575000Y-166525000D01*
X90075000Y-161125000D02*
X88575000Y-161125000D01*
X112206300Y-130218700D02*
X112206300Y-131718700D01*
X112206300Y-131718700D02*
X117606300Y-131718700D01*
X114406300Y-130468700D02*
X114406300Y-131468700D01*
X114506300Y-130968700D02*
X115406300Y-130468700D01*
X115406300Y-130468700D02*
X115406300Y-131468700D01*
X115406300Y-131468700D02*
X114506300Y-130968700D01*
X117606300Y-130218700D02*
X112206300Y-130218700D01*
X117606300Y-131718700D02*
X117606300Y-130218700D01*
X268762500Y-92118700D02*
X268762500Y-93618700D01*
X268762500Y-93618700D02*
X274162500Y-93618700D01*
X270962500Y-92368700D02*
X270962500Y-93368700D01*
X271062500Y-92868700D02*
X271962500Y-92368700D01*
X271962500Y-92368700D02*
X271962500Y-93368700D01*
X271962500Y-93368700D02*
X271062500Y-92868700D01*
X274162500Y-92118700D02*
X268762500Y-92118700D01*
X274162500Y-93618700D02*
X274162500Y-92118700D01*
X245556300Y-130218700D02*
X245556300Y-131718700D01*
X245556300Y-131718700D02*
X250956300Y-131718700D01*
X247756300Y-130468700D02*
X247756300Y-131468700D01*
X247856300Y-130968700D02*
X248756300Y-130468700D01*
X248756300Y-130468700D02*
X248756300Y-131468700D01*
X248756300Y-131468700D02*
X247856300Y-130968700D01*
X250956300Y-130218700D02*
X245556300Y-130218700D01*
X250956300Y-131718700D02*
X250956300Y-130218700D01*
X150306300Y-130218700D02*
X150306300Y-131718700D01*
X150306300Y-131718700D02*
X155706300Y-131718700D01*
X152506300Y-130468700D02*
X152506300Y-131468700D01*
X152606300Y-130968700D02*
X153506300Y-130468700D01*
X153506300Y-130468700D02*
X153506300Y-131468700D01*
X153506300Y-131468700D02*
X152606300Y-130968700D01*
X155706300Y-130218700D02*
X150306300Y-130218700D01*
X155706300Y-131718700D02*
X155706300Y-130218700D01*
X249712500Y-92118700D02*
X249712500Y-93618700D01*
X249712500Y-93618700D02*
X255112500Y-93618700D01*
X251912500Y-92368700D02*
X251912500Y-93368700D01*
X252012500Y-92868700D02*
X252912500Y-92368700D01*
X252912500Y-92368700D02*
X252912500Y-93368700D01*
X252912500Y-93368700D02*
X252012500Y-92868700D01*
X255112500Y-92118700D02*
X249712500Y-92118700D01*
X255112500Y-93618700D02*
X255112500Y-92118700D01*
X207456300Y-130218700D02*
X207456300Y-131718700D01*
X207456300Y-131718700D02*
X212856300Y-131718700D01*
X209656300Y-130468700D02*
X209656300Y-131468700D01*
X209756300Y-130968700D02*
X210656300Y-130468700D01*
X210656300Y-130468700D02*
X210656300Y-131468700D01*
X210656300Y-131468700D02*
X209756300Y-130968700D01*
X212856300Y-130218700D02*
X207456300Y-130218700D01*
X212856300Y-131718700D02*
X212856300Y-130218700D01*
X264914500Y-130218700D02*
X264914500Y-131718700D01*
X264914500Y-131718700D02*
X270314500Y-131718700D01*
X267114500Y-130468700D02*
X267114500Y-131468700D01*
X267214500Y-130968700D02*
X268114500Y-130468700D01*
X268114500Y-130468700D02*
X268114500Y-131468700D01*
X268114500Y-131468700D02*
X267214500Y-130968700D01*
X270314500Y-130218700D02*
X264914500Y-130218700D01*
X270314500Y-131718700D02*
X270314500Y-130218700D01*
X120172500Y-111168700D02*
X120172500Y-112668700D01*
X120172500Y-112668700D02*
X125572500Y-112668700D01*
X122372500Y-111418700D02*
X122372500Y-112418700D01*
X122472500Y-111918700D02*
X123372500Y-111418700D01*
X123372500Y-111418700D02*
X123372500Y-112418700D01*
X123372500Y-112418700D02*
X122472500Y-111918700D01*
X125572500Y-111168700D02*
X120172500Y-111168700D01*
X125572500Y-112668700D02*
X125572500Y-111168700D01*
X128650000Y-73025000D02*
X128650000Y-74525000D01*
X128650000Y-74525000D02*
X134050000Y-74525000D01*
X130850000Y-73275000D02*
X130850000Y-74275000D01*
X130950000Y-73775000D02*
X131850000Y-73275000D01*
X131850000Y-73275000D02*
X131850000Y-74275000D01*
X131850000Y-74275000D02*
X130950000Y-73775000D01*
X134050000Y-73025000D02*
X128650000Y-73025000D01*
X134050000Y-74525000D02*
X134050000Y-73025000D01*
X94900000Y-92000000D02*
X94900000Y-93500000D01*
X94900000Y-93500000D02*
X100300000Y-93500000D01*
X97100000Y-92250000D02*
X97100000Y-93250000D01*
X97200000Y-92750000D02*
X98100000Y-92250000D01*
X98100000Y-92250000D02*
X98100000Y-93250000D01*
X98100000Y-93250000D02*
X97200000Y-92750000D01*
X100300000Y-92000000D02*
X94900000Y-92000000D01*
X100300000Y-93500000D02*
X100300000Y-92000000D01*
X225900000Y-73068700D02*
X225900000Y-74568700D01*
X225900000Y-74568700D02*
X231300000Y-74568700D01*
X228100000Y-73318700D02*
X228100000Y-74318700D01*
X228200000Y-73818700D02*
X229100000Y-73318700D01*
X229100000Y-73318700D02*
X229100000Y-74318700D01*
X229100000Y-74318700D02*
X228200000Y-73818700D01*
X231300000Y-73068700D02*
X225900000Y-73068700D01*
X231300000Y-74568700D02*
X231300000Y-73068700D01*
X169356300Y-130218700D02*
X169356300Y-131718700D01*
X169356300Y-131718700D02*
X174756300Y-131718700D01*
X171556300Y-130468700D02*
X171556300Y-131468700D01*
X171656300Y-130968700D02*
X172556300Y-130468700D01*
X172556300Y-130468700D02*
X172556300Y-131468700D01*
X172556300Y-131468700D02*
X171656300Y-130968700D01*
X174756300Y-130218700D02*
X169356300Y-130218700D01*
X174756300Y-131718700D02*
X174756300Y-130218700D01*
X84500000Y-91450000D02*
X86000000Y-91450000D01*
X86000000Y-91450000D02*
X86000000Y-86050000D01*
X84750000Y-89250000D02*
X85750000Y-89250000D01*
X85250000Y-89150000D02*
X84750000Y-88250000D01*
X84750000Y-88250000D02*
X85750000Y-88250000D01*
X85750000Y-88250000D02*
X85250000Y-89150000D01*
X84500000Y-86050000D02*
X84500000Y-91450000D01*
X86000000Y-86050000D02*
X84500000Y-86050000D01*
X238412500Y-149268700D02*
X238412500Y-150768700D01*
X238412500Y-150768700D02*
X243812500Y-150768700D01*
X240612500Y-149518700D02*
X240612500Y-150518700D01*
X240712500Y-150018700D02*
X241612500Y-149518700D01*
X241612500Y-149518700D02*
X241612500Y-150518700D01*
X241612500Y-150518700D02*
X240712500Y-150018700D01*
X243812500Y-149268700D02*
X238412500Y-149268700D01*
X243812500Y-150768700D02*
X243812500Y-149268700D01*
X235425000Y-111168700D02*
X235425000Y-112668700D01*
X235425000Y-112668700D02*
X240825000Y-112668700D01*
X237625000Y-111418700D02*
X237625000Y-112418700D01*
X237725000Y-111918700D02*
X238625000Y-111418700D01*
X238625000Y-111418700D02*
X238625000Y-112418700D01*
X238625000Y-112418700D02*
X237725000Y-111918700D01*
X240825000Y-111168700D02*
X235425000Y-111168700D01*
X240825000Y-112668700D02*
X240825000Y-111168700D01*
X109925000Y-92300000D02*
X109925000Y-93800000D01*
X109925000Y-93800000D02*
X115325000Y-93800000D01*
X112125000Y-92550000D02*
X112125000Y-93550000D01*
X112225000Y-93050000D02*
X113125000Y-92550000D01*
X113125000Y-92550000D02*
X113125000Y-93550000D01*
X113125000Y-93550000D02*
X112225000Y-93050000D01*
X115325000Y-92300000D02*
X109925000Y-92300000D01*
X115325000Y-93800000D02*
X115325000Y-92300000D01*
X99950000Y-72900000D02*
X99950000Y-74400000D01*
X99950000Y-74400000D02*
X105350000Y-74400000D01*
X102150000Y-73150000D02*
X102150000Y-74150000D01*
X102250000Y-73650000D02*
X103150000Y-73150000D01*
X103150000Y-73150000D02*
X103150000Y-74150000D01*
X103150000Y-74150000D02*
X102250000Y-73650000D01*
X105350000Y-72900000D02*
X99950000Y-72900000D01*
X105350000Y-74400000D02*
X105350000Y-72900000D01*
X102681300Y-111168700D02*
X102681300Y-112668700D01*
X102681300Y-112668700D02*
X108081300Y-112668700D01*
X104881300Y-111418700D02*
X104881300Y-112418700D01*
X104981300Y-111918700D02*
X105881300Y-111418700D01*
X105881300Y-111418700D02*
X105881300Y-112418700D01*
X105881300Y-112418700D02*
X104981300Y-111918700D01*
X108081300Y-111168700D02*
X102681300Y-111168700D01*
X108081300Y-112668700D02*
X108081300Y-111168700D01*
X59818800Y-111168700D02*
X59818800Y-112668700D01*
X59818800Y-112668700D02*
X65218800Y-112668700D01*
X62018800Y-111418700D02*
X62018800Y-112418700D01*
X62118800Y-111918700D02*
X63018800Y-111418700D01*
X63018800Y-111418700D02*
X63018800Y-112418700D01*
X63018800Y-112418700D02*
X62118800Y-111918700D01*
X65218800Y-111168700D02*
X59818800Y-111168700D01*
X65218800Y-112668700D02*
X65218800Y-111168700D01*
X265775000Y-73068700D02*
X265775000Y-74568700D01*
X265775000Y-74568700D02*
X271175000Y-74568700D01*
X267975000Y-73318700D02*
X267975000Y-74318700D01*
X268075000Y-73818700D02*
X268975000Y-73318700D01*
X268975000Y-73318700D02*
X268975000Y-74318700D01*
X268975000Y-74318700D02*
X268075000Y-73818700D01*
X271175000Y-73068700D02*
X265775000Y-73068700D01*
X271175000Y-74568700D02*
X271175000Y-73068700D01*
X209231300Y-92118700D02*
X209231300Y-93618700D01*
X209231300Y-93618700D02*
X214631300Y-93618700D01*
X211431300Y-92368700D02*
X211431300Y-93368700D01*
X211531300Y-92868700D02*
X212431300Y-92368700D01*
X212431300Y-92368700D02*
X212431300Y-93368700D01*
X212431300Y-93368700D02*
X211531300Y-92868700D01*
X214631300Y-92118700D02*
X209231300Y-92118700D01*
X214631300Y-93618700D02*
X214631300Y-92118700D01*
X48406300Y-129056200D02*
X48656300Y-129056200D01*
X48406300Y-129056200D02*
X48406300Y-123356200D01*
X51606300Y-129056200D02*
X51356300Y-129056200D01*
X51606300Y-129056200D02*
X51606300Y-123356200D01*
X48406300Y-123356200D02*
X48656300Y-123356200D01*
X51606300Y-123356200D02*
X51356300Y-123356200D01*
X125550000Y-92100000D02*
X125550000Y-93600000D01*
X125550000Y-93600000D02*
X130950000Y-93600000D01*
X127750000Y-92350000D02*
X127750000Y-93350000D01*
X127850000Y-92850000D02*
X128750000Y-92350000D01*
X128750000Y-92350000D02*
X128750000Y-93350000D01*
X128750000Y-93350000D02*
X127850000Y-92850000D01*
X130950000Y-92100000D02*
X125550000Y-92100000D01*
X130950000Y-93600000D02*
X130950000Y-92100000D01*
X172275000Y-72975000D02*
X172275000Y-74475000D01*
X172275000Y-74475000D02*
X177675000Y-74475000D01*
X174475000Y-73225000D02*
X174475000Y-74225000D01*
X174575000Y-73725000D02*
X175475000Y-73225000D01*
X175475000Y-73225000D02*
X175475000Y-74225000D01*
X175475000Y-74225000D02*
X174575000Y-73725000D01*
X177675000Y-72975000D02*
X172275000Y-72975000D01*
X177675000Y-74475000D02*
X177675000Y-72975000D01*
X230662500Y-92118700D02*
X230662500Y-93618700D01*
X230662500Y-93618700D02*
X236062500Y-93618700D01*
X232862500Y-92368700D02*
X232862500Y-93368700D01*
X232962500Y-92868700D02*
X233862500Y-92368700D01*
X233862500Y-92368700D02*
X233862500Y-93368700D01*
X233862500Y-93368700D02*
X232962500Y-92868700D01*
X236062500Y-92118700D02*
X230662500Y-92118700D01*
X236062500Y-93618700D02*
X236062500Y-92118700D01*
X62200000Y-130218700D02*
X62200000Y-131718700D01*
X62200000Y-131718700D02*
X67600000Y-131718700D01*
X64400000Y-130468700D02*
X64400000Y-131468700D01*
X64500000Y-130968700D02*
X65400000Y-130468700D01*
X65400000Y-130468700D02*
X65400000Y-131468700D01*
X65400000Y-131468700D02*
X64500000Y-130968700D01*
X67600000Y-130218700D02*
X62200000Y-130218700D01*
X67600000Y-131718700D02*
X67600000Y-130218700D01*
X166975000Y-149268700D02*
X166975000Y-150768700D01*
X166975000Y-150768700D02*
X172375000Y-150768700D01*
X169175000Y-149518700D02*
X169175000Y-150518700D01*
X169275000Y-150018700D02*
X170175000Y-149518700D01*
X170175000Y-149518700D02*
X170175000Y-150518700D01*
X170175000Y-150518700D02*
X169275000Y-150018700D01*
X172375000Y-149268700D02*
X166975000Y-149268700D01*
X172375000Y-150768700D02*
X172375000Y-149268700D01*
X187800000Y-73068700D02*
X187800000Y-74568700D01*
X187800000Y-74568700D02*
X193200000Y-74568700D01*
X190000000Y-73318700D02*
X190000000Y-74318700D01*
X190100000Y-73818700D02*
X191000000Y-73318700D01*
X191000000Y-73318700D02*
X191000000Y-74318700D01*
X191000000Y-74318700D02*
X190100000Y-73818700D01*
X193200000Y-73068700D02*
X187800000Y-73068700D01*
X193200000Y-74568700D02*
X193200000Y-73068700D01*
X259843800Y-111168700D02*
X259843800Y-112668700D01*
X259843800Y-112668700D02*
X265243800Y-112668700D01*
X262043800Y-111418700D02*
X262043800Y-112418700D01*
X262143800Y-111918700D02*
X263043800Y-111418700D01*
X263043800Y-111418700D02*
X263043800Y-112418700D01*
X263043800Y-112418700D02*
X262143800Y-111918700D01*
X265243800Y-111168700D02*
X259843800Y-111168700D01*
X265243800Y-112668700D02*
X265243800Y-111168700D01*
X244950000Y-73068700D02*
X244950000Y-74568700D01*
X244950000Y-74568700D02*
X250350000Y-74568700D01*
X247150000Y-73318700D02*
X247150000Y-74318700D01*
X247250000Y-73818700D02*
X248150000Y-73318700D01*
X248150000Y-73318700D02*
X248150000Y-74318700D01*
X248150000Y-74318700D02*
X247250000Y-73818700D01*
X250350000Y-73068700D02*
X244950000Y-73068700D01*
X250350000Y-74568700D02*
X250350000Y-73068700D01*
X197931300Y-111168700D02*
X197931300Y-112668700D01*
X197931300Y-112668700D02*
X203331300Y-112668700D01*
X200131300Y-111418700D02*
X200131300Y-112418700D01*
X200231300Y-111918700D02*
X201131300Y-111418700D01*
X201131300Y-111418700D02*
X201131300Y-112418700D01*
X201131300Y-112418700D02*
X200231300Y-111918700D01*
X203331300Y-111168700D02*
X197931300Y-111168700D01*
X203331300Y-112668700D02*
X203331300Y-111168700D01*
X83025000Y-111168700D02*
X83025000Y-112668700D01*
X83025000Y-112668700D02*
X88425000Y-112668700D01*
X85225000Y-111418700D02*
X85225000Y-112418700D01*
X85325000Y-111918700D02*
X86225000Y-111418700D01*
X86225000Y-111418700D02*
X86225000Y-112418700D01*
X86225000Y-112418700D02*
X85325000Y-111918700D01*
X88425000Y-111168700D02*
X83025000Y-111168700D01*
X88425000Y-112668700D02*
X88425000Y-111168700D01*
X140175000Y-92100000D02*
X140175000Y-93600000D01*
X140175000Y-93600000D02*
X145575000Y-93600000D01*
X142375000Y-92350000D02*
X142375000Y-93350000D01*
X142475000Y-92850000D02*
X143375000Y-92350000D01*
X143375000Y-92350000D02*
X143375000Y-93350000D01*
X143375000Y-93350000D02*
X142475000Y-92850000D01*
X145575000Y-92100000D02*
X140175000Y-92100000D01*
X145575000Y-93600000D02*
X145575000Y-92100000D01*
X172906300Y-92118700D02*
X172906300Y-93618700D01*
X172906300Y-93618700D02*
X178306300Y-93618700D01*
X175106300Y-92368700D02*
X175106300Y-93368700D01*
X175206300Y-92868700D02*
X176106300Y-92368700D01*
X176106300Y-92368700D02*
X176106300Y-93368700D01*
X176106300Y-93368700D02*
X175206300Y-92868700D01*
X178306300Y-92118700D02*
X172906300Y-92118700D01*
X178306300Y-93618700D02*
X178306300Y-92118700D01*
X178881300Y-111168700D02*
X178881300Y-112668700D01*
X178881300Y-112668700D02*
X184281300Y-112668700D01*
X181081300Y-111418700D02*
X181081300Y-112418700D01*
X181181300Y-111918700D02*
X182081300Y-111418700D01*
X182081300Y-111418700D02*
X182081300Y-112418700D01*
X182081300Y-112418700D02*
X181181300Y-111918700D01*
X184281300Y-111168700D02*
X178881300Y-111168700D01*
X184281300Y-112668700D02*
X184281300Y-111168700D01*
X107750000Y-166250000D02*
X109250000Y-166250000D01*
X109250000Y-166250000D02*
X109250000Y-160850000D01*
X108000000Y-164050000D02*
X109000000Y-164050000D01*
X108500000Y-163950000D02*
X108000000Y-163050000D01*
X108000000Y-163050000D02*
X109000000Y-163050000D01*
X109000000Y-163050000D02*
X108500000Y-163950000D01*
X107750000Y-160850000D02*
X107750000Y-166250000D01*
X109250000Y-160850000D02*
X107750000Y-160850000D01*
X69375000Y-166450000D02*
X70875000Y-166450000D01*
X70875000Y-166450000D02*
X70875000Y-161050000D01*
X69625000Y-164250000D02*
X70625000Y-164250000D01*
X70125000Y-164150000D02*
X69625000Y-163250000D01*
X69625000Y-163250000D02*
X70625000Y-163250000D01*
X70625000Y-163250000D02*
X70125000Y-164150000D01*
X69375000Y-161050000D02*
X69375000Y-166450000D01*
X70875000Y-161050000D02*
X69375000Y-161050000D01*
X188406300Y-130218700D02*
X188406300Y-131718700D01*
X188406300Y-131718700D02*
X193806300Y-131718700D01*
X190606300Y-130468700D02*
X190606300Y-131468700D01*
X190706300Y-130968700D02*
X191606300Y-130468700D01*
X191606300Y-130468700D02*
X191606300Y-131468700D01*
X191606300Y-131468700D02*
X190706300Y-130968700D01*
X193806300Y-130218700D02*
X188406300Y-130218700D01*
X193806300Y-131718700D02*
X193806300Y-130218700D01*
X226506300Y-130218700D02*
X226506300Y-131718700D01*
X226506300Y-131718700D02*
X231906300Y-131718700D01*
X228706300Y-130468700D02*
X228706300Y-131468700D01*
X228806300Y-130968700D02*
X229706300Y-130468700D01*
X229706300Y-130468700D02*
X229706300Y-131468700D01*
X229706300Y-131468700D02*
X228806300Y-130968700D01*
X231906300Y-130218700D02*
X226506300Y-130218700D01*
X231906300Y-131718700D02*
X231906300Y-130218700D01*
X142775000Y-72950000D02*
X142775000Y-74450000D01*
X142775000Y-74450000D02*
X148175000Y-74450000D01*
X144975000Y-73200000D02*
X144975000Y-74200000D01*
X145075000Y-73700000D02*
X145975000Y-73200000D01*
X145975000Y-73200000D02*
X145975000Y-74200000D01*
X145975000Y-74200000D02*
X145075000Y-73700000D01*
X148175000Y-72950000D02*
X142775000Y-72950000D01*
X148175000Y-74450000D02*
X148175000Y-72950000D01*
X51795000Y-91172200D02*
X51795000Y-88632200D01*
X82275000Y-91172200D02*
X51795000Y-91172200D01*
X51795000Y-88632200D02*
X82275000Y-88632200D01*
X82275000Y-88632200D02*
X82275000Y-91172200D01*
X51795000Y-75952200D02*
X51795000Y-73412200D01*
X82275000Y-75952200D02*
X51795000Y-75952200D01*
X51795000Y-73412200D02*
X82275000Y-73412200D01*
X82275000Y-73412200D02*
X82275000Y-75952200D01*
X93156300Y-130218700D02*
X93156300Y-131718700D01*
X93156300Y-131718700D02*
X98556300Y-131718700D01*
X95356300Y-130468700D02*
X95356300Y-131468700D01*
X95456300Y-130968700D02*
X96356300Y-130468700D01*
X96356300Y-130468700D02*
X96356300Y-131468700D01*
X96356300Y-131468700D02*
X95456300Y-130968700D01*
X98556300Y-130218700D02*
X93156300Y-130218700D01*
X98556300Y-131718700D02*
X98556300Y-130218700D01*
X158272500Y-111168700D02*
X158272500Y-112668700D01*
X158272500Y-112668700D02*
X163672500Y-112668700D01*
X160472500Y-111418700D02*
X160472500Y-112418700D01*
X160572500Y-111918700D02*
X161472500Y-111418700D01*
X161472500Y-111418700D02*
X161472500Y-112418700D01*
X161472500Y-112418700D02*
X160572500Y-111918700D01*
X163672500Y-111168700D02*
X158272500Y-111168700D01*
X163672500Y-112668700D02*
X163672500Y-111168700D01*
X69250000Y-107575000D02*
X70750000Y-107575000D01*
X70750000Y-107575000D02*
X70750000Y-102175000D01*
X69500000Y-105375000D02*
X70500000Y-105375000D01*
X70000000Y-105275000D02*
X69500000Y-104375000D01*
X69500000Y-104375000D02*
X70500000Y-104375000D01*
X70500000Y-104375000D02*
X70000000Y-105275000D01*
X69250000Y-102175000D02*
X69250000Y-107575000D01*
X70750000Y-102175000D02*
X69250000Y-102175000D01*
D12*
X247332500Y-102393700D03*
D13*
X252412500Y-102393700D03*
D12*
X257492500Y-102393700D03*
D14*
X138458799Y-111918699D03*
D15*
X146078800Y-111918700D03*
D14*
X113289999Y-73699999D03*
D15*
X120910000Y-73700000D03*
D14*
X130146299Y-130968699D03*
D15*
X137766300Y-130968700D03*
D12*
X90170000Y-83343700D03*
D13*
X95250000Y-83343700D03*
D12*
X100330000Y-83343700D03*
D14*
X215871299Y-111918699D03*
D15*
X223491300Y-111918700D03*
D14*
X155164999Y-73549999D03*
D15*
X162785000Y-73550000D03*
D12*
X185420000Y-83343700D03*
D13*
X190500000Y-83343700D03*
D12*
X195580000Y-83343700D03*
X128270000Y-140493700D03*
D13*
X133350000Y-140493700D03*
D12*
X138430000Y-140493700D03*
D14*
X189071299Y-92868699D03*
D15*
X196691300Y-92868700D03*
D14*
X205739999Y-73818699D03*
D15*
X213360000Y-73818700D03*
D14*
X263496299Y-150018699D03*
D15*
X271116300Y-150018700D03*
D12*
X194945000Y-121443700D03*
D13*
X200025000Y-121443700D03*
D12*
X205105000Y-121443700D03*
D14*
X154189999Y-92949999D03*
D15*
X161810000Y-92950000D03*
D14*
X89324999Y-167634999D03*
D15*
X89325000Y-160015000D03*
D12*
X259238800Y-121443700D03*
D13*
X264318800Y-121443700D03*
D12*
X269398800Y-121443700D03*
D14*
X111096299Y-130968699D03*
D15*
X118716300Y-130968700D03*
D12*
X147320000Y-83343700D03*
D13*
X152400000Y-83343700D03*
D12*
X157480000Y-83343700D03*
D14*
X267652499Y-92868699D03*
D15*
X275272500Y-92868700D03*
D12*
X171132500Y-102393700D03*
D13*
X176212500Y-102393700D03*
D12*
X181292500Y-102393700D03*
D14*
X244446299Y-130968699D03*
D15*
X252066300Y-130968700D03*
D12*
X204470000Y-140493700D03*
D13*
X209550000Y-140493700D03*
D12*
X214630000Y-140493700D03*
D14*
X149196299Y-130968699D03*
D15*
X156816300Y-130968700D03*
D12*
X156845000Y-121443700D03*
D13*
X161925000Y-121443700D03*
D12*
X167005000Y-121443700D03*
D14*
X248602499Y-92868699D03*
D15*
X256222500Y-92868700D03*
D12*
X54451300Y-102393700D03*
D13*
X59531300Y-102393700D03*
D12*
X64611300Y-102393700D03*
X118745000Y-121443700D03*
D13*
X123825000Y-121443700D03*
D12*
X128905000Y-121443700D03*
D14*
X206346299Y-130968699D03*
D15*
X213966300Y-130968700D03*
D12*
X185420000Y-140493700D03*
D13*
X190500000Y-140493700D03*
D12*
X195580000Y-140493700D03*
D14*
X263804499Y-130968699D03*
D15*
X271424500Y-130968700D03*
D12*
X113982500Y-102393700D03*
D13*
X119062500Y-102393700D03*
D12*
X124142500Y-102393700D03*
X94932500Y-102393700D03*
D13*
X100012500Y-102393700D03*
D12*
X105092500Y-102393700D03*
X166370000Y-140493700D03*
D13*
X171450000Y-140493700D03*
D12*
X176530000Y-140493700D03*
X223520000Y-140493700D03*
D13*
X228600000Y-140493700D03*
D12*
X233680000Y-140493700D03*
X54451300Y-159543700D03*
D13*
X59531300Y-159543700D03*
D12*
X64611300Y-159543700D03*
X109220000Y-83343700D03*
D13*
X114300000Y-83343700D03*
D12*
X119380000Y-83343700D03*
X147320000Y-140493700D03*
D13*
X152400000Y-140493700D03*
D12*
X157480000Y-140493700D03*
X228282500Y-102393700D03*
D13*
X233362500Y-102393700D03*
D12*
X238442500Y-102393700D03*
X99695000Y-121443700D03*
D13*
X104775000Y-121443700D03*
D12*
X109855000Y-121443700D03*
D14*
X119062499Y-111918699D03*
D15*
X126682500Y-111918700D03*
D12*
X261620000Y-159543700D03*
D13*
X266700000Y-159543700D03*
D12*
X271780000Y-159543700D03*
X266382500Y-102393700D03*
D13*
X271462500Y-102393700D03*
D12*
X276542500Y-102393700D03*
X90170000Y-140493700D03*
D13*
X95250000Y-140493700D03*
D12*
X100330000Y-140493700D03*
D14*
X127539999Y-73774999D03*
D15*
X135160000Y-73775000D03*
D12*
X190182500Y-102393700D03*
D13*
X195262500Y-102393700D03*
D12*
X200342500Y-102393700D03*
D14*
X93789999Y-92749999D03*
D15*
X101410000Y-92750000D03*
D12*
X70976300Y-83340000D03*
D13*
X76056300Y-83340000D03*
D12*
X81136300Y-83340000D03*
D14*
X224789999Y-73818699D03*
D15*
X232410000Y-73818700D03*
D14*
X168246299Y-130968699D03*
D15*
X175866300Y-130968700D03*
D14*
X85249999Y-92559999D03*
D15*
X85250000Y-84940000D03*
D12*
X52070000Y-83343700D03*
D13*
X57150000Y-83343700D03*
D12*
X62230000Y-83343700D03*
X264001300Y-83343700D03*
D13*
X269081300Y-83343700D03*
D12*
X274161300Y-83343700D03*
D14*
X237302499Y-150018699D03*
D15*
X244922500Y-150018700D03*
D12*
X94932500Y-159543700D03*
D13*
X100012500Y-159543700D03*
D12*
X105092500Y-159543700D03*
D14*
X234314999Y-111918699D03*
D15*
X241935000Y-111918700D03*
D14*
X108814999Y-93049999D03*
D15*
X116435000Y-93050000D03*
D14*
X98839999Y-73649999D03*
D15*
X106460000Y-73650000D03*
D14*
X101571299Y-111918699D03*
D15*
X109191300Y-111918700D03*
D12*
X133032500Y-102393700D03*
D13*
X138112500Y-102393700D03*
D12*
X143192500Y-102393700D03*
X209232500Y-102393700D03*
D13*
X214312500Y-102393700D03*
D12*
X219392500Y-102393700D03*
D14*
X58708799Y-111918699D03*
D15*
X66328800Y-111918700D03*
D12*
X128270000Y-83343700D03*
D13*
X133350000Y-83343700D03*
D12*
X138430000Y-83343700D03*
D14*
X264664999Y-73818699D03*
D15*
X272285000Y-73818700D03*
D14*
X208121299Y-92868699D03*
D15*
X215741300Y-92868700D03*
D12*
X137795000Y-121443700D03*
D13*
X142875000Y-121443700D03*
D12*
X147955000Y-121443700D03*
X80645000Y-121443700D03*
D13*
X85725000Y-121443700D03*
D12*
X90805000Y-121443700D03*
D14*
X124439999Y-92849999D03*
D15*
X132060000Y-92850000D03*
D14*
X171164999Y-73724999D03*
D15*
X178785000Y-73725000D03*
D12*
X56832500Y-121443700D03*
D13*
X61912500Y-121443700D03*
D12*
X66992500Y-121443700D03*
D14*
X229552499Y-92868699D03*
D15*
X237172500Y-92868700D03*
D14*
X61089999Y-130968699D03*
D15*
X68710000Y-130968700D03*
D14*
X165864999Y-150018699D03*
D15*
X173485000Y-150018700D03*
D14*
X186689999Y-73818699D03*
D15*
X194310000Y-73818700D03*
D12*
X235426300Y-159543700D03*
D13*
X240506300Y-159543700D03*
D12*
X245586300Y-159543700D03*
D14*
X258733799Y-111918699D03*
D15*
X266353800Y-111918700D03*
D14*
X243839999Y-73818699D03*
D15*
X251460000Y-73818700D03*
D12*
X166370000Y-83343700D03*
D13*
X171450000Y-83343700D03*
D12*
X176530000Y-83343700D03*
D14*
X196821299Y-111918699D03*
D15*
X204441300Y-111918700D03*
D12*
X152082500Y-102393700D03*
D13*
X157162500Y-102393700D03*
D12*
X162242500Y-102393700D03*
X75882500Y-102393700D03*
D13*
X80962500Y-102393700D03*
D12*
X86042500Y-102393700D03*
X213995000Y-121443700D03*
D13*
X219075000Y-121443700D03*
D12*
X224155000Y-121443700D03*
D14*
X81914999Y-111918699D03*
D15*
X89535000Y-111918700D03*
D12*
X75882500Y-159543700D03*
D13*
X80962500Y-159543700D03*
D12*
X86042500Y-159543700D03*
D14*
X139064999Y-92849999D03*
D15*
X146685000Y-92850000D03*
D14*
X171796299Y-92868699D03*
D15*
X179416300Y-92868700D03*
D14*
X177771299Y-111918699D03*
D15*
X185391300Y-111918700D03*
D12*
X242570000Y-83343700D03*
D13*
X247650000Y-83343700D03*
D12*
X252730000Y-83343700D03*
X233045000Y-121443700D03*
D13*
X238125000Y-121443700D03*
D12*
X243205000Y-121443700D03*
D14*
X108499999Y-167359999D03*
D15*
X108500000Y-159740000D03*
D12*
X242570000Y-140493700D03*
D13*
X247650000Y-140493700D03*
D12*
X252730000Y-140493700D03*
D14*
X70124999Y-167559999D03*
D15*
X70125000Y-159940000D03*
D12*
X109220000Y-140493700D03*
D13*
X114300000Y-140493700D03*
D12*
X119380000Y-140493700D03*
X264001300Y-140493700D03*
D13*
X269081300Y-140493700D03*
D12*
X274161300Y-140493700D03*
D14*
X187296299Y-130968699D03*
D15*
X194916300Y-130968700D03*
D12*
X204470000Y-83343700D03*
D13*
X209550000Y-83343700D03*
D12*
X214630000Y-83343700D03*
D14*
X225396299Y-130968699D03*
D15*
X233016300Y-130968700D03*
D12*
X223520000Y-83343700D03*
D13*
X228600000Y-83343700D03*
D12*
X233680000Y-83343700D03*
D14*
X141664999Y-73699999D03*
D15*
X149285000Y-73700000D03*
D12*
X175895000Y-121443700D03*
D13*
X180975000Y-121443700D03*
D12*
X186055000Y-121443700D03*
D16*
X53065000Y-74682200D03*
X55605000Y-74682200D03*
X58145000Y-74682200D03*
X60685000Y-74682200D03*
X63225000Y-74682200D03*
X65765000Y-74682200D03*
X68305000Y-74682200D03*
X70845000Y-74682200D03*
X73385000Y-74682200D03*
X75925000Y-74682200D03*
X78465000Y-74682200D03*
X81005000Y-74682200D03*
X81005000Y-89902200D03*
X78465000Y-89902200D03*
X75925000Y-89902200D03*
X73385000Y-89902200D03*
X70845000Y-89902200D03*
X68305000Y-89902200D03*
X65765000Y-89902200D03*
X63225000Y-89902200D03*
X60685000Y-89902200D03*
X58145000Y-89902200D03*
X55605000Y-89902200D03*
X53065000Y-89902200D03*
D14*
X92046299Y-130968699D03*
D15*
X99666300Y-130968700D03*
D14*
X157162499Y-111918699D03*
D15*
X164782500Y-111918700D03*
D14*
X69999999Y-108684999D03*
D15*
X70000000Y-101065000D03*
M02*
